<svg width="494" height="162" viewBox="0 0 494 162" fill="none" xmlns="http://www.w3.org/2000/svg">
<g opacity="0.7" filter="url(#filter0_f_484_114)">
<g filter="url(#filter1_f_484_114)">
<mask id="path-1-outside-1_484_114" maskUnits="userSpaceOnUse" x="14" y="25" width="462" height="106" fill="black">
<rect fill="white" x="14" y="25" width="462" height="106"/>
<path d="M17.5665 81.328C17.5665 72.624 19.5292 64.816 23.4545 57.904C27.3798 50.9067 32.7132 45.4453 39.4545 41.52C46.2812 37.5947 53.8332 35.632 62.1105 35.632C71.8385 35.632 80.3292 37.9787 87.5825 42.672C94.8358 47.3653 100.127 54.0213 103.455 62.64H89.5025C87.0278 57.264 83.4438 53.1253 78.7505 50.224C74.1425 47.3227 68.5958 45.872 62.1105 45.872C55.8812 45.872 50.2918 47.3227 45.3425 50.224C40.3932 53.1253 36.5105 57.264 33.6945 62.64C30.8785 67.9307 29.4705 74.16 29.4705 81.328C29.4705 88.4107 30.8785 94.64 33.6945 100.016C36.5105 105.307 40.3932 109.403 45.3425 112.304C50.2918 115.205 55.8812 116.656 62.1105 116.656C68.5958 116.656 74.1425 115.248 78.7505 112.432C83.4438 109.531 87.0278 105.392 89.5025 100.016H103.455C100.127 108.549 94.8358 115.163 87.5825 119.856C80.3292 124.464 71.8385 126.768 62.1105 126.768C53.8332 126.768 46.2812 124.848 39.4545 121.008C32.7132 117.083 27.3798 111.664 23.4545 104.752C19.5292 97.84 17.5665 90.032 17.5665 81.328ZM132.442 67.248C134.49 63.2373 137.391 60.1227 141.146 57.904C144.986 55.6853 149.636 54.576 155.098 54.576V66.608H152.026C138.97 66.608 132.442 73.6907 132.442 87.856V126H120.794V55.856H132.442V67.248ZM174.56 44.464C172.341 44.464 170.464 43.696 168.928 42.16C167.392 40.624 166.624 38.7467 166.624 36.528C166.624 34.3093 167.392 32.432 168.928 30.896C170.464 29.36 172.341 28.592 174.56 28.592C176.693 28.592 178.485 29.36 179.936 30.896C181.472 32.432 182.24 34.3093 182.24 36.528C182.24 38.7467 181.472 40.624 179.936 42.16C178.485 43.696 176.693 44.464 174.56 44.464ZM180.192 55.856V126H168.544V55.856H180.192ZM214.252 65.456V106.8C214.252 110.213 214.977 112.645 216.428 114.096C217.878 115.461 220.396 116.144 223.979 116.144H232.556V126H222.06C215.574 126 210.71 124.507 207.468 121.52C204.225 118.533 202.604 113.627 202.604 106.8V65.456H193.516V55.856H202.604V38.192H214.252V55.856H232.556V65.456H214.252ZM310.669 88.24C310.669 90.4587 310.541 92.8053 310.285 95.28H254.221C254.647 102.192 256.994 107.611 261.261 111.536C265.613 115.376 270.861 117.296 277.005 117.296C282.039 117.296 286.221 116.144 289.549 113.84C292.962 111.451 295.351 108.293 296.717 104.368H309.261C307.383 111.109 303.629 116.613 297.997 120.88C292.365 125.061 285.367 127.152 277.005 127.152C270.349 127.152 264.375 125.659 259.085 122.672C253.879 119.685 249.783 115.461 246.797 110C243.81 104.453 242.317 98.0533 242.317 90.8C242.317 83.5467 243.767 77.1893 246.669 71.728C249.57 66.2667 253.623 62.0853 258.829 59.184C264.119 56.1973 270.178 54.704 277.005 54.704C283.661 54.704 289.549 56.1547 294.669 59.056C299.789 61.9573 303.714 65.968 306.445 71.088C309.261 76.1227 310.669 81.84 310.669 88.24ZM298.637 85.808C298.637 81.3707 297.655 77.5733 295.693 74.416C293.73 71.1733 291.042 68.7413 287.629 67.12C284.301 65.4133 280.589 64.56 276.493 64.56C270.605 64.56 265.57 66.4373 261.389 70.192C257.293 73.9467 254.946 79.152 254.349 85.808H298.637ZM337.692 67.248C339.74 63.2373 342.641 60.1227 346.396 57.904C350.236 55.6853 354.886 54.576 360.348 54.576V66.608H357.276C344.22 66.608 337.692 73.6907 337.692 87.856V126H326.044V55.856H337.692V67.248ZM379.81 44.464C377.591 44.464 375.714 43.696 374.178 42.16C372.642 40.624 371.874 38.7467 371.874 36.528C371.874 34.3093 372.642 32.432 374.178 30.896C375.714 29.36 377.591 28.592 379.81 28.592C381.943 28.592 383.735 29.36 385.186 30.896C386.722 32.432 387.49 34.3093 387.49 36.528C387.49 38.7467 386.722 40.624 385.186 42.16C383.735 43.696 381.943 44.464 379.81 44.464ZM385.442 55.856V126H373.794V55.856H385.442ZM400.942 90.672C400.942 83.504 402.392 77.232 405.294 71.856C408.195 66.3947 412.163 62.1707 417.198 59.184C422.318 56.1973 427.992 54.704 434.222 54.704C440.366 54.704 445.699 56.0267 450.222 58.672C454.744 61.3173 458.115 64.6453 460.334 68.656V55.856H472.11V126H460.334V112.944C458.03 117.04 454.574 120.453 449.966 123.184C445.443 125.829 440.152 127.152 434.094 127.152C427.864 127.152 422.232 125.616 417.198 122.544C412.163 119.472 408.195 115.163 405.294 109.616C402.392 104.069 400.942 97.7547 400.942 90.672ZM460.334 90.8C460.334 85.5093 459.267 80.9013 457.134 76.976C455 73.0507 452.099 70.064 448.43 68.016C444.846 65.8827 440.878 64.816 436.526 64.816C432.174 64.816 428.206 65.84 424.622 67.888C421.038 69.936 418.179 72.9227 416.046 76.848C413.912 80.7733 412.846 85.3813 412.846 90.672C412.846 96.048 413.912 100.741 416.046 104.752C418.179 108.677 421.038 111.707 424.622 113.84C428.206 115.888 432.174 116.912 436.526 116.912C440.878 116.912 444.846 115.888 448.43 113.84C452.099 111.707 455 108.677 457.134 104.752C459.267 100.741 460.334 96.0907 460.334 90.8Z"/>
</mask>
<path d="M23.4545 57.904L26.0632 59.3855L26.0671 59.3786L26.0709 59.3718L23.4545 57.904ZM39.4545 41.52L37.9591 38.9193L37.952 38.9234L37.9449 38.9275L39.4545 41.52ZM87.5825 42.672L89.2123 40.1533L87.5825 42.672ZM103.455 62.64V65.64H107.829L106.253 61.5593L103.455 62.64ZM89.5025 62.64L86.7774 63.8944L87.5809 65.64H89.5025V62.64ZM78.7505 50.224L77.1521 52.7627L77.1625 52.7693L77.173 52.7758L78.7505 50.224ZM45.3425 50.224L46.8597 52.8121L45.3425 50.224ZM33.6945 62.64L36.3427 64.0495L36.3474 64.0408L36.352 64.032L33.6945 62.64ZM33.6945 100.016L31.037 101.408L31.0416 101.417L31.0463 101.426L33.6945 100.016ZM45.3425 112.304L46.8597 109.716L45.3425 112.304ZM78.7505 112.432L80.3148 114.992L80.3214 114.988L80.328 114.984L78.7505 112.432ZM89.5025 100.016V97.016H87.5809L86.7774 98.7616L89.5025 100.016ZM103.455 100.016L106.249 101.106L107.845 97.016H103.455V100.016ZM87.5825 119.856L89.1912 122.388L89.2018 122.382L89.2123 122.375L87.5825 119.856ZM39.4545 121.008L37.9449 123.601L37.9642 123.612L37.9837 123.623L39.4545 121.008ZM23.4545 104.752L26.0632 103.271L23.4545 104.752ZM20.5665 81.328C20.5665 73.0927 22.4182 65.8037 26.0632 59.3855L20.8458 56.4225C16.6401 63.8283 14.5665 72.1553 14.5665 81.328H20.5665ZM26.0709 59.3718C29.7421 52.8275 34.6991 47.7605 40.9641 44.1125L37.9449 38.9275C30.7273 43.1302 25.0175 48.9859 20.8381 56.4362L26.0709 59.3718ZM40.9499 44.1207C47.298 40.4706 54.3301 38.632 62.1105 38.632V32.632C53.3363 32.632 45.2643 34.7188 37.9591 38.9193L40.9499 44.1207ZM62.1105 38.632C71.3354 38.632 79.2444 40.85 85.9528 45.1907L89.2123 40.1533C81.4139 35.1073 72.3416 32.632 62.1105 32.632V38.632ZM85.9528 45.1907C92.6367 49.5156 97.5392 55.6492 100.656 63.7206L106.253 61.5593C102.714 52.3934 97.035 45.2151 89.2123 40.1533L85.9528 45.1907ZM103.455 59.64H89.5025V65.64H103.455V59.64ZM92.2276 61.3856C89.5251 55.5145 85.56 50.9065 80.328 47.6722L77.173 52.7758C81.3277 55.3441 84.5306 59.0135 86.7774 63.8944L92.2276 61.3856ZM80.3489 47.6853C75.1775 44.4292 69.0522 42.872 62.1105 42.872V48.872C68.1395 48.872 73.1075 50.2161 77.1521 52.7627L80.3489 47.6853ZM62.1105 42.872C55.3951 42.872 49.2739 44.4419 43.8253 47.6359L46.8597 52.8121C51.3098 50.2034 56.3673 48.872 62.1105 48.872V42.872ZM43.8253 47.6359C38.3629 50.838 34.0979 55.4045 31.037 61.248L36.352 64.032C38.9231 59.1235 42.4234 55.4126 46.8597 52.8121L43.8253 47.6359ZM31.0463 61.2304C27.9581 67.0325 26.4705 73.7643 26.4705 81.328H32.4705C32.4705 74.5557 33.7989 68.8289 36.3427 64.0495L31.0463 61.2304ZM26.4705 81.328C26.4705 88.8144 27.9612 95.536 31.037 101.408L36.352 98.624C33.7958 93.744 32.4705 88.0069 32.4705 81.328H26.4705ZM31.0463 101.426C34.1108 107.183 38.3753 111.697 43.8253 114.892L46.8597 109.716C42.411 107.108 38.9102 103.43 36.3427 98.6065L31.0463 101.426ZM43.8253 114.892C49.2739 118.086 55.3951 119.656 62.1105 119.656V113.656C56.3673 113.656 51.3098 112.325 46.8597 109.716L43.8253 114.892ZM62.1105 119.656C69.0363 119.656 75.1489 118.149 80.3148 114.992L77.1862 109.872C73.1361 112.347 68.1554 113.656 62.1105 113.656V119.656ZM80.328 114.984C85.56 111.749 89.5251 107.142 92.2276 101.27L86.7774 98.7616C84.5306 103.642 81.3277 107.312 77.173 109.88L80.328 114.984ZM89.5025 103.016H103.455V97.016H89.5025V103.016ZM100.66 98.926C97.5457 106.91 92.6445 113.007 85.9528 117.337L89.2123 122.375C97.0271 117.318 102.707 110.189 106.249 101.106L100.66 98.926ZM85.9738 117.324C79.2628 121.587 71.3461 123.768 62.1105 123.768V129.768C72.3309 129.768 81.3956 127.341 89.1912 122.388L85.9738 117.324ZM62.1105 123.768C54.3181 123.768 47.2772 121.966 40.9253 118.393L37.9837 123.623C45.2851 127.73 53.3483 129.768 62.1105 129.768V123.768ZM40.9641 118.415C34.6899 114.762 29.732 109.731 26.0632 103.271L20.8458 106.233C25.0277 113.597 30.7365 119.403 37.9449 123.601L40.9641 118.415ZM26.0632 103.271C22.4182 96.8523 20.5665 89.5633 20.5665 81.328H14.5665C14.5665 90.5007 16.6401 98.8277 20.8458 106.233L26.0632 103.271ZM132.441 67.248H129.441L135.113 68.6123L132.441 67.248ZM141.146 57.904L139.645 55.3064L139.632 55.3138L139.619 55.3212L141.146 57.904ZM155.098 54.576H158.098V51.576H155.098V54.576ZM155.098 66.608V69.608H158.098V66.608H155.098ZM132.441 126V129H135.441V126H132.441ZM120.794 126H117.794V129H120.794V126ZM120.794 55.856V52.856H117.794V55.856H120.794ZM132.441 55.856H135.441V52.856H132.441V55.856ZM135.113 68.6123C136.912 65.0908 139.423 62.4063 142.672 60.4868L139.619 55.3212C135.358 57.839 132.067 61.3839 129.77 65.8837L135.113 68.6123ZM142.646 60.5016C145.936 58.6011 150.042 57.576 155.098 57.576V51.576C149.23 51.576 144.035 52.7695 139.645 55.3064L142.646 60.5016ZM152.098 54.576V66.608H158.098V54.576H152.098ZM155.098 63.608H152.025V69.608H155.098V63.608ZM152.025 63.608C144.969 63.608 139.144 65.5333 135.132 69.8868C131.162 74.1941 129.441 80.3688 129.441 87.856H135.441C135.441 81.1778 136.985 76.7286 139.543 73.9532C142.059 71.2241 146.026 69.608 152.025 69.608V63.608ZM129.441 87.856V126H135.441V87.856H129.441ZM132.441 123H120.794V129H132.441V123ZM123.794 126V55.856H117.794V126H123.794ZM120.794 58.856H132.441V52.856H120.794V58.856ZM129.441 55.856V67.248H135.441V55.856H129.441ZM168.928 42.16L171.049 40.0387L168.928 42.16ZM168.928 30.896L171.049 33.0173L168.928 30.896ZM179.936 30.896L177.754 32.9559L177.784 32.987L177.814 33.0173L179.936 30.896ZM179.936 42.16L177.814 40.0387L177.784 40.069L177.754 40.1001L179.936 42.16ZM180.191 55.856H183.191V52.856H180.191V55.856ZM180.191 126V129H183.191V126H180.191ZM168.544 126H165.544V129H168.544V126ZM168.544 55.856V52.856H165.544V55.856H168.544ZM174.559 41.464C173.117 41.464 172.009 40.9987 171.049 40.0387L166.806 44.2813C168.918 46.3933 171.564 47.464 174.559 47.464V41.464ZM171.049 40.0387C170.089 39.0786 169.624 37.9701 169.624 36.528H163.624C163.624 39.5232 164.694 42.1694 166.806 44.2813L171.049 40.0387ZM169.624 36.528C169.624 35.0859 170.089 33.9774 171.049 33.0173L166.806 28.7747C164.694 30.8866 163.624 33.5327 163.624 36.528H169.624ZM171.049 33.0173C172.009 32.0573 173.117 31.592 174.559 31.592V25.592C171.564 25.592 168.918 26.6627 166.806 28.7747L171.049 33.0173ZM174.559 31.592C175.877 31.592 176.877 32.0265 177.754 32.9559L182.117 28.8361C180.093 26.6935 177.509 25.592 174.559 25.592V31.592ZM177.814 33.0173C178.774 33.9774 179.24 35.0859 179.24 36.528H185.24C185.24 33.5327 184.169 30.8866 182.057 28.7747L177.814 33.0173ZM179.24 36.528C179.24 37.9701 178.774 39.0786 177.814 40.0387L182.057 44.2813C184.169 42.1694 185.24 39.5232 185.24 36.528H179.24ZM177.754 40.1001C176.877 41.0295 175.877 41.464 174.559 41.464V47.464C177.509 47.464 180.093 46.3625 182.117 44.2199L177.754 40.1001ZM177.191 55.856V126H183.191V55.856H177.191ZM180.191 123H168.544V129H180.191V123ZM171.544 126V55.856H165.544V126H171.544ZM168.544 58.856H180.191V52.856H168.544V58.856ZM214.251 65.456V62.456H211.251V65.456H214.251ZM216.428 114.096L214.306 116.217L214.338 116.249L214.371 116.281L216.428 114.096ZM232.556 116.144H235.556V113.144H232.556V116.144ZM232.556 126V129H235.556V126H232.556ZM207.467 121.52L205.435 123.727L207.467 121.52ZM202.604 65.456H205.604V62.456H202.604V65.456ZM193.516 65.456H190.516V68.456H193.516V65.456ZM193.516 55.856V52.856H190.516V55.856H193.516ZM202.604 55.856V58.856H205.604V55.856H202.604ZM202.604 38.192V35.192H199.604V38.192H202.604ZM214.251 38.192H217.251V35.192H214.251V38.192ZM214.251 55.856H211.251V58.856H214.251V55.856ZM232.556 55.856H235.556V52.856H232.556V55.856ZM232.556 65.456V68.456H235.556V65.456H232.556ZM211.251 65.456V106.8H217.251V65.456H211.251ZM211.251 106.8C211.251 110.509 212.018 113.929 214.306 116.217L218.549 111.975C217.936 111.362 217.251 109.917 217.251 106.8H211.251ZM214.371 116.281C216.681 118.454 220.184 119.144 223.979 119.144V113.144C220.607 113.144 219.075 112.468 218.484 111.911L214.371 116.281ZM223.979 119.144H232.556V113.144H223.979V119.144ZM229.556 116.144V126H235.556V116.144H229.556ZM232.556 123H222.06V129H232.556V123ZM222.06 123C215.978 123 211.977 121.595 209.5 119.313L205.435 123.727C209.444 127.419 215.17 129 222.06 129V123ZM209.5 119.313C207.143 117.143 205.604 113.243 205.604 106.8H199.604C199.604 114.011 201.306 119.924 205.435 123.727L209.5 119.313ZM205.604 106.8V65.456H199.604V106.8H205.604ZM202.604 62.456H193.516V68.456H202.604V62.456ZM196.516 65.456V55.856H190.516V65.456H196.516ZM193.516 58.856H202.604V52.856H193.516V58.856ZM205.604 55.856V38.192H199.604V55.856H205.604ZM202.604 41.192H214.251V35.192H202.604V41.192ZM211.251 38.192V55.856H217.251V38.192H211.251ZM214.251 58.856H232.556V52.856H214.251V58.856ZM229.556 55.856V65.456H235.556V55.856H229.556ZM232.556 62.456H214.251V68.456H232.556V62.456ZM310.284 95.28V98.28H312.99L313.269 95.5887L310.284 95.28ZM254.221 95.28V92.28H251.03L251.226 95.4648L254.221 95.28ZM261.26 111.536L259.229 113.744L259.252 113.765L259.276 113.786L261.26 111.536ZM289.548 113.84L291.256 116.307L291.263 116.302L291.269 116.298L289.548 113.84ZM296.716 104.368V101.368H294.584L293.883 103.382L296.716 104.368ZM309.26 104.368L312.151 105.173L313.21 101.368H309.26V104.368ZM297.996 120.88L299.785 123.289L299.796 123.28L299.808 123.271L297.996 120.88ZM259.085 122.672L257.591 125.274L257.601 125.279L257.61 125.284L259.085 122.672ZM246.796 110L244.155 111.422L244.16 111.431L244.164 111.439L246.796 110ZM246.669 71.728L249.318 73.1355L246.669 71.728ZM258.828 59.184L260.289 61.8044L260.296 61.8005L260.303 61.7965L258.828 59.184ZM294.669 59.056L293.189 61.6661L294.669 59.056ZM306.445 71.088L303.797 72.4998L303.812 72.5263L303.826 72.5525L306.445 71.088ZM298.637 85.808V88.808H301.637V85.808H298.637ZM295.693 74.416L293.126 75.9694L293.135 75.9847L293.145 75.9998L295.693 74.416ZM287.629 67.12L286.26 69.7895L286.3 69.8103L286.341 69.8298L287.629 67.12ZM261.388 70.192L259.384 67.9599L259.373 67.9701L259.361 67.9805L261.388 70.192ZM254.348 85.808L251.361 85.5398L251.067 88.808H254.348V85.808ZM307.669 88.24C307.669 90.3441 307.547 92.5871 307.3 94.9713L313.269 95.5887C313.534 93.0236 313.669 90.5732 313.669 88.24H307.669ZM310.284 92.28H254.221V98.28H310.284V92.28ZM251.226 95.4648C251.691 102.99 254.284 109.194 259.229 113.744L263.292 109.328C259.703 106.027 257.604 101.394 257.215 95.0952L251.226 95.4648ZM259.276 113.786C264.21 118.139 270.176 120.296 277.005 120.296V114.296C271.545 114.296 267.015 112.613 263.245 109.286L259.276 113.786ZM277.005 120.296C282.499 120.296 287.316 119.034 291.256 116.307L287.841 111.373C285.125 113.254 281.579 114.296 277.005 114.296V120.296ZM291.269 116.298C295.197 113.548 297.977 109.876 299.55 105.354L293.883 103.382C292.725 106.711 290.726 109.354 287.828 111.382L291.269 116.298ZM296.716 107.368H309.26V101.368H296.716V107.368ZM306.37 103.563C304.671 109.665 301.299 114.614 296.185 118.489L299.808 123.271C305.958 118.612 310.095 112.553 312.151 105.173L306.37 103.563ZM296.208 118.471C291.187 122.199 284.85 124.152 277.005 124.152V130.152C285.884 130.152 293.542 127.924 299.785 123.289L296.208 118.471ZM277.005 124.152C270.815 124.152 265.358 122.768 260.559 120.06L257.61 125.284C263.393 128.549 269.882 130.152 277.005 130.152V124.152ZM260.578 120.07C255.87 117.369 252.16 113.556 249.429 108.561L244.164 111.439C247.406 117.367 251.888 122.002 257.591 125.274L260.578 120.07ZM249.438 108.578C246.72 103.53 245.316 97.6326 245.316 90.8H239.316C239.316 98.4741 240.9 105.376 244.155 111.422L249.438 108.578ZM245.316 90.8C245.316 83.9525 246.684 78.0941 249.318 73.1355L244.019 70.3205C240.851 76.2846 239.316 83.1408 239.316 90.8H245.316ZM249.318 73.1355C251.959 68.1642 255.608 64.4134 260.289 61.8044L257.368 56.5636C251.638 59.7573 247.181 64.3691 244.019 70.3205L249.318 73.1355ZM260.303 61.7965C265.09 59.094 270.629 57.704 277.005 57.704V51.704C269.726 51.704 263.148 53.3006 257.354 56.5715L260.303 61.7965ZM277.005 57.704C283.211 57.704 288.577 59.0524 293.189 61.6661L296.148 56.4459C290.52 53.257 284.11 51.704 277.005 51.704V57.704ZM293.189 61.6661C297.822 64.291 301.339 67.8894 303.797 72.4998L309.092 69.6762C306.089 64.0466 301.755 59.6236 296.148 56.4459L293.189 61.6661ZM303.826 72.5525C306.365 77.0921 307.669 82.2954 307.669 88.24H313.669C313.669 81.3846 312.156 75.1532 309.063 69.6235L303.826 72.5525ZM301.637 85.808C301.637 80.9203 300.551 76.55 298.24 72.8322L293.145 75.9998C294.759 78.5967 295.637 81.8211 295.637 85.808H301.637ZM298.259 72.8626C295.993 69.1192 292.861 66.2843 288.916 64.4102L286.341 69.8298C289.223 71.1984 291.466 73.2275 293.126 75.9694L298.259 72.8626ZM288.997 64.4505C285.207 62.5065 281.018 61.56 276.492 61.56V67.56C280.159 67.56 283.394 68.3202 286.26 69.7895L288.997 64.4505ZM276.492 61.56C269.903 61.56 264.144 63.6855 259.384 67.9599L263.393 72.4241C266.996 69.1891 271.306 67.56 276.492 67.56V61.56ZM259.361 67.9805C254.607 72.3391 252.01 78.2982 251.361 85.5398L257.336 86.0761C257.881 80.0058 259.978 75.5542 263.416 72.4035L259.361 67.9805ZM254.348 88.808H298.637V82.808H254.348V88.808ZM337.691 67.248H334.691L340.363 68.6123L337.691 67.248ZM346.396 57.904L344.895 55.3064L344.882 55.3138L344.869 55.3212L346.396 57.904ZM360.348 54.576H363.348V51.576H360.348V54.576ZM360.348 66.608V69.608H363.348V66.608H360.348ZM337.691 126V129H340.691V126H337.691ZM326.043 126H323.043V129H326.043V126ZM326.043 55.856V52.856H323.043V55.856H326.043ZM337.691 55.856H340.691V52.856H337.691V55.856ZM340.363 68.6123C342.162 65.0908 344.673 62.4063 347.922 60.4868L344.869 55.3212C340.608 57.839 337.317 61.3839 335.02 65.8837L340.363 68.6123ZM347.896 60.5016C351.186 58.6011 355.292 57.576 360.348 57.576V51.576C354.48 51.576 349.285 52.7695 344.895 55.3064L347.896 60.5016ZM357.348 54.576V66.608H363.348V54.576H357.348ZM360.348 63.608H357.276V69.608H360.348V63.608ZM357.276 63.608C350.219 63.608 344.394 65.5333 340.382 69.8868C336.412 74.1941 334.691 80.3688 334.691 87.856H340.691C340.691 81.1778 342.235 76.7286 344.793 73.9532C347.309 71.2241 351.276 69.608 357.276 69.608V63.608ZM334.691 87.856V126H340.691V87.856H334.691ZM337.691 123H326.043V129H337.691V123ZM329.043 126V55.856H323.043V126H329.043ZM326.043 58.856H337.691V52.856H326.043V58.856ZM334.691 55.856V67.248H340.691V55.856H334.691ZM374.177 42.16L376.299 40.0387L374.177 42.16ZM374.177 30.896L376.299 33.0173L374.177 30.896ZM385.185 30.896L383.004 32.9559L383.034 32.987L383.064 33.0173L385.185 30.896ZM385.185 42.16L383.064 40.0387L383.034 40.069L383.004 40.1001L385.185 42.16ZM385.441 55.856H388.441V52.856H385.441V55.856ZM385.441 126V129H388.441V126H385.441ZM373.793 126H370.793V129H373.793V126ZM373.793 55.856V52.856H370.793V55.856H373.793ZM379.81 41.464C378.367 41.464 377.259 40.9987 376.299 40.0387L372.056 44.2813C374.168 46.3933 376.814 47.464 379.81 47.464V41.464ZM376.299 40.0387C375.339 39.0786 374.874 37.9701 374.874 36.528H368.874C368.874 39.5232 369.944 42.1694 372.056 44.2813L376.299 40.0387ZM374.874 36.528C374.874 35.0859 375.339 33.9774 376.299 33.0173L372.056 28.7747C369.944 30.8866 368.874 33.5327 368.874 36.528H374.874ZM376.299 33.0173C377.259 32.0573 378.367 31.592 379.81 31.592V25.592C376.814 25.592 374.168 26.6627 372.056 28.7747L376.299 33.0173ZM379.81 31.592C381.127 31.592 382.127 32.0265 383.004 32.9559L387.367 28.8361C385.343 26.6935 382.759 25.592 379.81 25.592V31.592ZM383.064 33.0173C384.024 33.9774 384.49 35.0859 384.49 36.528H390.49C390.49 33.5327 389.419 30.8866 387.307 28.7747L383.064 33.0173ZM384.49 36.528C384.49 37.9701 384.024 39.0786 383.064 40.0387L387.307 44.2813C389.419 42.1694 390.49 39.5232 390.49 36.528H384.49ZM383.004 40.1001C382.127 41.0295 381.127 41.464 379.81 41.464V47.464C382.759 47.464 385.343 46.3625 387.367 44.2199L383.004 40.1001ZM382.441 55.856V126H388.441V55.856H382.441ZM385.441 123H373.793V129H385.441V123ZM376.793 126V55.856H370.793V126H376.793ZM373.793 58.856H385.441V52.856H373.793V58.856ZM405.293 71.856L407.934 73.2808L407.938 73.2721L407.943 73.2635L405.293 71.856ZM417.198 59.184L415.686 56.5927L415.676 56.5982L415.667 56.6038L417.198 59.184ZM450.221 58.672L448.707 61.2616L450.221 58.672ZM460.333 68.656L457.708 70.1082L463.333 68.656H460.333ZM460.333 55.856V52.856H457.333V55.856H460.333ZM472.109 55.856H475.109V52.856H472.109V55.856ZM472.109 126V129H475.109V126H472.109ZM460.333 126H457.333V129H460.333V126ZM460.333 112.944H463.333V101.491L457.719 111.473L460.333 112.944ZM449.966 123.184L451.48 125.774L451.488 125.769L451.495 125.765L449.966 123.184ZM417.198 122.544L415.635 125.105L417.198 122.544ZM405.293 109.616L407.952 108.226L405.293 109.616ZM448.43 68.016L446.895 70.5939L446.931 70.6152L446.967 70.6356L448.43 68.016ZM424.621 67.888L423.133 65.2833L424.621 67.888ZM416.046 76.848L418.681 78.2805L416.046 76.848ZM416.046 104.752L413.397 106.161L413.403 106.173L413.41 106.185L416.046 104.752ZM424.621 113.84L423.087 116.418L423.11 116.432L423.133 116.445L424.621 113.84ZM448.43 113.84L449.918 116.445L449.928 116.439L449.937 116.434L448.43 113.84ZM457.134 104.752L459.769 106.185L459.776 106.173L459.782 106.161L457.134 104.752ZM403.941 90.672C403.941 83.915 405.306 78.1488 407.934 73.2808L402.653 70.4312C399.478 76.3152 397.941 83.093 397.941 90.672H403.941ZM407.943 73.2635C410.601 68.2596 414.194 64.4539 418.728 61.7642L415.667 56.6038C410.132 59.8874 405.789 64.5297 402.644 70.4485L407.943 73.2635ZM418.709 61.7753C423.347 59.0701 428.495 57.704 434.221 57.704V51.704C427.489 51.704 421.288 53.3245 415.686 56.5927L418.709 61.7753ZM434.221 57.704C439.926 57.704 444.718 58.9283 448.707 61.2616L451.736 56.0824C446.68 53.1251 440.805 51.704 434.221 51.704V57.704ZM448.707 61.2616C452.832 63.6742 455.786 66.634 457.708 70.1082L462.959 67.2038C460.443 62.6567 456.657 58.9604 451.736 56.0824L448.707 61.2616ZM463.333 68.656V55.856H457.333V68.656H463.333ZM460.333 58.856H472.109V52.856H460.333V58.856ZM469.109 55.856V126H475.109V55.856H469.109ZM472.109 123H460.333V129H472.109V123ZM463.333 126V112.944H457.333V126H463.333ZM457.719 111.473C455.707 115.049 452.656 118.103 448.436 120.603L451.495 125.765C456.491 122.804 460.352 119.031 462.948 114.415L457.719 111.473ZM448.451 120.594C444.455 122.931 439.704 124.152 434.094 124.152V130.152C440.6 130.152 446.43 128.727 451.48 125.774L448.451 120.594ZM434.094 124.152C428.383 124.152 423.297 122.752 418.76 119.983L415.635 125.105C421.167 128.48 427.345 130.152 434.094 130.152V124.152ZM418.76 119.983C414.219 117.212 410.617 113.321 407.952 108.226L402.635 111.006C405.773 117.005 410.107 121.732 415.635 125.105L418.76 119.983ZM407.952 108.226C405.303 103.162 403.941 97.3347 403.941 90.672H397.941C397.941 98.1746 399.481 104.977 402.635 111.006L407.952 108.226ZM463.333 90.8C463.333 85.1011 462.182 79.9829 459.769 75.5435L454.498 78.4085C456.352 81.8197 457.333 85.9175 457.333 90.8H463.333ZM459.769 75.5435C457.383 71.1523 454.088 67.7388 449.892 65.3964L446.967 70.6356C450.109 72.3892 452.617 74.949 454.498 78.4085L459.769 75.5435ZM449.964 65.4381C445.895 63.0162 441.393 61.816 436.526 61.816V67.816C440.362 67.816 443.796 68.7491 446.895 70.5939L449.964 65.4381ZM436.526 61.816C431.681 61.816 427.195 62.962 423.133 65.2833L426.11 70.4927C429.216 68.718 432.666 67.816 436.526 67.816V61.816ZM423.133 65.2833C419.025 67.6305 415.786 71.0422 413.41 75.4155L418.681 78.2805C420.571 74.8031 423.05 72.2415 426.11 70.4927L423.133 65.2833ZM413.41 75.4155C410.997 79.8549 409.845 84.9731 409.845 90.672H415.845C415.845 85.7895 416.827 81.6917 418.681 78.2805L413.41 75.4155ZM409.845 90.672C409.845 96.4493 410.994 101.643 413.397 106.161L418.694 103.343C416.83 99.8393 415.845 95.6467 415.845 90.672H409.845ZM413.41 106.185C415.781 110.549 419.007 113.989 423.087 116.418L426.156 111.262C423.068 109.424 420.576 106.806 418.681 103.319L413.41 106.185ZM423.133 116.445C427.195 118.766 431.681 119.912 436.526 119.912V113.912C432.666 113.912 429.216 113.01 426.11 111.235L423.133 116.445ZM436.526 119.912C441.37 119.912 445.856 118.766 449.918 116.445L446.941 111.235C443.835 113.01 440.385 113.912 436.526 113.912V119.912ZM449.937 116.434C454.107 114.009 457.388 110.566 459.769 106.185L454.498 103.319C452.612 106.788 450.09 109.404 446.922 111.246L449.937 116.434ZM459.782 106.161C462.181 101.65 463.333 96.5008 463.333 90.8H457.333C457.333 95.6805 456.352 99.8327 454.485 103.343L459.782 106.161Z" fill="url(#paint0_radial_484_114)" mask="url(#path-1-outside-1_484_114)"/>
</g>
<mask id="path-3-outside-2_484_114" maskUnits="userSpaceOnUse" x="16" y="26" width="460" height="104" fill="black">
<rect fill="white" x="16" y="26" width="460" height="104"/>
<path d="M18.5665 81.328C18.5665 72.624 20.5292 64.816 24.4545 57.904C28.3798 50.9067 33.7132 45.4453 40.4545 41.52C47.2812 37.5947 54.8332 35.632 63.1105 35.632C72.8385 35.632 81.3292 37.9787 88.5825 42.672C95.8358 47.3653 101.127 54.0213 104.455 62.64H90.5025C88.0278 57.264 84.4438 53.1253 79.7505 50.224C75.1425 47.3227 69.5958 45.872 63.1105 45.872C56.8812 45.872 51.2918 47.3227 46.3425 50.224C41.3932 53.1253 37.5105 57.264 34.6945 62.64C31.8785 67.9307 30.4705 74.16 30.4705 81.328C30.4705 88.4107 31.8785 94.64 34.6945 100.016C37.5105 105.307 41.3932 109.403 46.3425 112.304C51.2918 115.205 56.8812 116.656 63.1105 116.656C69.5958 116.656 75.1425 115.248 79.7505 112.432C84.4438 109.531 88.0278 105.392 90.5025 100.016H104.455C101.127 108.549 95.8358 115.163 88.5825 119.856C81.3292 124.464 72.8385 126.768 63.1105 126.768C54.8332 126.768 47.2812 124.848 40.4545 121.008C33.7132 117.083 28.3798 111.664 24.4545 104.752C20.5292 97.84 18.5665 90.032 18.5665 81.328ZM133.442 67.248C135.49 63.2373 138.391 60.1227 142.146 57.904C145.986 55.6853 150.636 54.576 156.098 54.576V66.608H153.026C139.97 66.608 133.442 73.6907 133.442 87.856V126H121.794V55.856H133.442V67.248ZM175.56 44.464C173.341 44.464 171.464 43.696 169.928 42.16C168.392 40.624 167.624 38.7467 167.624 36.528C167.624 34.3093 168.392 32.432 169.928 30.896C171.464 29.36 173.341 28.592 175.56 28.592C177.693 28.592 179.485 29.36 180.936 30.896C182.472 32.432 183.24 34.3093 183.24 36.528C183.24 38.7467 182.472 40.624 180.936 42.16C179.485 43.696 177.693 44.464 175.56 44.464ZM181.192 55.856V126H169.544V55.856H181.192ZM215.252 65.456V106.8C215.252 110.213 215.977 112.645 217.428 114.096C218.878 115.461 221.396 116.144 224.979 116.144H233.556V126H223.06C216.574 126 211.71 124.507 208.468 121.52C205.225 118.533 203.604 113.627 203.604 106.8V65.456H194.516V55.856H203.604V38.192H215.252V55.856H233.556V65.456H215.252ZM311.669 88.24C311.669 90.4587 311.541 92.8053 311.285 95.28H255.221C255.647 102.192 257.994 107.611 262.261 111.536C266.613 115.376 271.861 117.296 278.005 117.296C283.039 117.296 287.221 116.144 290.549 113.84C293.962 111.451 296.351 108.293 297.717 104.368H310.261C308.383 111.109 304.629 116.613 298.997 120.88C293.365 125.061 286.367 127.152 278.005 127.152C271.349 127.152 265.375 125.659 260.085 122.672C254.879 119.685 250.783 115.461 247.797 110C244.81 104.453 243.317 98.0533 243.317 90.8C243.317 83.5467 244.767 77.1893 247.669 71.728C250.57 66.2667 254.623 62.0853 259.829 59.184C265.119 56.1973 271.178 54.704 278.005 54.704C284.661 54.704 290.549 56.1547 295.669 59.056C300.789 61.9573 304.714 65.968 307.445 71.088C310.261 76.1227 311.669 81.84 311.669 88.24ZM299.637 85.808C299.637 81.3707 298.655 77.5733 296.693 74.416C294.73 71.1733 292.042 68.7413 288.629 67.12C285.301 65.4133 281.589 64.56 277.493 64.56C271.605 64.56 266.57 66.4373 262.389 70.192C258.293 73.9467 255.946 79.152 255.349 85.808H299.637ZM338.692 67.248C340.74 63.2373 343.641 60.1227 347.396 57.904C351.236 55.6853 355.886 54.576 361.348 54.576V66.608H358.276C345.22 66.608 338.692 73.6907 338.692 87.856V126H327.044V55.856H338.692V67.248ZM380.81 44.464C378.591 44.464 376.714 43.696 375.178 42.16C373.642 40.624 372.874 38.7467 372.874 36.528C372.874 34.3093 373.642 32.432 375.178 30.896C376.714 29.36 378.591 28.592 380.81 28.592C382.943 28.592 384.735 29.36 386.186 30.896C387.722 32.432 388.49 34.3093 388.49 36.528C388.49 38.7467 387.722 40.624 386.186 42.16C384.735 43.696 382.943 44.464 380.81 44.464ZM386.442 55.856V126H374.794V55.856H386.442ZM401.942 90.672C401.942 83.504 403.392 77.232 406.294 71.856C409.195 66.3947 413.163 62.1707 418.198 59.184C423.318 56.1973 428.992 54.704 435.222 54.704C441.366 54.704 446.699 56.0267 451.222 58.672C455.744 61.3173 459.115 64.6453 461.334 68.656V55.856H473.11V126H461.334V112.944C459.03 117.04 455.574 120.453 450.966 123.184C446.443 125.829 441.152 127.152 435.094 127.152C428.864 127.152 423.232 125.616 418.198 122.544C413.163 119.472 409.195 115.163 406.294 109.616C403.392 104.069 401.942 97.7547 401.942 90.672ZM461.334 90.8C461.334 85.5093 460.267 80.9013 458.134 76.976C456 73.0507 453.099 70.064 449.43 68.016C445.846 65.8827 441.878 64.816 437.526 64.816C433.174 64.816 429.206 65.84 425.622 67.888C422.038 69.936 419.179 72.9227 417.046 76.848C414.912 80.7733 413.846 85.3813 413.846 90.672C413.846 96.048 414.912 100.741 417.046 104.752C419.179 108.677 422.038 111.707 425.622 113.84C429.206 115.888 433.174 116.912 437.526 116.912C441.878 116.912 445.846 115.888 449.43 113.84C453.099 111.707 456 108.677 458.134 104.752C460.267 100.741 461.334 96.0907 461.334 90.8Z"/>
</mask>
<path d="M24.4545 57.904L26.1936 58.8917L26.1988 58.8825L24.4545 57.904ZM40.4545 41.52L39.4575 39.7862L39.4481 39.7916L40.4545 41.52ZM88.5825 42.672L89.669 40.9929L88.5825 42.672ZM104.455 62.64V64.64H107.371L106.32 61.9196L104.455 62.64ZM90.5025 62.64L88.6857 63.4763L89.2214 64.64H90.5025V62.64ZM79.7505 50.224L78.6849 51.9165L78.6918 51.9209L78.6989 51.9252L79.7505 50.224ZM46.3425 50.224L47.3539 51.9494L46.3425 50.224ZM34.6945 62.64L36.46 63.5797L36.4662 63.568L34.6945 62.64ZM34.6945 100.016L32.9228 100.944L32.929 100.956L34.6945 100.016ZM46.3425 112.304L47.3539 110.579L46.3425 112.304ZM79.7505 112.432L80.7934 114.139L80.8021 114.133L79.7505 112.432ZM90.5025 100.016V98.016H89.2214L88.6857 99.1797L90.5025 100.016ZM104.455 100.016L106.318 100.743L107.381 98.016H104.455V100.016ZM88.5825 119.856L89.655 121.544L89.662 121.54L89.669 121.535L88.5825 119.856ZM40.4545 121.008L39.4481 122.736L39.461 122.744L39.474 122.751L40.4545 121.008ZM24.4545 104.752L26.1936 103.764L24.4545 104.752ZM20.5665 81.328C20.5665 72.9365 22.4552 65.4745 26.1936 58.8917L22.7154 56.9163C18.6031 64.1575 16.5665 72.3115 16.5665 81.328H20.5665ZM26.1988 58.8825C29.9547 52.1872 35.0371 46.9888 41.4609 43.2483L39.4481 39.7916C32.3892 43.9019 26.805 49.6261 22.7102 56.9255L26.1988 58.8825ZM41.4514 43.2538C47.9591 39.5119 55.1644 37.632 63.1105 37.632V33.632C54.5019 33.632 46.6033 35.6774 39.4576 39.7862L41.4514 43.2538ZM63.1105 37.632C72.5031 37.632 80.606 39.8929 87.496 44.3511L89.669 40.9929C82.0524 36.0644 73.1739 33.632 63.1105 33.632V37.632ZM87.496 44.3511C94.3697 48.7988 99.4016 55.1066 102.589 63.3604L106.32 61.9196C102.851 52.9361 97.302 45.9318 89.669 40.9929L87.496 44.3511ZM104.455 60.64H90.5025V64.64H104.455V60.64ZM92.3193 61.8037C89.6927 56.0976 85.8546 51.6461 80.8021 48.5228L78.6989 51.9252C83.0331 54.6045 86.363 58.4304 88.6857 63.4763L92.3193 61.8037ZM80.8161 48.5315C75.8325 45.3937 69.9001 43.872 63.1105 43.872V47.872C69.2916 47.872 74.4525 49.2516 78.6849 51.9165L80.8161 48.5315ZM63.1105 43.872C56.5571 43.872 50.6132 45.4022 45.3311 48.4986L47.3539 51.9494C51.9705 49.2432 57.2052 47.872 63.1105 47.872V43.872ZM45.3311 48.4986C40.0397 51.6005 35.9021 56.0243 32.9228 61.712L36.4662 63.568C39.1189 58.5037 42.7467 54.6502 47.3539 51.9494L45.3311 48.4986ZM32.929 61.7003C29.9316 67.3319 28.4705 73.8962 28.4705 81.328H32.4705C32.4705 74.4238 33.8254 68.5295 36.46 63.5797L32.929 61.7003ZM28.4705 81.328C28.4705 88.6798 29.9336 95.2373 32.9228 100.944L36.4662 99.088C33.8234 94.0427 32.4705 88.1415 32.4705 81.328H28.4705ZM32.929 100.956C35.9107 106.558 40.0479 110.932 45.3311 114.029L47.3539 110.579C42.7384 107.873 39.1103 104.056 36.46 99.0763L32.929 100.956ZM45.3311 114.029C50.6132 117.126 56.5571 118.656 63.1105 118.656V114.656C57.2052 114.656 51.9705 113.285 47.3539 110.579L45.3311 114.029ZM63.1105 118.656C69.8895 118.656 75.8135 117.182 80.7934 114.139L78.7076 110.725C74.4715 113.314 69.3022 114.656 63.1105 114.656V118.656ZM80.8021 114.133C85.8546 111.01 89.6927 106.558 92.3193 100.852L88.6857 99.1797C86.363 104.226 83.0331 108.051 78.6989 110.731L80.8021 114.133ZM90.5025 102.016H104.455V98.016H90.5025V102.016ZM102.591 99.2893C99.406 107.456 94.375 113.726 87.496 118.177L89.669 121.535C97.2967 116.6 102.847 109.642 106.318 100.743L102.591 99.2893ZM87.51 118.168C80.6182 122.546 72.5102 124.768 63.1105 124.768V128.768C73.1668 128.768 82.0401 126.382 89.655 121.544L87.51 118.168ZM63.1105 124.768C55.1564 124.768 47.9452 122.927 41.435 119.265L39.474 122.751C46.6171 126.769 54.5099 128.768 63.1105 128.768V124.768ZM41.4609 119.28C35.031 115.536 29.9479 110.375 26.1936 103.764L22.7154 105.74C26.8118 112.953 32.3954 118.63 39.4481 122.736L41.4609 119.28ZM26.1936 103.764C22.4552 97.1815 20.5665 89.7195 20.5665 81.328H16.5665C16.5665 90.3445 18.6031 98.4985 22.7154 105.74L26.1936 103.764ZM133.441 67.248H131.441L135.223 68.1576L133.441 67.248ZM142.146 57.904L141.145 56.1723L141.136 56.1772L141.128 56.1821L142.146 57.904ZM156.098 54.576H158.098V52.576H156.098V54.576ZM156.098 66.608V68.608H158.098V66.608H156.098ZM133.441 126V128H135.441V126H133.441ZM121.794 126H119.794V128H121.794V126ZM121.794 55.856V53.856H119.794V55.856H121.794ZM133.441 55.856H135.441V53.856H133.441V55.856ZM135.223 68.1576C137.104 64.473 139.746 61.6451 143.163 59.6259L141.128 56.1821C137.036 58.6002 133.875 62.0017 131.66 66.3384L135.223 68.1576ZM143.146 59.6357C146.619 57.6292 150.907 56.576 156.098 56.576V52.576C150.366 52.576 145.352 53.7415 141.145 56.1723L143.146 59.6357ZM154.098 54.576V66.608H158.098V54.576H154.098ZM156.098 64.608H153.025V68.608H156.098V64.608ZM153.025 64.608C146.145 64.608 140.63 66.4817 136.867 70.5645C133.132 74.6165 131.441 80.5037 131.441 87.856H135.441C135.441 81.043 137.015 76.3061 139.808 73.2755C142.573 70.2756 146.85 68.608 153.025 68.608V64.608ZM131.441 87.856V126H135.441V87.856H131.441ZM133.441 124H121.794V128H133.441V124ZM123.794 126V55.856H119.794V126H123.794ZM121.794 57.856H133.441V53.856H121.794V57.856ZM131.441 55.856V67.248H135.441V55.856H131.441ZM169.928 42.16L171.342 40.7458L169.928 42.16ZM169.928 30.896L171.342 32.3102L169.928 30.896ZM180.936 30.896L179.481 32.2692L179.501 32.29L179.521 32.3102L180.936 30.896ZM180.936 42.16L179.521 40.7458L179.501 40.766L179.481 40.7867L180.936 42.16ZM181.191 55.856H183.191V53.856H181.191V55.856ZM181.191 126V128H183.191V126H181.191ZM169.544 126H167.544V128H169.544V126ZM169.544 55.856V53.856H167.544V55.856H169.544ZM175.559 42.464C173.859 42.464 172.494 41.8978 171.342 40.7458L168.513 43.5742C170.433 45.4942 172.823 46.464 175.559 46.464V42.464ZM171.342 40.7458C170.19 39.5937 169.624 38.2289 169.624 36.528H165.624C165.624 39.2644 166.593 41.6542 168.513 43.5742L171.342 40.7458ZM169.624 36.528C169.624 34.8271 170.19 33.4622 171.342 32.3102L168.513 29.4818C166.593 31.4017 165.624 33.7916 165.624 36.528H169.624ZM171.342 32.3102C172.494 31.1582 173.859 30.592 175.559 30.592V26.592C172.823 26.592 170.433 27.5618 168.513 29.4818L171.342 32.3102ZM175.559 30.592C177.149 30.592 178.413 31.1377 179.481 32.2692L182.39 29.5227C180.557 27.5823 178.237 26.592 175.559 26.592V30.592ZM179.521 32.3102C180.673 33.4622 181.24 34.8271 181.24 36.528H185.24C185.24 33.7916 184.27 31.4017 182.35 29.4818L179.521 32.3102ZM181.24 36.528C181.24 38.2289 180.673 39.5937 179.521 40.7458L182.35 43.5742C184.27 41.6542 185.24 39.2644 185.24 36.528H181.24ZM179.481 40.7867C178.413 41.9183 177.149 42.464 175.559 42.464V46.464C178.237 46.464 180.557 45.4737 182.39 43.5332L179.481 40.7867ZM179.191 55.856V126H183.191V55.856H179.191ZM181.191 124H169.544V128H181.191V124ZM171.544 126V55.856H167.544V126H171.544ZM169.544 57.856H181.191V53.856H169.544V57.856ZM215.251 65.456V63.456H213.251V65.456H215.251ZM217.428 114.096L216.013 115.51L216.035 115.532L216.057 115.552L217.428 114.096ZM233.556 116.144H235.556V114.144H233.556V116.144ZM233.556 126V128H235.556V126H233.556ZM208.467 121.52L207.113 122.991L208.467 121.52ZM203.604 65.456H205.604V63.456H203.604V65.456ZM194.516 65.456H192.516V67.456H194.516V65.456ZM194.516 55.856V53.856H192.516V55.856H194.516ZM203.604 55.856V57.856H205.604V55.856H203.604ZM203.604 38.192V36.192H201.604V38.192H203.604ZM215.251 38.192H217.251V36.192H215.251V38.192ZM215.251 55.856H213.251V57.856H215.251V55.856ZM233.556 55.856H235.556V53.856H233.556V55.856ZM233.556 65.456V67.456H235.556V65.456H233.556ZM213.251 65.456V106.8H217.251V65.456H213.251ZM213.251 106.8C213.251 110.411 214.004 113.501 216.013 115.51L218.842 112.682C217.95 111.79 217.251 110.016 217.251 106.8H213.251ZM216.057 115.552C218.08 117.457 221.255 118.144 224.979 118.144V114.144C221.536 114.144 219.676 113.466 218.798 112.64L216.057 115.552ZM224.979 118.144H233.556V114.144H224.979V118.144ZM231.556 116.144V126H235.556V116.144H231.556ZM233.556 124H223.06V128H233.556V124ZM223.06 124C216.844 124 212.554 122.565 209.822 120.049L207.113 122.991C210.866 126.448 216.305 128 223.06 128V124ZM209.822 120.049C207.171 117.606 205.604 113.371 205.604 106.8H201.604C201.604 113.883 203.279 119.46 207.113 122.991L209.822 120.049ZM205.604 106.8V65.456H201.604V106.8H205.604ZM203.604 63.456H194.516V67.456H203.604V63.456ZM196.516 65.456V55.856H192.516V65.456H196.516ZM194.516 57.856H203.604V53.856H194.516V57.856ZM205.604 55.856V38.192H201.604V55.856H205.604ZM203.604 40.192H215.251V36.192H203.604V40.192ZM213.251 38.192V55.856H217.251V38.192H213.251ZM215.251 57.856H233.556V53.856H215.251V57.856ZM231.556 55.856V65.456H235.556V55.856H231.556ZM233.556 63.456H215.251V67.456H233.556V63.456ZM311.284 95.28V97.28H313.088L313.274 95.4858L311.284 95.28ZM255.221 95.28V93.28H253.093L253.224 95.4032L255.221 95.28ZM262.26 111.536L260.906 113.008L260.922 113.022L260.937 113.036L262.26 111.536ZM290.548 113.84L291.687 115.484L291.695 115.478L290.548 113.84ZM297.716 104.368V102.368H296.295L295.828 103.711L297.716 104.368ZM310.26 104.368L312.187 104.905L312.894 102.368H310.26V104.368ZM298.996 120.88L300.189 122.486L300.197 122.48L300.204 122.474L298.996 120.88ZM260.085 122.672L259.089 124.407L259.101 124.414L260.085 122.672ZM247.796 110L246.036 110.948L246.042 110.96L247.796 110ZM247.669 71.728L249.435 72.6663L247.669 71.728ZM259.829 59.184L260.802 60.931L260.812 60.9256L259.829 59.184ZM295.669 59.056L294.682 60.796L295.669 59.056ZM307.445 71.088L305.68 72.0292L305.689 72.0468L305.699 72.0643L307.445 71.088ZM299.637 85.808V87.808H301.637V85.808H299.637ZM296.693 74.416L294.982 75.4516L294.988 75.4618L294.994 75.4719L296.693 74.416ZM288.629 67.12L287.716 68.8996L287.743 68.9135L287.77 68.9266L288.629 67.12ZM262.389 70.192L261.052 68.7039L261.045 68.7108L261.037 68.7177L262.389 70.192ZM255.348 85.808L253.357 85.6292L253.161 87.808H255.348V85.808ZM309.669 88.24C309.669 90.3823 309.545 92.6598 309.295 95.0742L313.274 95.4858C313.536 92.9508 313.669 90.5351 313.669 88.24H309.669ZM311.284 93.28H255.221V97.28H311.284V93.28ZM253.224 95.4032C253.676 102.724 256.187 108.666 260.906 113.008L263.615 110.064C259.8 106.555 257.618 101.66 257.217 95.1568L253.224 95.4032ZM260.937 113.036C265.677 117.218 271.404 119.296 278.005 119.296V115.296C272.317 115.296 267.548 113.534 263.584 110.036L260.937 113.036ZM278.005 119.296C283.346 119.296 287.951 118.071 291.687 115.484L289.41 112.196C286.49 114.217 282.732 115.296 278.005 115.296V119.296ZM291.695 115.478C295.452 112.849 298.102 109.348 299.605 105.025L295.828 103.711C294.601 107.238 292.471 110.053 289.402 112.202L291.695 115.478ZM297.716 106.368H310.26V102.368H297.716V106.368ZM308.334 103.831C306.575 110.147 303.076 115.281 297.789 119.286L300.204 122.474C306.182 117.946 310.191 112.072 312.187 104.905L308.334 103.831ZM297.804 119.274C292.58 123.153 286.023 125.152 278.005 125.152V129.152C286.712 129.152 294.149 126.97 300.189 122.486L297.804 119.274ZM278.005 125.152C271.659 125.152 266.03 123.732 261.068 120.93L259.101 124.414C264.72 127.586 271.038 129.152 278.005 129.152V125.152ZM261.08 120.937C256.206 118.141 252.368 114.191 249.551 109.04L246.042 110.96C249.198 116.732 253.552 121.23 259.089 124.407L261.08 120.937ZM249.557 109.052C246.75 103.838 245.316 97.7729 245.316 90.8H241.316C241.316 98.3338 242.87 105.069 246.036 110.948L249.557 109.052ZM245.316 90.8C245.316 83.8172 246.711 77.7925 249.435 72.6663L245.902 70.7897C242.823 76.5861 241.316 83.2761 241.316 90.8H245.316ZM249.435 72.6663C252.162 67.5317 255.947 63.6374 260.802 60.931L258.855 57.437C253.3 60.5333 248.977 65.0016 245.902 70.7897L249.435 72.6663ZM260.812 60.9256C265.767 58.1285 271.479 56.704 278.005 56.704V52.704C270.877 52.704 264.472 54.2662 258.845 57.4423L260.812 60.9256ZM278.005 56.704C284.361 56.704 289.901 58.0865 294.682 60.796L296.655 57.316C291.196 54.2229 284.96 52.704 278.005 52.704V56.704ZM294.682 60.796C299.477 63.5131 303.13 67.2489 305.68 72.0292L309.209 70.1468C306.297 64.6871 302.1 60.4015 296.655 57.316L294.682 60.796ZM305.699 72.0643C308.33 76.769 309.669 82.1436 309.669 88.24H313.669C313.669 81.5364 312.191 75.4764 309.19 70.1117L305.699 72.0643ZM301.637 85.808C301.637 81.0704 300.586 76.8911 298.391 73.3601L294.994 75.4719C296.724 78.2556 297.637 81.6709 297.637 85.808H301.637ZM298.404 73.3804C296.239 69.8039 293.255 67.1033 289.487 65.3134L287.77 68.9266C290.829 70.3794 293.221 72.5428 294.982 75.4516L298.404 73.3804ZM289.541 65.3404C285.905 63.4755 281.875 62.56 277.492 62.56V66.56C281.302 66.56 284.696 67.3512 287.716 68.8996L289.541 65.3404ZM277.492 62.56C271.137 62.56 265.619 64.6028 261.052 68.7039L263.725 71.6801C267.52 68.2719 272.072 66.56 277.492 66.56V62.56ZM261.037 68.7177C256.502 72.875 253.989 78.5828 253.357 85.6292L257.34 85.9868C257.903 79.7212 260.083 75.0184 263.74 71.6663L261.037 68.7177ZM255.348 87.808H299.637V83.808H255.348V87.808ZM338.691 67.248H336.691L340.473 68.1576L338.691 67.248ZM347.396 57.904L346.395 56.1723L346.386 56.1772L346.378 56.1821L347.396 57.904ZM361.348 54.576H363.348V52.576H361.348V54.576ZM361.348 66.608V68.608H363.348V66.608H361.348ZM338.691 126V128H340.691V126H338.691ZM327.043 126H325.043V128H327.043V126ZM327.043 55.856V53.856H325.043V55.856H327.043ZM338.691 55.856H340.691V53.856H338.691V55.856ZM340.473 68.1576C342.354 64.473 344.996 61.6451 348.413 59.6259L346.378 56.1821C342.286 58.6002 339.125 62.0017 336.91 66.3384L340.473 68.1576ZM348.396 59.6357C351.869 57.6292 356.157 56.576 361.348 56.576V52.576C355.616 52.576 350.602 53.7415 346.395 56.1723L348.396 59.6357ZM359.348 54.576V66.608H363.348V54.576H359.348ZM361.348 64.608H358.276V68.608H361.348V64.608ZM358.276 64.608C351.395 64.608 345.88 66.4817 342.117 70.5645C338.382 74.6165 336.691 80.5037 336.691 87.856H340.691C340.691 81.043 342.265 76.3061 345.058 73.2755C347.823 70.2756 352.1 68.608 358.276 68.608V64.608ZM336.691 87.856V126H340.691V87.856H336.691ZM338.691 124H327.043V128H338.691V124ZM329.043 126V55.856H325.043V126H329.043ZM327.043 57.856H338.691V53.856H327.043V57.856ZM336.691 55.856V67.248H340.691V55.856H336.691ZM375.177 42.16L376.592 40.7458L375.177 42.16ZM375.177 30.896L376.592 32.3102L375.177 30.896ZM386.185 30.896L384.731 32.2692L384.751 32.29L384.771 32.3102L386.185 30.896ZM386.185 42.16L384.771 40.7458L384.751 40.766L384.731 40.7867L386.185 42.16ZM386.441 55.856H388.441V53.856H386.441V55.856ZM386.441 126V128H388.441V126H386.441ZM374.793 126H372.793V128H374.793V126ZM374.793 55.856V53.856H372.793V55.856H374.793ZM380.81 42.464C379.109 42.464 377.744 41.8978 376.592 40.7458L373.763 43.5742C375.683 45.4942 378.073 46.464 380.81 46.464V42.464ZM376.592 40.7458C375.44 39.5937 374.874 38.2289 374.874 36.528H370.874C370.874 39.2644 371.843 41.6542 373.763 43.5742L376.592 40.7458ZM374.874 36.528C374.874 34.8271 375.44 33.4622 376.592 32.3102L373.763 29.4818C371.843 31.4017 370.874 33.7916 370.874 36.528H374.874ZM376.592 32.3102C377.744 31.1582 379.109 30.592 380.81 30.592V26.592C378.073 26.592 375.683 27.5618 373.763 29.4818L376.592 32.3102ZM380.81 30.592C382.399 30.592 383.663 31.1377 384.731 32.2692L387.64 29.5227C385.807 27.5823 383.487 26.592 380.81 26.592V30.592ZM384.771 32.3102C385.923 33.4622 386.49 34.8271 386.49 36.528H390.49C390.49 33.7916 389.52 31.4017 387.6 29.4818L384.771 32.3102ZM386.49 36.528C386.49 38.2289 385.923 39.5937 384.771 40.7458L387.6 43.5742C389.52 41.6542 390.49 39.2644 390.49 36.528H386.49ZM384.731 40.7867C383.663 41.9183 382.399 42.464 380.81 42.464V46.464C383.487 46.464 385.807 45.4737 387.64 43.5332L384.731 40.7867ZM384.441 55.856V126H388.441V55.856H384.441ZM386.441 124H374.793V128H386.441V124ZM376.793 126V55.856H372.793V126H376.793ZM374.793 57.856H386.441V53.856H374.793V57.856ZM406.293 71.856L408.054 72.8059L408.06 72.7943L406.293 71.856ZM418.198 59.184L417.19 57.4564L417.183 57.4601L417.177 57.4639L418.198 59.184ZM451.221 58.672L450.212 60.3984L451.221 58.672ZM461.333 68.656L459.583 69.6241L463.333 68.656H461.333ZM461.333 55.856V53.856H459.333V55.856H461.333ZM473.109 55.856H475.109V53.856H473.109V55.856ZM473.109 126V128H475.109V126H473.109ZM461.333 126H459.333V128H461.333V126ZM461.333 112.944H463.333V105.309L459.59 111.963L461.333 112.944ZM450.966 123.184L451.975 124.91L451.985 124.905L450.966 123.184ZM418.198 122.544L417.156 124.251L418.198 122.544ZM406.293 109.616L408.066 108.689L406.293 109.616ZM449.43 68.016L448.407 69.7346L448.43 69.7488L448.455 69.7624L449.43 68.016ZM425.621 67.888L424.629 66.1515V66.1515L425.621 67.888ZM417.046 76.848L418.803 77.803V77.803L417.046 76.848ZM417.046 104.752L415.28 105.691L415.284 105.699L415.288 105.707L417.046 104.752ZM425.621 113.84L424.599 115.559L424.614 115.568L424.629 115.576L425.621 113.84ZM449.43 113.84L450.422 115.576L450.428 115.573L450.435 115.569L449.43 113.84ZM458.134 104.752L459.891 105.707L459.895 105.699L459.899 105.691L458.134 104.752ZM403.941 90.672C403.941 83.778 405.335 77.8432 408.054 72.8059L404.533 70.9061C401.449 76.6208 399.941 83.23 399.941 90.672H403.941ZM408.06 72.7943C410.799 67.638 414.517 63.6928 419.218 60.9041L417.177 57.4639C411.809 60.6485 407.591 65.1513 404.527 70.9177L408.06 72.7943ZM419.205 60.9116C424.004 58.1125 429.328 56.704 435.221 56.704V52.704C428.657 52.704 422.631 54.2821 417.19 57.4564L419.205 60.9116ZM435.221 56.704C441.072 56.704 446.045 57.9611 450.212 60.3984L452.231 56.9456C447.353 54.0923 441.659 52.704 435.221 52.704V56.704ZM450.212 60.3984C454.469 62.8886 457.563 65.9711 459.583 69.6241L463.084 67.6879C460.667 63.3196 457.019 59.7461 452.231 56.9456L450.212 60.3984ZM463.333 68.656V55.856H459.333V68.656H463.333ZM461.333 57.856H473.109V53.856H461.333V57.856ZM471.109 55.856V126H475.109V55.856H471.109ZM473.109 124H461.333V128H473.109V124ZM463.333 126V112.944H459.333V126H463.333ZM459.59 111.963C457.481 115.713 454.295 118.886 449.946 121.463L451.985 124.905C456.852 122.02 460.578 118.367 463.077 113.925L459.59 111.963ZM449.956 121.458C445.785 123.897 440.854 125.152 435.094 125.152V129.152C441.451 129.152 447.101 127.761 451.975 124.91L449.956 121.458ZM435.094 125.152C429.21 125.152 423.942 123.706 419.239 120.837L417.156 124.251C422.522 127.526 428.518 129.152 435.094 129.152V125.152ZM419.239 120.837C414.534 117.965 410.81 113.935 408.066 108.689L404.521 110.543C407.58 116.391 411.792 120.979 417.156 124.251L419.239 120.837ZM408.066 108.689C405.333 103.464 403.941 97.4747 403.941 90.672H399.941C399.941 98.0346 401.452 104.674 404.521 110.543L408.066 108.689ZM463.333 90.8C463.333 85.2372 462.21 80.2891 459.891 76.021L456.376 77.931C458.323 81.5136 459.333 85.7815 459.333 90.8H463.333ZM459.891 76.021C457.589 71.7851 454.425 68.5139 450.404 66.2696L448.455 69.7624C451.772 71.6141 454.412 74.3162 456.376 77.931L459.891 76.021ZM450.452 66.2974C446.545 63.9717 442.221 62.816 437.526 62.816V66.816C441.534 66.816 445.146 67.7936 448.407 69.7346L450.452 66.2974ZM437.526 62.816C432.845 62.816 428.532 63.9213 424.629 66.1515L426.614 69.6245C429.879 67.7586 433.502 66.816 437.526 66.816V62.816ZM424.629 66.1515C420.696 68.399 417.584 71.669 415.288 75.893L418.803 77.803C420.774 74.1763 423.379 71.473 426.614 69.6245L424.629 66.1515ZM415.288 75.893C412.969 80.161 411.845 85.1092 411.845 90.672H415.845C415.845 85.6535 416.856 81.3856 418.803 77.803L415.288 75.893ZM411.845 90.672C411.845 96.3155 412.967 101.343 415.28 105.691L418.811 103.813C416.858 100.14 415.845 95.7805 415.845 90.672H411.845ZM415.288 105.707C417.581 109.925 420.684 113.228 424.599 115.559L426.644 112.121C423.391 110.185 420.777 107.43 418.803 103.797L415.288 105.707ZM424.629 115.576C428.532 117.807 432.845 118.912 437.526 118.912V114.912C433.502 114.912 429.879 113.969 426.614 112.104L424.629 115.576ZM437.526 118.912C442.206 118.912 446.519 117.807 450.422 115.576L448.437 112.104C445.172 113.969 441.549 114.912 437.526 114.912V118.912ZM450.435 115.569C454.438 113.242 457.592 109.937 459.891 105.707L456.376 103.797C454.408 107.418 451.76 110.172 448.424 112.111L450.435 115.569ZM459.899 105.691C462.21 101.347 463.333 96.3641 463.333 90.8H459.333C459.333 95.8172 458.324 100.136 456.368 103.813L459.899 105.691Z" fill="url(#paint1_radial_484_114)" mask="url(#path-3-outside-2_484_114)"/>
</g>
<defs>
<filter id="filter0_f_484_114" x="-2" y="-2" width="498" height="166" filterUnits="userSpaceOnUse" color-interpolation-filters="sRGB">
<feFlood flood-opacity="0" result="BackgroundImageFix"/>
<feBlend mode="normal" in="SourceGraphic" in2="BackgroundImageFix" result="shape"/>
<feGaussianBlur stdDeviation="1" result="effect1_foregroundBlur_484_114"/>
</filter>
<filter id="filter1_f_484_114" x="2.56641" y="13.592" width="484.543" height="128.56" filterUnits="userSpaceOnUse" color-interpolation-filters="sRGB">
<feFlood flood-opacity="0" result="BackgroundImageFix"/>
<feBlend mode="normal" in="SourceGraphic" in2="BackgroundImageFix" result="shape"/>
<feGaussianBlur stdDeviation="7.5" result="effect1_foregroundBlur_484_114"/>
</filter>
<radialGradient id="paint0_radial_484_114" cx="0" cy="0" r="1" gradientUnits="userSpaceOnUse" gradientTransform="translate(249.186 54) rotate(90) scale(186.652 569.174)">
<stop stop-color="#02AFF3"/>
<stop offset="0.455" stop-color="#02AFF3" stop-opacity="0"/>
</radialGradient>
<radialGradient id="paint1_radial_484_114" cx="0" cy="0" r="1" gradientUnits="userSpaceOnUse" gradientTransform="translate(250.106 87.5942) rotate(90) scale(77.7174 284.565)">
<stop stop-color="#02AFF3" stop-opacity="0.87"/>
<stop offset="0.845" stop-color="#02AFF3" stop-opacity="0"/>
</radialGradient>
</defs>
</svg>
