<svg width="160" height="279" viewBox="0 0 160 279" fill="none" xmlns="http://www.w3.org/2000/svg">
<g filter="url(#filter0_f_349_230)">
<mask id="path-1-outside-1_349_230" maskUnits="userSpaceOnUse" x="11" y="59" width="138" height="208" fill="black">
<rect fill="white" x="11" y="59" width="138" height="208"/>
<path d="M50.8125 142.2C60.8125 140.4 70.4125 139.5 79.6125 139.5C89.0125 139.5 98.3125 141.4 107.513 145.2C116.913 148.8 124.213 153.7 129.413 159.9C139.213 171.9 144.113 186.4 144.113 203.4C144.113 220.4 138.213 234.5 126.413 245.7C114.813 256.9 97.1125 262.5 73.3125 262.5C58.9125 262.5 45.7125 258.8 33.7125 251.4C21.7125 243.8 15.7125 233 15.7125 219C15.7125 207 20.9125 201 31.3125 201C37.9125 201 42.8125 203.1 46.0125 207.3C49.2125 211.3 50.8125 216.2 50.8125 222C50.8125 227.6 49.6125 232.1 47.2125 235.5C53.4125 240.7 62.9125 243.3 75.7125 243.3C88.7125 243.3 99.0125 239.3 106.613 231.3C114.213 223.3 118.013 213.7 118.013 202.5C118.013 191.1 114.613 180.9 107.813 171.9C101.213 162.9 89.9125 158.4 73.9125 158.4C58.1125 158.4 45.8125 161.4 37.0125 167.4C31.4125 167.4 27.0125 166.8 23.8125 165.6C26.4125 158.2 28.4125 145.3 29.8125 126.9C31.2125 108.3 31.9125 94 31.9125 84C31.9125 73.8 31.8125 67.2 31.6125 64.2C44.0125 65.4 61.2125 66 83.2125 66C105.413 66 122.213 65.2 133.613 63.6L135.113 65.1C133.713 80.5 132.813 94.7 132.413 107.7C130.013 107.9 127.413 108 124.613 108C121.813 108 118.813 107.7 115.613 107.1L114.713 86.7C102.713 86.1 92.6125 85.9 84.4125 86.1C76.2125 86.1 66.8125 86.1 56.2125 86.1C53.0125 106.3 51.2125 125 50.8125 142.2Z"/>
</mask>
<path d="M50.8125 142.2L46.8136 142.107L46.6997 147.005L51.5211 146.137L50.8125 142.2ZM107.513 145.2L105.985 148.897L106.033 148.917L106.082 148.935L107.513 145.2ZM129.413 159.9L132.511 157.37L132.494 157.35L132.477 157.33L129.413 159.9ZM126.413 245.7L123.659 242.799L123.646 242.811L123.634 242.822L126.413 245.7ZM33.7125 251.4L31.5723 254.779L31.5925 254.792L31.6129 254.805L33.7125 251.4ZM46.0125 207.3L42.8308 209.724L42.8595 209.762L42.889 209.799L46.0125 207.3ZM47.2125 235.5L43.9446 233.193L41.8223 236.2L44.6421 238.565L47.2125 235.5ZM106.613 231.3L103.713 228.545L106.613 231.3ZM107.813 171.9L104.587 174.265L104.604 174.289L104.621 174.311L107.813 171.9ZM37.0125 167.4V171.4H38.2464L39.2658 170.705L37.0125 167.4ZM23.8125 165.6L20.0387 164.274L18.7401 167.97L22.408 169.345L23.8125 165.6ZM29.8125 126.9L33.801 127.203L33.8012 127.2L29.8125 126.9ZM31.6125 64.2L31.9978 60.2186L27.3079 59.7647L27.6214 64.4661L31.6125 64.2ZM133.613 63.6L136.441 60.7716L135.031 59.3617L133.057 59.6388L133.613 63.6ZM135.113 65.1L139.096 65.4621L139.266 63.5963L137.941 62.2716L135.113 65.1ZM132.413 107.7L132.745 111.686L136.301 111.39L136.411 107.823L132.413 107.7ZM115.613 107.1L111.616 107.276L111.756 110.447L114.875 111.031L115.613 107.1ZM114.713 86.7L118.709 86.5237L118.548 82.8868L114.912 82.705L114.713 86.7ZM84.4125 86.1V90.1H84.4613L84.51 90.0988L84.4125 86.1ZM56.2125 86.1V82.1H52.7963L52.2618 85.4741L56.2125 86.1ZM51.5211 146.137C61.3112 144.375 70.6733 143.5 79.6125 143.5V135.5C70.1518 135.5 60.3138 136.425 50.1039 138.263L51.5211 146.137ZM79.6125 143.5C88.4581 143.5 97.2408 145.285 105.985 148.897L109.04 141.503C99.3842 137.515 89.5669 135.5 79.6125 135.5V143.5ZM106.082 148.935C115 152.351 121.679 156.904 126.348 162.47L132.477 157.33C126.746 150.496 118.825 145.249 108.943 141.465L106.082 148.935ZM126.314 162.43C135.473 173.645 140.113 187.226 140.113 203.4H148.113C148.113 185.574 142.952 170.155 132.511 157.37L126.314 162.43ZM140.113 203.4C140.113 219.358 134.624 232.391 123.659 242.799L129.166 248.601C141.801 236.609 148.113 221.442 148.113 203.4H140.113ZM123.634 242.822C113.07 253.023 96.5641 258.5 73.3125 258.5V266.5C97.6609 266.5 116.556 260.777 129.191 248.578L123.634 242.822ZM73.3125 258.5C59.6373 258.5 47.1668 254.997 35.8121 247.995L31.6129 254.805C44.2582 262.603 58.1877 266.5 73.3125 266.5V258.5ZM35.8527 248.021C24.9901 241.141 19.7125 231.605 19.7125 219H11.7125C11.7125 234.395 18.4349 246.459 31.5723 254.779L35.8527 248.021ZM19.7125 219C19.7125 213.487 20.9192 210.1 22.6353 208.12C24.2565 206.249 26.8901 205 31.3125 205V197C25.3349 197 20.1685 198.751 16.5897 202.88C13.1058 206.9 11.7125 212.513 11.7125 219H19.7125ZM31.3125 205C37.0093 205 40.5745 206.763 42.8308 209.724L49.1942 204.876C45.0505 199.437 38.8157 197 31.3125 197V205ZM42.889 209.799C45.4472 212.996 46.8125 216.982 46.8125 222H54.8125C54.8125 215.418 52.9778 209.604 49.136 204.801L42.889 209.799ZM46.8125 222C46.8125 227.055 45.7286 230.666 43.9446 233.193L50.4804 237.807C53.4964 233.534 54.8125 228.145 54.8125 222H46.8125ZM44.6421 238.565C51.8777 244.633 62.4884 247.3 75.7125 247.3V239.3C63.3367 239.3 54.9473 236.767 49.783 232.435L44.6421 238.565ZM75.7125 247.3C89.597 247.3 101.023 242.992 109.512 234.055L103.713 228.545C97.0022 235.608 87.828 239.3 75.7125 239.3V247.3ZM109.512 234.055C117.83 225.299 122.013 214.708 122.013 202.5H114.013C114.013 212.692 110.595 221.301 103.713 228.545L109.512 234.055ZM122.013 202.5C122.013 190.24 118.335 179.191 111.004 169.489L104.621 174.311C110.89 182.609 114.013 191.96 114.013 202.5H122.013ZM111.038 169.535C103.395 159.112 90.6012 154.4 73.9125 154.4V162.4C89.2238 162.4 99.0301 166.688 104.587 174.265L111.038 169.535ZM73.9125 154.4C57.6757 154.4 44.4729 157.472 34.7592 164.095L39.2658 170.705C47.1521 165.328 58.5493 162.4 73.9125 162.4V154.4ZM37.0125 163.4C31.6258 163.4 27.7723 162.813 25.217 161.855L22.408 169.345C26.2527 170.787 31.1992 171.4 37.0125 171.4V163.4ZM27.5863 166.926C30.3778 158.981 32.4005 145.61 33.801 127.203L25.824 126.597C24.4245 144.99 22.4472 157.419 20.0387 164.274L27.5863 166.926ZM33.8012 127.2C35.2035 108.57 35.9125 94.1516 35.9125 84H27.9125C27.9125 93.8484 27.2215 108.03 25.8238 126.6L33.8012 127.2ZM35.9125 84C35.9125 73.8343 35.8142 67.0927 35.6036 63.9339L27.6214 64.4661C27.8108 67.3072 27.9125 73.7656 27.9125 84H35.9125ZM31.2272 68.1814C43.8165 69.3997 61.1651 70 83.2125 70V62C61.2599 62 44.2085 61.4003 31.9978 60.2186L31.2272 68.1814ZM83.2125 70C105.461 70 122.486 69.2009 134.168 67.5612L133.057 59.6388C121.939 61.1991 105.364 62 83.2125 62V70ZM130.784 66.4284L132.284 67.9284L137.941 62.2716L136.441 60.7716L130.784 66.4284ZM131.129 64.7379C129.723 80.2031 128.817 94.4839 128.414 107.577L136.411 107.823C136.808 94.916 137.702 80.7969 139.096 65.4621L131.129 64.7379ZM132.08 103.714C129.807 103.903 127.319 104 124.613 104V112C127.506 112 130.218 111.897 132.745 111.686L132.08 103.714ZM124.613 104C122.096 104 119.345 103.73 116.35 103.169L114.875 111.031C118.28 111.67 121.529 112 124.613 112V104ZM119.609 106.924L118.709 86.5237L110.716 86.8763L111.616 107.276L119.609 106.924ZM114.912 82.705C102.854 82.1021 92.648 81.8979 84.315 82.1012L84.51 90.0988C92.577 89.9021 102.571 90.0979 114.513 90.695L114.912 82.705ZM84.4125 82.1C84.3965 82.1 84.3805 82.1 84.3644 82.1C84.3484 82.1 84.3324 82.1 84.3164 82.1C84.3003 82.1 84.2843 82.1 84.2682 82.1C84.2522 82.1 84.2361 82.1 84.2201 82.1C84.204 82.1 84.188 82.1 84.1719 82.1C84.1559 82.1 84.1398 82.1 84.1237 82.1C84.1077 82.1 84.0916 82.1 84.0755 82.1C84.0594 82.1 84.0433 82.1 84.0272 82.1C84.0112 82.1 83.9951 82.1 83.979 82.1C83.9629 82.1 83.9468 82.1 83.9307 82.1C83.9146 82.1 83.8984 82.1 83.8823 82.1C83.8662 82.1 83.8501 82.1 83.834 82.1C83.8178 82.1 83.8017 82.1 83.7856 82.1C83.7694 82.1 83.7533 82.1 83.7372 82.1C83.721 82.1 83.7049 82.1 83.6887 82.1C83.6726 82.1 83.6564 82.1 83.6402 82.1C83.6241 82.1 83.6079 82.1 83.5917 82.1C83.5756 82.1 83.5594 82.1 83.5432 82.1C83.527 82.1 83.5108 82.1 83.4947 82.1C83.4785 82.1 83.4623 82.1 83.4461 82.1C83.4299 82.1 83.4137 82.1 83.3975 82.1C83.3813 82.1 83.365 82.1 83.3488 82.1C83.3326 82.1 83.3164 82.1 83.3002 82.1C83.2839 82.1 83.2677 82.1 83.2515 82.1C83.2352 82.1 83.219 82.1 83.2027 82.1C83.1865 82.1 83.1703 82.1 83.154 82.1C83.1377 82.1 83.1215 82.1 83.1052 82.1C83.089 82.1 83.0727 82.1 83.0564 82.1C83.0401 82.1 83.0239 82.1 83.0076 82.1C82.9913 82.1 82.975 82.1 82.9587 82.1C82.9424 82.1 82.9262 82.1 82.9099 82.1C82.8936 82.1 82.8772 82.1 82.8609 82.1C82.8446 82.1 82.8283 82.1 82.812 82.1C82.7957 82.1 82.7794 82.1 82.763 82.1C82.7467 82.1 82.7304 82.1 82.714 82.1C82.6977 82.1 82.6814 82.1 82.665 82.1C82.6487 82.1 82.6323 82.1 82.616 82.1C82.5996 82.1 82.5833 82.1 82.5669 82.1C82.5505 82.1 82.5342 82.1 82.5178 82.1C82.5014 82.1 82.485 82.1 82.4687 82.1C82.4523 82.1 82.4359 82.1 82.4195 82.1C82.4031 82.1 82.3867 82.1 82.3703 82.1C82.3539 82.1 82.3375 82.1 82.3211 82.1C82.3047 82.1 82.2883 82.1 82.2719 82.1C82.2554 82.1 82.239 82.1 82.2226 82.1C82.2062 82.1 82.1897 82.1 82.1733 82.1C82.1568 82.1 82.1404 82.1 82.124 82.1C82.1075 82.1 82.0911 82.1 82.0746 82.1C82.0582 82.1 82.0417 82.1 82.0252 82.1C82.0088 82.1 81.9923 82.1 81.9758 82.1C81.9594 82.1 81.9429 82.1 81.9264 82.1C81.9099 82.1 81.8934 82.1 81.8769 82.1C81.8604 82.1 81.8439 82.1 81.8274 82.1C81.8109 82.1 81.7944 82.1 81.7779 82.1C81.7614 82.1 81.7449 82.1 81.7284 82.1C81.7119 82.1 81.6953 82.1 81.6788 82.1C81.6623 82.1 81.6457 82.1 81.6292 82.1C81.6127 82.1 81.5961 82.1 81.5796 82.1C81.563 82.1 81.5465 82.1 81.5299 82.1C81.5134 82.1 81.4968 82.1 81.4803 82.1C81.4637 82.1 81.4471 82.1 81.4305 82.1C81.414 82.1 81.3974 82.1 81.3808 82.1C81.3642 82.1 81.3476 82.1 81.331 82.1C81.3144 82.1 81.2979 82.1 81.2813 82.1C81.2647 82.1 81.248 82.1 81.2314 82.1C81.2148 82.1 81.1982 82.1 81.1816 82.1C81.165 82.1 81.1483 82.1 81.1317 82.1C81.1151 82.1 81.0985 82.1 81.0818 82.1C81.0652 82.1 81.0485 82.1 81.0319 82.1C81.0152 82.1 80.9986 82.1 80.9819 82.1C80.9653 82.1 80.9486 82.1 80.9319 82.1C80.9153 82.1 80.8986 82.1 80.8819 82.1C80.8653 82.1 80.8486 82.1 80.8319 82.1C80.8152 82.1 80.7985 82.1 80.7818 82.1C80.7651 82.1 80.7484 82.1 80.7317 82.1C80.715 82.1 80.6983 82.1 80.6816 82.1C80.6649 82.1 80.6482 82.1 80.6315 82.1C80.6147 82.1 80.598 82.1 80.5813 82.1C80.5646 82.1 80.5478 82.1 80.5311 82.1C80.5144 82.1 80.4976 82.1 80.4809 82.1C80.4641 82.1 80.4474 82.1 80.4306 82.1C80.4138 82.1 80.3971 82.1 80.3803 82.1C80.3636 82.1 80.3468 82.1 80.33 82.1C80.3132 82.1 80.2965 82.1 80.2797 82.1C80.2629 82.1 80.2461 82.1 80.2293 82.1C80.2125 82.1 80.1957 82.1 80.1789 82.1C80.1621 82.1 80.1453 82.1 80.1285 82.1C80.1117 82.1 80.0949 82.1 80.078 82.1C80.0612 82.1 80.0444 82.1 80.0276 82.1C80.0107 82.1 79.9939 82.1 79.977 82.1C79.9602 82.1 79.9434 82.1 79.9265 82.1C79.9097 82.1 79.8928 82.1 79.876 82.1C79.8591 82.1 79.8422 82.1 79.8254 82.1C79.8085 82.1 79.7916 82.1 79.7748 82.1C79.7579 82.1 79.741 82.1 79.7241 82.1C79.7072 82.1 79.6903 82.1 79.6734 82.1C79.6565 82.1 79.6396 82.1 79.6227 82.1C79.6058 82.1 79.5889 82.1 79.572 82.1C79.5551 82.1 79.5382 82.1 79.5213 82.1C79.5043 82.1 79.4874 82.1 79.4705 82.1C79.4536 82.1 79.4366 82.1 79.4197 82.1C79.4027 82.1 79.3858 82.1 79.3688 82.1C79.3519 82.1 79.3349 82.1 79.318 82.1C79.301 82.1 79.2841 82.1 79.2671 82.1C79.2501 82.1 79.2332 82.1 79.2162 82.1C79.1992 82.1 79.1822 82.1 79.1652 82.1C79.1482 82.1 79.1313 82.1 79.1143 82.1C79.0973 82.1 79.0803 82.1 79.0633 82.1C79.0463 82.1 79.0292 82.1 79.0122 82.1C78.9952 82.1 78.9782 82.1 78.9612 82.1C78.9442 82.1 78.9271 82.1 78.9101 82.1C78.8931 82.1 78.876 82.1 78.859 82.1C78.8419 82.1 78.8249 82.1 78.8078 82.1C78.7908 82.1 78.7737 82.1 78.7567 82.1C78.7396 82.1 78.7226 82.1 78.7055 82.1C78.6884 82.1 78.6714 82.1 78.6543 82.1C78.6372 82.1 78.6201 82.1 78.603 82.1C78.5859 82.1 78.5689 82.1 78.5518 82.1C78.5347 82.1 78.5176 82.1 78.5005 82.1C78.4833 82.1 78.4662 82.1 78.4491 82.1C78.432 82.1 78.4149 82.1 78.3978 82.1C78.3806 82.1 78.3635 82.1 78.3464 82.1C78.3293 82.1 78.3121 82.1 78.295 82.1C78.2778 82.1 78.2607 82.1 78.2435 82.1C78.2264 82.1 78.2092 82.1 78.1921 82.1C78.1749 82.1 78.1577 82.1 78.1406 82.1C78.1234 82.1 78.1062 82.1 78.0891 82.1C78.0719 82.1 78.0547 82.1 78.0375 82.1C78.0203 82.1 78.0031 82.1 77.9859 82.1C77.9687 82.1 77.9515 82.1 77.9343 82.1C77.9171 82.1 77.8999 82.1 77.8827 82.1C77.8655 82.1 77.8483 82.1 77.831 82.1C77.8138 82.1 77.7966 82.1 77.7793 82.1C77.7621 82.1 77.7449 82.1 77.7276 82.1C77.7104 82.1 77.6931 82.1 77.6759 82.1C77.6586 82.1 77.6414 82.1 77.6241 82.1C77.6069 82.1 77.5896 82.1 77.5723 82.1C77.5551 82.1 77.5378 82.1 77.5205 82.1C77.5032 82.1 77.4859 82.1 77.4687 82.1C77.4514 82.1 77.4341 82.1 77.4168 82.1C77.3995 82.1 77.3822 82.1 77.3649 82.1C77.3476 82.1 77.3302 82.1 77.3129 82.1C77.2956 82.1 77.2783 82.1 77.261 82.1C77.2436 82.1 77.2263 82.1 77.209 82.1C77.1917 82.1 77.1743 82.1 77.157 82.1C77.1396 82.1 77.1223 82.1 77.1049 82.1C77.0876 82.1 77.0702 82.1 77.0529 82.1C77.0355 82.1 77.0181 82.1 77.0008 82.1C76.9834 82.1 76.966 82.1 76.9486 82.1C76.9313 82.1 76.9139 82.1 76.8965 82.1C76.8791 82.1 76.8617 82.1 76.8443 82.1C76.8269 82.1 76.8095 82.1 76.7921 82.1C76.7747 82.1 76.7573 82.1 76.7399 82.1C76.7224 82.1 76.705 82.1 76.6876 82.1C76.6702 82.1 76.6527 82.1 76.6353 82.1C76.6179 82.1 76.6004 82.1 76.583 82.1C76.5655 82.1 76.5481 82.1 76.5306 82.1C76.5132 82.1 76.4957 82.1 76.4783 82.1C76.4608 82.1 76.4433 82.1 76.4259 82.1C76.4084 82.1 76.3909 82.1 76.3734 82.1C76.356 82.1 76.3385 82.1 76.321 82.1C76.3035 82.1 76.286 82.1 76.2685 82.1C76.251 82.1 76.2335 82.1 76.216 82.1C76.1985 82.1 76.181 82.1 76.1635 82.1C76.1459 82.1 76.1284 82.1 76.1109 82.1C76.0934 82.1 76.0758 82.1 76.0583 82.1C76.0408 82.1 76.0232 82.1 76.0057 82.1C75.9881 82.1 75.9706 82.1 75.953 82.1C75.9355 82.1 75.9179 82.1 75.9004 82.1C75.8828 82.1 75.8652 82.1 75.8477 82.1C75.8301 82.1 75.8125 82.1 75.7949 82.1C75.7773 82.1 75.7598 82.1 75.7422 82.1C75.7246 82.1 75.707 82.1 75.6894 82.1C75.6718 82.1 75.6542 82.1 75.6366 82.1C75.619 82.1 75.6013 82.1 75.5837 82.1C75.5661 82.1 75.5485 82.1 75.5309 82.1C75.5132 82.1 75.4956 82.1 75.478 82.1C75.4603 82.1 75.4427 82.1 75.425 82.1C75.4074 82.1 75.3898 82.1 75.3721 82.1C75.3544 82.1 75.3368 82.1 75.3191 82.1C75.3015 82.1 75.2838 82.1 75.2661 82.1C75.2484 82.1 75.2308 82.1 75.2131 82.1C75.1954 82.1 75.1777 82.1 75.16 82.1C75.1423 82.1 75.1246 82.1 75.1069 82.1C75.0892 82.1 75.0715 82.1 75.0538 82.1C75.0361 82.1 75.0184 82.1 75.0007 82.1C74.983 82.1 74.9652 82.1 74.9475 82.1C74.9298 82.1 74.9121 82.1 74.8943 82.1C74.8766 82.1 74.8588 82.1 74.8411 82.1C74.8233 82.1 74.8056 82.1 74.7878 82.1C74.7701 82.1 74.7523 82.1 74.7346 82.1C74.7168 82.1 74.699 82.1 74.6813 82.1C74.6635 82.1 74.6457 82.1 74.6279 82.1C74.6101 82.1 74.5924 82.1 74.5746 82.1C74.5568 82.1 74.539 82.1 74.5212 82.1C74.5034 82.1 74.4856 82.1 74.4678 82.1C74.4499 82.1 74.4321 82.1 74.4143 82.1C74.3965 82.1 74.3787 82.1 74.3608 82.1C74.343 82.1 74.3252 82.1 74.3073 82.1C74.2895 82.1 74.2717 82.1 74.2538 82.1C74.236 82.1 74.2181 82.1 74.2003 82.1C74.1824 82.1 74.1645 82.1 74.1467 82.1C74.1288 82.1 74.1109 82.1 74.0931 82.1C74.0752 82.1 74.0573 82.1 74.0394 82.1C74.0215 82.1 74.0037 82.1 73.9858 82.1C73.9679 82.1 73.95 82.1 73.9321 82.1C73.9142 82.1 73.8963 82.1 73.8784 82.1C73.8604 82.1 73.8425 82.1 73.8246 82.1C73.8067 82.1 73.7888 82.1 73.7708 82.1C73.7529 82.1 73.735 82.1 73.717 82.1C73.6991 82.1 73.6812 82.1 73.6632 82.1C73.6453 82.1 73.6273 82.1 73.6094 82.1C73.5914 82.1 73.5734 82.1 73.5555 82.1C73.5375 82.1 73.5195 82.1 73.5016 82.1C73.4836 82.1 73.4656 82.1 73.4476 82.1C73.4296 82.1 73.4116 82.1 73.3937 82.1C73.3757 82.1 73.3577 82.1 73.3397 82.1C73.3217 82.1 73.3037 82.1 73.2856 82.1C73.2676 82.1 73.2496 82.1 73.2316 82.1C73.2136 82.1 73.1955 82.1 73.1775 82.1C73.1595 82.1 73.1415 82.1 73.1234 82.1C73.1054 82.1 73.0873 82.1 73.0693 82.1C73.0512 82.1 73.0332 82.1 73.0151 82.1C72.9971 82.1 72.979 82.1 72.9609 82.1C72.9429 82.1 72.9248 82.1 72.9067 82.1C72.8887 82.1 72.8706 82.1 72.8525 82.1C72.8344 82.1 72.8163 82.1 72.7982 82.1C72.7801 82.1 72.762 82.1 72.7439 82.1C72.7258 82.1 72.7077 82.1 72.6896 82.1C72.6715 82.1 72.6534 82.1 72.6353 82.1C72.6171 82.1 72.599 82.1 72.5809 82.1C72.5627 82.1 72.5446 82.1 72.5265 82.1C72.5083 82.1 72.4902 82.1 72.472 82.1C72.4539 82.1 72.4357 82.1 72.4176 82.1C72.3994 82.1 72.3813 82.1 72.3631 82.1C72.3449 82.1 72.3267 82.1 72.3086 82.1C72.2904 82.1 72.2722 82.1 72.254 82.1C72.2358 82.1 72.2177 82.1 72.1995 82.1C72.1813 82.1 72.1631 82.1 72.1449 82.1C72.1267 82.1 72.1085 82.1 72.0902 82.1C72.072 82.1 72.0538 82.1 72.0356 82.1C72.0174 82.1 71.9991 82.1 71.9809 82.1C71.9627 82.1 71.9444 82.1 71.9262 82.1C71.908 82.1 71.8897 82.1 71.8715 82.1C71.8532 82.1 71.835 82.1 71.8167 82.1C71.7984 82.1 71.7802 82.1 71.7619 82.1C71.7436 82.1 71.7254 82.1 71.7071 82.1C71.6888 82.1 71.6705 82.1 71.6522 82.1C71.634 82.1 71.6157 82.1 71.5974 82.1C71.5791 82.1 71.5608 82.1 71.5425 82.1C71.5242 82.1 71.5059 82.1 71.4875 82.1C71.4692 82.1 71.4509 82.1 71.4326 82.1C71.4143 82.1 71.3959 82.1 71.3776 82.1C71.3593 82.1 71.3409 82.1 71.3226 82.1C71.3043 82.1 71.2859 82.1 71.2676 82.1C71.2492 82.1 71.2309 82.1 71.2125 82.1C71.1941 82.1 71.1758 82.1 71.1574 82.1C71.139 82.1 71.1207 82.1 71.1023 82.1C71.0839 82.1 71.0655 82.1 71.0471 82.1C71.0288 82.1 71.0104 82.1 70.992 82.1C70.9736 82.1 70.9552 82.1 70.9368 82.1C70.9184 82.1 70.9 82.1 70.8815 82.1C70.8631 82.1 70.8447 82.1 70.8263 82.1C70.8079 82.1 70.7894 82.1 70.771 82.1C70.7526 82.1 70.7341 82.1 70.7157 82.1C70.6972 82.1 70.6788 82.1 70.6603 82.1C70.6419 82.1 70.6234 82.1 70.605 82.1C70.5865 82.1 70.5681 82.1 70.5496 82.1C70.5311 82.1 70.5126 82.1 70.4942 82.1C70.4757 82.1 70.4572 82.1 70.4387 82.1C70.4202 82.1 70.4017 82.1 70.3832 82.1C70.3647 82.1 70.3462 82.1 70.3277 82.1C70.3092 82.1 70.2907 82.1 70.2722 82.1C70.2537 82.1 70.2352 82.1 70.2166 82.1C70.1981 82.1 70.1796 82.1 70.1611 82.1C70.1425 82.1 70.124 82.1 70.1054 82.1C70.0869 82.1 70.0684 82.1 70.0498 82.1C70.0313 82.1 70.0127 82.1 69.9941 82.1C69.9756 82.1 69.957 82.1 69.9384 82.1C69.9199 82.1 69.9013 82.1 69.8827 82.1C69.8641 82.1 69.8456 82.1 69.827 82.1C69.8084 82.1 69.7898 82.1 69.7712 82.1C69.7526 82.1 69.734 82.1 69.7154 82.1C69.6968 82.1 69.6782 82.1 69.6595 82.1C69.6409 82.1 69.6223 82.1 69.6037 82.1C69.5851 82.1 69.5664 82.1 69.5478 82.1C69.5292 82.1 69.5105 82.1 69.4919 82.1C69.4732 82.1 69.4546 82.1 69.4359 82.1C69.4173 82.1 69.3986 82.1 69.38 82.1C69.3613 82.1 69.3426 82.1 69.324 82.1C69.3053 82.1 69.2866 82.1 69.2679 82.1C69.2493 82.1 69.2306 82.1 69.2119 82.1C69.1932 82.1 69.1745 82.1 69.1558 82.1C69.1371 82.1 69.1184 82.1 69.0997 82.1C69.081 82.1 69.0623 82.1 69.0436 82.1C69.0249 82.1 69.0061 82.1 68.9874 82.1C68.9687 82.1 68.95 82.1 68.9312 82.1C68.9125 82.1 68.8937 82.1 68.875 82.1C68.8563 82.1 68.8375 82.1 68.8188 82.1C68.8 82.1 68.7812 82.1 68.7625 82.1C68.7437 82.1 68.7249 82.1 68.7062 82.1C68.6874 82.1 68.6686 82.1 68.6498 82.1C68.6311 82.1 68.6123 82.1 68.5935 82.1C68.5747 82.1 68.5559 82.1 68.5371 82.1C68.5183 82.1 68.4995 82.1 68.4807 82.1C68.4619 82.1 68.4431 82.1 68.4243 82.1C68.4054 82.1 68.3866 82.1 68.3678 82.1C68.349 82.1 68.3301 82.1 68.3113 82.1C68.2925 82.1 68.2736 82.1 68.2548 82.1C68.2359 82.1 68.2171 82.1 68.1982 82.1C68.1794 82.1 68.1605 82.1 68.1417 82.1C68.1228 82.1 68.1039 82.1 68.0851 82.1C68.0662 82.1 68.0473 82.1 68.0284 82.1C68.0096 82.1 67.9907 82.1 67.9718 82.1C67.9529 82.1 67.934 82.1 67.9151 82.1C67.8962 82.1 67.8773 82.1 67.8584 82.1C67.8395 82.1 67.8206 82.1 67.8016 82.1C67.7827 82.1 67.7638 82.1 67.7449 82.1C67.7259 82.1 67.707 82.1 67.6881 82.1C67.6691 82.1 67.6502 82.1 67.6313 82.1C67.6123 82.1 67.5934 82.1 67.5744 82.1C67.5555 82.1 67.5365 82.1 67.5175 82.1C67.4986 82.1 67.4796 82.1 67.4606 82.1C67.4417 82.1 67.4227 82.1 67.4037 82.1C67.3847 82.1 67.3657 82.1 67.3467 82.1C67.3277 82.1 67.3087 82.1 67.2897 82.1C67.2707 82.1 67.2517 82.1 67.2327 82.1C67.2137 82.1 67.1947 82.1 67.1757 82.1C67.1567 82.1 67.1376 82.1 67.1186 82.1C67.0996 82.1 67.0806 82.1 67.0615 82.1C67.0425 82.1 67.0234 82.1 67.0044 82.1C66.9854 82.1 66.9663 82.1 66.9472 82.1C66.9282 82.1 66.9091 82.1 66.8901 82.1C66.871 82.1 66.8519 82.1 66.8329 82.1C66.8138 82.1 66.7947 82.1 66.7756 82.1C66.7565 82.1 66.7375 82.1 66.7184 82.1C66.6993 82.1 66.6802 82.1 66.6611 82.1C66.642 82.1 66.6229 82.1 66.6038 82.1C66.5846 82.1 66.5655 82.1 66.5464 82.1C66.5273 82.1 66.5082 82.1 66.489 82.1C66.4699 82.1 66.4508 82.1 66.4316 82.1C66.4125 82.1 66.3934 82.1 66.3742 82.1C66.3551 82.1 66.3359 82.1 66.3168 82.1C66.2976 82.1 66.2784 82.1 66.2593 82.1C66.2401 82.1 66.2209 82.1 66.2018 82.1C66.1826 82.1 66.1634 82.1 66.1442 82.1C66.1251 82.1 66.1059 82.1 66.0867 82.1C66.0675 82.1 66.0483 82.1 66.0291 82.1C66.0099 82.1 65.9907 82.1 65.9715 82.1C65.9523 82.1 65.933 82.1 65.9138 82.1C65.8946 82.1 65.8754 82.1 65.8561 82.1C65.8369 82.1 65.8177 82.1 65.7984 82.1C65.7792 82.1 65.76 82.1 65.7407 82.1C65.7215 82.1 65.7022 82.1 65.683 82.1C65.6637 82.1 65.6444 82.1 65.6252 82.1C65.6059 82.1 65.5866 82.1 65.5674 82.1C65.5481 82.1 65.5288 82.1 65.5095 82.1C65.4902 82.1 65.471 82.1 65.4517 82.1C65.4324 82.1 65.4131 82.1 65.3938 82.1C65.3745 82.1 65.3552 82.1 65.3358 82.1C65.3165 82.1 65.2972 82.1 65.2779 82.1C65.2586 82.1 65.2393 82.1 65.2199 82.1C65.2006 82.1 65.1813 82.1 65.1619 82.1C65.1426 82.1 65.1232 82.1 65.1039 82.1C65.0845 82.1 65.0652 82.1 65.0458 82.1C65.0265 82.1 65.0071 82.1 64.9877 82.1C64.9684 82.1 64.949 82.1 64.9296 82.1C64.9103 82.1 64.8909 82.1 64.8715 82.1C64.8521 82.1 64.8327 82.1 64.8133 82.1C64.7939 82.1 64.7745 82.1 64.7551 82.1C64.7357 82.1 64.7163 82.1 64.6969 82.1C64.6775 82.1 64.6581 82.1 64.6386 82.1C64.6192 82.1 64.5998 82.1 64.5804 82.1C64.5609 82.1 64.5415 82.1 64.5221 82.1C64.5026 82.1 64.4832 82.1 64.4637 82.1C64.4443 82.1 64.4248 82.1 64.4054 82.1C64.3859 82.1 64.3665 82.1 64.347 82.1C64.3275 82.1 64.308 82.1 64.2886 82.1C64.2691 82.1 64.2496 82.1 64.2301 82.1C64.2106 82.1 64.1912 82.1 64.1717 82.1C64.1522 82.1 64.1327 82.1 64.1132 82.1C64.0937 82.1 64.0742 82.1 64.0546 82.1C64.0351 82.1 64.0156 82.1 63.9961 82.1C63.9766 82.1 63.957 82.1 63.9375 82.1C63.918 82.1 63.8984 82.1 63.8789 82.1C63.8594 82.1 63.8398 82.1 63.8203 82.1C63.8007 82.1 63.7812 82.1 63.7616 82.1C63.742 82.1 63.7225 82.1 63.7029 82.1C63.6833 82.1 63.6638 82.1 63.6442 82.1C63.6246 82.1 63.605 82.1 63.5854 82.1C63.5659 82.1 63.5463 82.1 63.5267 82.1C63.5071 82.1 63.4875 82.1 63.4679 82.1C63.4483 82.1 63.4287 82.1 63.409 82.1C63.3894 82.1 63.3698 82.1 63.3502 82.1C63.3306 82.1 63.3109 82.1 63.2913 82.1C63.2717 82.1 63.252 82.1 63.2324 82.1C63.2128 82.1 63.1931 82.1 63.1735 82.1C63.1538 82.1 63.1342 82.1 63.1145 82.1C63.0948 82.1 63.0752 82.1 63.0555 82.1C63.0358 82.1 63.0162 82.1 62.9965 82.1C62.9768 82.1 62.9571 82.1 62.9374 82.1C62.9178 82.1 62.8981 82.1 62.8784 82.1C62.8587 82.1 62.839 82.1 62.8193 82.1C62.7996 82.1 62.7799 82.1 62.7601 82.1C62.7404 82.1 62.7207 82.1 62.701 82.1C62.6813 82.1 62.6615 82.1 62.6418 82.1C62.6221 82.1 62.6023 82.1 62.5826 82.1C62.5628 82.1 62.5431 82.1 62.5233 82.1C62.5036 82.1 62.4838 82.1 62.4641 82.1C62.4443 82.1 62.4246 82.1 62.4048 82.1C62.385 82.1 62.3652 82.1 62.3455 82.1C62.3257 82.1 62.3059 82.1 62.2861 82.1C62.2663 82.1 62.2465 82.1 62.2267 82.1C62.2069 82.1 62.1871 82.1 62.1673 82.1C62.1475 82.1 62.1277 82.1 62.1079 82.1C62.0881 82.1 62.0683 82.1 62.0484 82.1C62.0286 82.1 62.0088 82.1 61.989 82.1C61.9691 82.1 61.9493 82.1 61.9294 82.1C61.9096 82.1 61.8898 82.1 61.8699 82.1C61.85 82.1 61.8302 82.1 61.8103 82.1C61.7905 82.1 61.7706 82.1 61.7507 82.1C61.7309 82.1 61.711 82.1 61.6911 82.1C61.6712 82.1 61.6513 82.1 61.6315 82.1C61.6116 82.1 61.5917 82.1 61.5718 82.1C61.5519 82.1 61.532 82.1 61.5121 82.1C61.4922 82.1 61.4723 82.1 61.4523 82.1C61.4324 82.1 61.4125 82.1 61.3926 82.1C61.3727 82.1 61.3527 82.1 61.3328 82.1C61.3129 82.1 61.2929 82.1 61.273 82.1C61.253 82.1 61.2331 82.1 61.2131 82.1C61.1932 82.1 61.1732 82.1 61.1533 82.1C61.1333 82.1 61.1133 82.1 61.0934 82.1C61.0734 82.1 61.0534 82.1 61.0334 82.1C61.0135 82.1 60.9935 82.1 60.9735 82.1C60.9535 82.1 60.9335 82.1 60.9135 82.1C60.8935 82.1 60.8735 82.1 60.8535 82.1C60.8335 82.1 60.8135 82.1 60.7935 82.1C60.7734 82.1 60.7534 82.1 60.7334 82.1C60.7134 82.1 60.6933 82.1 60.6733 82.1C60.6533 82.1 60.6332 82.1 60.6132 82.1C60.5931 82.1 60.5731 82.1 60.553 82.1C60.533 82.1 60.5129 82.1 60.4929 82.1C60.4728 82.1 60.4527 82.1 60.4327 82.1C60.4126 82.1 60.3925 82.1 60.3724 82.1C60.3524 82.1 60.3323 82.1 60.3122 82.1C60.2921 82.1 60.272 82.1 60.2519 82.1C60.2318 82.1 60.2117 82.1 60.1916 82.1C60.1715 82.1 60.1514 82.1 60.1313 82.1C60.1111 82.1 60.091 82.1 60.0709 82.1C60.0508 82.1 60.0306 82.1 60.0105 82.1C59.9904 82.1 59.9702 82.1 59.9501 82.1C59.9299 82.1 59.9098 82.1 59.8896 82.1C59.8695 82.1 59.8493 82.1 59.8292 82.1C59.809 82.1 59.7888 82.1 59.7687 82.1C59.7485 82.1 59.7283 82.1 59.7081 82.1C59.6879 82.1 59.6678 82.1 59.6476 82.1C59.6274 82.1 59.6072 82.1 59.587 82.1C59.5668 82.1 59.5466 82.1 59.5264 82.1C59.5062 82.1 59.4859 82.1 59.4657 82.1C59.4455 82.1 59.4253 82.1 59.4051 82.1C59.3848 82.1 59.3646 82.1 59.3444 82.1C59.3241 82.1 59.3039 82.1 59.2836 82.1C59.2634 82.1 59.2431 82.1 59.2229 82.1C59.2026 82.1 59.1824 82.1 59.1621 82.1C59.1418 82.1 59.1216 82.1 59.1013 82.1C59.081 82.1 59.0608 82.1 59.0405 82.1C59.0202 82.1 58.9999 82.1 58.9796 82.1C58.9593 82.1 58.939 82.1 58.9187 82.1C58.8984 82.1 58.8781 82.1 58.8578 82.1C58.8375 82.1 58.8172 82.1 58.7969 82.1C58.7766 82.1 58.7562 82.1 58.7359 82.1C58.7156 82.1 58.6952 82.1 58.6749 82.1C58.6546 82.1 58.6342 82.1 58.6139 82.1C58.5935 82.1 58.5732 82.1 58.5528 82.1C58.5325 82.1 58.5121 82.1 58.4917 82.1C58.4714 82.1 58.451 82.1 58.4306 82.1C58.4103 82.1 58.3899 82.1 58.3695 82.1C58.3491 82.1 58.3287 82.1 58.3083 82.1C58.288 82.1 58.2676 82.1 58.2472 82.1C58.2268 82.1 58.2063 82.1 58.1859 82.1C58.1655 82.1 58.1451 82.1 58.1247 82.1C58.1043 82.1 58.0839 82.1 58.0634 82.1C58.043 82.1 58.0226 82.1 58.0021 82.1C57.9817 82.1 57.9612 82.1 57.9408 82.1C57.9204 82.1 57.8999 82.1 57.8794 82.1C57.859 82.1 57.8385 82.1 57.8181 82.1C57.7976 82.1 57.7771 82.1 57.7567 82.1C57.7362 82.1 57.7157 82.1 57.6952 82.1C57.6747 82.1 57.6542 82.1 57.6338 82.1C57.6133 82.1 57.5928 82.1 57.5723 82.1C57.5518 82.1 57.5313 82.1 57.5107 82.1C57.4902 82.1 57.4697 82.1 57.4492 82.1C57.4287 82.1 57.4082 82.1 57.3876 82.1C57.3671 82.1 57.3466 82.1 57.326 82.1C57.3055 82.1 57.2849 82.1 57.2644 82.1C57.2438 82.1 57.2233 82.1 57.2027 82.1C57.1822 82.1 57.1616 82.1 57.1411 82.1C57.1205 82.1 57.0999 82.1 57.0793 82.1C57.0588 82.1 57.0382 82.1 57.0176 82.1C56.997 82.1 56.9764 82.1 56.9558 82.1C56.9352 82.1 56.9146 82.1 56.894 82.1C56.8734 82.1 56.8528 82.1 56.8322 82.1C56.8116 82.1 56.791 82.1 56.7704 82.1C56.7498 82.1 56.7291 82.1 56.7085 82.1C56.6879 82.1 56.6672 82.1 56.6466 82.1C56.626 82.1 56.6053 82.1 56.5847 82.1C56.564 82.1 56.5434 82.1 56.5227 82.1C56.502 82.1 56.4814 82.1 56.4607 82.1C56.4401 82.1 56.4194 82.1 56.3987 82.1C56.378 82.1 56.3573 82.1 56.3367 82.1C56.316 82.1 56.2953 82.1 56.2746 82.1C56.2539 82.1 56.2332 82.1 56.2125 82.1V90.1C56.2332 90.1 56.2539 90.1 56.2746 90.1C56.2953 90.1 56.316 90.1 56.3367 90.1C56.3573 90.1 56.378 90.1 56.3987 90.1C56.4194 90.1 56.4401 90.1 56.4607 90.1C56.4814 90.1 56.502 90.1 56.5227 90.1C56.5434 90.1 56.564 90.1 56.5847 90.1C56.6053 90.1 56.626 90.1 56.6466 90.1C56.6672 90.1 56.6879 90.1 56.7085 90.1C56.7291 90.1 56.7498 90.1 56.7704 90.1C56.791 90.1 56.8116 90.1 56.8322 90.1C56.8528 90.1 56.8734 90.1 56.894 90.1C56.9146 90.1 56.9352 90.1 56.9558 90.1C56.9764 90.1 56.997 90.1 57.0176 90.1C57.0382 90.1 57.0588 90.1 57.0793 90.1C57.0999 90.1 57.1205 90.1 57.1411 90.1C57.1616 90.1 57.1822 90.1 57.2027 90.1C57.2233 90.1 57.2438 90.1 57.2644 90.1C57.2849 90.1 57.3055 90.1 57.326 90.1C57.3466 90.1 57.3671 90.1 57.3876 90.1C57.4082 90.1 57.4287 90.1 57.4492 90.1C57.4697 90.1 57.4902 90.1 57.5107 90.1C57.5313 90.1 57.5518 90.1 57.5723 90.1C57.5928 90.1 57.6133 90.1 57.6338 90.1C57.6542 90.1 57.6747 90.1 57.6952 90.1C57.7157 90.1 57.7362 90.1 57.7567 90.1C57.7771 90.1 57.7976 90.1 57.8181 90.1C57.8385 90.1 57.859 90.1 57.8794 90.1C57.8999 90.1 57.9204 90.1 57.9408 90.1C57.9612 90.1 57.9817 90.1 58.0021 90.1C58.0226 90.1 58.043 90.1 58.0634 90.1C58.0839 90.1 58.1043 90.1 58.1247 90.1C58.1451 90.1 58.1655 90.1 58.1859 90.1C58.2063 90.1 58.2268 90.1 58.2472 90.1C58.2676 90.1 58.288 90.1 58.3083 90.1C58.3287 90.1 58.3491 90.1 58.3695 90.1C58.3899 90.1 58.4103 90.1 58.4306 90.1C58.451 90.1 58.4714 90.1 58.4917 90.1C58.5121 90.1 58.5325 90.1 58.5528 90.1C58.5732 90.1 58.5935 90.1 58.6139 90.1C58.6342 90.1 58.6546 90.1 58.6749 90.1C58.6952 90.1 58.7156 90.1 58.7359 90.1C58.7562 90.1 58.7766 90.1 58.7969 90.1C58.8172 90.1 58.8375 90.1 58.8578 90.1C58.8781 90.1 58.8984 90.1 58.9187 90.1C58.939 90.1 58.9593 90.1 58.9796 90.1C58.9999 90.1 59.0202 90.1 59.0405 90.1C59.0608 90.1 59.081 90.1 59.1013 90.1C59.1216 90.1 59.1418 90.1 59.1621 90.1C59.1824 90.1 59.2026 90.1 59.2229 90.1C59.2431 90.1 59.2634 90.1 59.2836 90.1C59.3039 90.1 59.3241 90.1 59.3444 90.1C59.3646 90.1 59.3848 90.1 59.4051 90.1C59.4253 90.1 59.4455 90.1 59.4657 90.1C59.4859 90.1 59.5062 90.1 59.5264 90.1C59.5466 90.1 59.5668 90.1 59.587 90.1C59.6072 90.1 59.6274 90.1 59.6476 90.1C59.6678 90.1 59.6879 90.1 59.7081 90.1C59.7283 90.1 59.7485 90.1 59.7687 90.1C59.7888 90.1 59.809 90.1 59.8292 90.1C59.8493 90.1 59.8695 90.1 59.8896 90.1C59.9098 90.1 59.9299 90.1 59.9501 90.1C59.9702 90.1 59.9904 90.1 60.0105 90.1C60.0306 90.1 60.0508 90.1 60.0709 90.1C60.091 90.1 60.1111 90.1 60.1313 90.1C60.1514 90.1 60.1715 90.1 60.1916 90.1C60.2117 90.1 60.2318 90.1 60.2519 90.1C60.272 90.1 60.2921 90.1 60.3122 90.1C60.3323 90.1 60.3524 90.1 60.3724 90.1C60.3925 90.1 60.4126 90.1 60.4327 90.1C60.4527 90.1 60.4728 90.1 60.4929 90.1C60.5129 90.1 60.533 90.1 60.553 90.1C60.5731 90.1 60.5931 90.1 60.6132 90.1C60.6332 90.1 60.6533 90.1 60.6733 90.1C60.6933 90.1 60.7134 90.1 60.7334 90.1C60.7534 90.1 60.7734 90.1 60.7935 90.1C60.8135 90.1 60.8335 90.1 60.8535 90.1C60.8735 90.1 60.8935 90.1 60.9135 90.1C60.9335 90.1 60.9535 90.1 60.9735 90.1C60.9935 90.1 61.0135 90.1 61.0334 90.1C61.0534 90.1 61.0734 90.1 61.0934 90.1C61.1133 90.1 61.1333 90.1 61.1533 90.1C61.1732 90.1 61.1932 90.1 61.2131 90.1C61.2331 90.1 61.253 90.1 61.273 90.1C61.2929 90.1 61.3129 90.1 61.3328 90.1C61.3527 90.1 61.3727 90.1 61.3926 90.1C61.4125 90.1 61.4324 90.1 61.4523 90.1C61.4723 90.1 61.4922 90.1 61.5121 90.1C61.532 90.1 61.5519 90.1 61.5718 90.1C61.5917 90.1 61.6116 90.1 61.6315 90.1C61.6513 90.1 61.6712 90.1 61.6911 90.1C61.711 90.1 61.7309 90.1 61.7507 90.1C61.7706 90.1 61.7905 90.1 61.8103 90.1C61.8302 90.1 61.85 90.1 61.8699 90.1C61.8898 90.1 61.9096 90.1 61.9294 90.1C61.9493 90.1 61.9691 90.1 61.989 90.1C62.0088 90.1 62.0286 90.1 62.0484 90.1C62.0683 90.1 62.0881 90.1 62.1079 90.1C62.1277 90.1 62.1475 90.1 62.1673 90.1C62.1871 90.1 62.2069 90.1 62.2267 90.1C62.2465 90.1 62.2663 90.1 62.2861 90.1C62.3059 90.1 62.3257 90.1 62.3455 90.1C62.3652 90.1 62.385 90.1 62.4048 90.1C62.4246 90.1 62.4443 90.1 62.4641 90.1C62.4838 90.1 62.5036 90.1 62.5233 90.1C62.5431 90.1 62.5628 90.1 62.5826 90.1C62.6023 90.1 62.6221 90.1 62.6418 90.1C62.6615 90.1 62.6813 90.1 62.701 90.1C62.7207 90.1 62.7404 90.1 62.7601 90.1C62.7799 90.1 62.7996 90.1 62.8193 90.1C62.839 90.1 62.8587 90.1 62.8784 90.1C62.8981 90.1 62.9178 90.1 62.9374 90.1C62.9571 90.1 62.9768 90.1 62.9965 90.1C63.0162 90.1 63.0358 90.1 63.0555 90.1C63.0752 90.1 63.0948 90.1 63.1145 90.1C63.1342 90.1 63.1538 90.1 63.1735 90.1C63.1931 90.1 63.2128 90.1 63.2324 90.1C63.252 90.1 63.2717 90.1 63.2913 90.1C63.3109 90.1 63.3306 90.1 63.3502 90.1C63.3698 90.1 63.3894 90.1 63.409 90.1C63.4287 90.1 63.4483 90.1 63.4679 90.1C63.4875 90.1 63.5071 90.1 63.5267 90.1C63.5463 90.1 63.5659 90.1 63.5854 90.1C63.605 90.1 63.6246 90.1 63.6442 90.1C63.6638 90.1 63.6833 90.1 63.7029 90.1C63.7225 90.1 63.742 90.1 63.7616 90.1C63.7812 90.1 63.8007 90.1 63.8203 90.1C63.8398 90.1 63.8594 90.1 63.8789 90.1C63.8984 90.1 63.918 90.1 63.9375 90.1C63.957 90.1 63.9766 90.1 63.9961 90.1C64.0156 90.1 64.0351 90.1 64.0546 90.1C64.0742 90.1 64.0937 90.1 64.1132 90.1C64.1327 90.1 64.1522 90.1 64.1717 90.1C64.1912 90.1 64.2106 90.1 64.2301 90.1C64.2496 90.1 64.2691 90.1 64.2886 90.1C64.308 90.1 64.3275 90.1 64.347 90.1C64.3665 90.1 64.3859 90.1 64.4054 90.1C64.4248 90.1 64.4443 90.1 64.4637 90.1C64.4832 90.1 64.5026 90.1 64.5221 90.1C64.5415 90.1 64.5609 90.1 64.5804 90.1C64.5998 90.1 64.6192 90.1 64.6386 90.1C64.6581 90.1 64.6775 90.1 64.6969 90.1C64.7163 90.1 64.7357 90.1 64.7551 90.1C64.7745 90.1 64.7939 90.1 64.8133 90.1C64.8327 90.1 64.8521 90.1 64.8715 90.1C64.8909 90.1 64.9103 90.1 64.9296 90.1C64.949 90.1 64.9684 90.1 64.9877 90.1C65.0071 90.1 65.0265 90.1 65.0458 90.1C65.0652 90.1 65.0845 90.1 65.1039 90.1C65.1232 90.1 65.1426 90.1 65.1619 90.1C65.1813 90.1 65.2006 90.1 65.2199 90.1C65.2393 90.1 65.2586 90.1 65.2779 90.1C65.2972 90.1 65.3165 90.1 65.3358 90.1C65.3552 90.1 65.3745 90.1 65.3938 90.1C65.4131 90.1 65.4324 90.1 65.4517 90.1C65.471 90.1 65.4902 90.1 65.5095 90.1C65.5288 90.1 65.5481 90.1 65.5674 90.1C65.5866 90.1 65.6059 90.1 65.6252 90.1C65.6444 90.1 65.6637 90.1 65.683 90.1C65.7022 90.1 65.7215 90.1 65.7407 90.1C65.76 90.1 65.7792 90.1 65.7984 90.1C65.8177 90.1 65.8369 90.1 65.8561 90.1C65.8754 90.1 65.8946 90.1 65.9138 90.1C65.933 90.1 65.9523 90.1 65.9715 90.1C65.9907 90.1 66.0099 90.1 66.0291 90.1C66.0483 90.1 66.0675 90.1 66.0867 90.1C66.1059 90.1 66.1251 90.1 66.1442 90.1C66.1634 90.1 66.1826 90.1 66.2018 90.1C66.2209 90.1 66.2401 90.1 66.2593 90.1C66.2784 90.1 66.2976 90.1 66.3168 90.1C66.3359 90.1 66.3551 90.1 66.3742 90.1C66.3934 90.1 66.4125 90.1 66.4316 90.1C66.4508 90.1 66.4699 90.1 66.489 90.1C66.5082 90.1 66.5273 90.1 66.5464 90.1C66.5655 90.1 66.5846 90.1 66.6038 90.1C66.6229 90.1 66.642 90.1 66.6611 90.1C66.6802 90.1 66.6993 90.1 66.7184 90.1C66.7375 90.1 66.7565 90.1 66.7756 90.1C66.7947 90.1 66.8138 90.1 66.8329 90.1C66.8519 90.1 66.871 90.1 66.8901 90.1C66.9091 90.1 66.9282 90.1 66.9472 90.1C66.9663 90.1 66.9854 90.1 67.0044 90.1C67.0234 90.1 67.0425 90.1 67.0615 90.1C67.0806 90.1 67.0996 90.1 67.1186 90.1C67.1376 90.1 67.1567 90.1 67.1757 90.1C67.1947 90.1 67.2137 90.1 67.2327 90.1C67.2517 90.1 67.2707 90.1 67.2897 90.1C67.3087 90.1 67.3277 90.1 67.3467 90.1C67.3657 90.1 67.3847 90.1 67.4037 90.1C67.4227 90.1 67.4417 90.1 67.4606 90.1C67.4796 90.1 67.4986 90.1 67.5175 90.1C67.5365 90.1 67.5555 90.1 67.5744 90.1C67.5934 90.1 67.6123 90.1 67.6313 90.1C67.6502 90.1 67.6691 90.1 67.6881 90.1C67.707 90.1 67.7259 90.1 67.7449 90.1C67.7638 90.1 67.7827 90.1 67.8016 90.1C67.8206 90.1 67.8395 90.1 67.8584 90.1C67.8773 90.1 67.8962 90.1 67.9151 90.1C67.934 90.1 67.9529 90.1 67.9718 90.1C67.9907 90.1 68.0096 90.1 68.0284 90.1C68.0473 90.1 68.0662 90.1 68.0851 90.1C68.1039 90.1 68.1228 90.1 68.1417 90.1C68.1605 90.1 68.1794 90.1 68.1982 90.1C68.2171 90.1 68.2359 90.1 68.2548 90.1C68.2736 90.1 68.2925 90.1 68.3113 90.1C68.3301 90.1 68.349 90.1 68.3678 90.1C68.3866 90.1 68.4054 90.1 68.4243 90.1C68.4431 90.1 68.4619 90.1 68.4807 90.1C68.4995 90.1 68.5183 90.1 68.5371 90.1C68.5559 90.1 68.5747 90.1 68.5935 90.1C68.6123 90.1 68.6311 90.1 68.6498 90.1C68.6686 90.1 68.6874 90.1 68.7062 90.1C68.7249 90.1 68.7437 90.1 68.7625 90.1C68.7812 90.1 68.8 90.1 68.8188 90.1C68.8375 90.1 68.8563 90.1 68.875 90.1C68.8937 90.1 68.9125 90.1 68.9312 90.1C68.95 90.1 68.9687 90.1 68.9874 90.1C69.0061 90.1 69.0249 90.1 69.0436 90.1C69.0623 90.1 69.081 90.1 69.0997 90.1C69.1184 90.1 69.1371 90.1 69.1558 90.1C69.1745 90.1 69.1932 90.1 69.2119 90.1C69.2306 90.1 69.2493 90.1 69.2679 90.1C69.2866 90.1 69.3053 90.1 69.324 90.1C69.3426 90.1 69.3613 90.1 69.38 90.1C69.3986 90.1 69.4173 90.1 69.4359 90.1C69.4546 90.1 69.4732 90.1 69.4919 90.1C69.5105 90.1 69.5292 90.1 69.5478 90.1C69.5664 90.1 69.5851 90.1 69.6037 90.1C69.6223 90.1 69.6409 90.1 69.6595 90.1C69.6782 90.1 69.6968 90.1 69.7154 90.1C69.734 90.1 69.7526 90.1 69.7712 90.1C69.7898 90.1 69.8084 90.1 69.827 90.1C69.8456 90.1 69.8641 90.1 69.8827 90.1C69.9013 90.1 69.9199 90.1 69.9384 90.1C69.957 90.1 69.9756 90.1 69.9941 90.1C70.0127 90.1 70.0313 90.1 70.0498 90.1C70.0684 90.1 70.0869 90.1 70.1054 90.1C70.124 90.1 70.1425 90.1 70.1611 90.1C70.1796 90.1 70.1981 90.1 70.2166 90.1C70.2352 90.1 70.2537 90.1 70.2722 90.1C70.2907 90.1 70.3092 90.1 70.3277 90.1C70.3462 90.1 70.3647 90.1 70.3832 90.1C70.4017 90.1 70.4202 90.1 70.4387 90.1C70.4572 90.1 70.4757 90.1 70.4942 90.1C70.5126 90.1 70.5311 90.1 70.5496 90.1C70.5681 90.1 70.5865 90.1 70.605 90.1C70.6234 90.1 70.6419 90.1 70.6603 90.1C70.6788 90.1 70.6972 90.1 70.7157 90.1C70.7341 90.1 70.7526 90.1 70.771 90.1C70.7894 90.1 70.8079 90.1 70.8263 90.1C70.8447 90.1 70.8631 90.1 70.8815 90.1C70.9 90.1 70.9184 90.1 70.9368 90.1C70.9552 90.1 70.9736 90.1 70.992 90.1C71.0104 90.1 71.0288 90.1 71.0471 90.1C71.0655 90.1 71.0839 90.1 71.1023 90.1C71.1207 90.1 71.139 90.1 71.1574 90.1C71.1758 90.1 71.1941 90.1 71.2125 90.1C71.2309 90.1 71.2492 90.1 71.2676 90.1C71.2859 90.1 71.3043 90.1 71.3226 90.1C71.3409 90.1 71.3593 90.1 71.3776 90.1C71.3959 90.1 71.4143 90.1 71.4326 90.1C71.4509 90.1 71.4692 90.1 71.4875 90.1C71.5059 90.1 71.5242 90.1 71.5425 90.1C71.5608 90.1 71.5791 90.1 71.5974 90.1C71.6157 90.1 71.634 90.1 71.6522 90.1C71.6705 90.1 71.6888 90.1 71.7071 90.1C71.7254 90.1 71.7436 90.1 71.7619 90.1C71.7802 90.1 71.7984 90.1 71.8167 90.1C71.835 90.1 71.8532 90.1 71.8715 90.1C71.8897 90.1 71.908 90.1 71.9262 90.1C71.9444 90.1 71.9627 90.1 71.9809 90.1C71.9991 90.1 72.0174 90.1 72.0356 90.1C72.0538 90.1 72.072 90.1 72.0902 90.1C72.1085 90.1 72.1267 90.1 72.1449 90.1C72.1631 90.1 72.1813 90.1 72.1995 90.1C72.2177 90.1 72.2358 90.1 72.254 90.1C72.2722 90.1 72.2904 90.1 72.3086 90.1C72.3267 90.1 72.3449 90.1 72.3631 90.1C72.3813 90.1 72.3994 90.1 72.4176 90.1C72.4357 90.1 72.4539 90.1 72.472 90.1C72.4902 90.1 72.5083 90.1 72.5265 90.1C72.5446 90.1 72.5627 90.1 72.5809 90.1C72.599 90.1 72.6171 90.1 72.6353 90.1C72.6534 90.1 72.6715 90.1 72.6896 90.1C72.7077 90.1 72.7258 90.1 72.7439 90.1C72.762 90.1 72.7801 90.1 72.7982 90.1C72.8163 90.1 72.8344 90.1 72.8525 90.1C72.8706 90.1 72.8887 90.1 72.9067 90.1C72.9248 90.1 72.9429 90.1 72.9609 90.1C72.979 90.1 72.9971 90.1 73.0151 90.1C73.0332 90.1 73.0512 90.1 73.0693 90.1C73.0873 90.1 73.1054 90.1 73.1234 90.1C73.1415 90.1 73.1595 90.1 73.1775 90.1C73.1955 90.1 73.2136 90.1 73.2316 90.1C73.2496 90.1 73.2676 90.1 73.2856 90.1C73.3037 90.1 73.3217 90.1 73.3397 90.1C73.3577 90.1 73.3757 90.1 73.3937 90.1C73.4116 90.1 73.4296 90.1 73.4476 90.1C73.4656 90.1 73.4836 90.1 73.5016 90.1C73.5195 90.1 73.5375 90.1 73.5555 90.1C73.5734 90.1 73.5914 90.1 73.6094 90.1C73.6273 90.1 73.6453 90.1 73.6632 90.1C73.6812 90.1 73.6991 90.1 73.717 90.1C73.735 90.1 73.7529 90.1 73.7708 90.1C73.7888 90.1 73.8067 90.1 73.8246 90.1C73.8425 90.1 73.8604 90.1 73.8784 90.1C73.8963 90.1 73.9142 90.1 73.9321 90.1C73.95 90.1 73.9679 90.1 73.9858 90.1C74.0037 90.1 74.0215 90.1 74.0394 90.1C74.0573 90.1 74.0752 90.1 74.0931 90.1C74.1109 90.1 74.1288 90.1 74.1467 90.1C74.1645 90.1 74.1824 90.1 74.2003 90.1C74.2181 90.1 74.236 90.1 74.2538 90.1C74.2717 90.1 74.2895 90.1 74.3073 90.1C74.3252 90.1 74.343 90.1 74.3608 90.1C74.3787 90.1 74.3965 90.1 74.4143 90.1C74.4321 90.1 74.4499 90.1 74.4678 90.1C74.4856 90.1 74.5034 90.1 74.5212 90.1C74.539 90.1 74.5568 90.1 74.5746 90.1C74.5924 90.1 74.6101 90.1 74.6279 90.1C74.6457 90.1 74.6635 90.1 74.6813 90.1C74.699 90.1 74.7168 90.1 74.7346 90.1C74.7523 90.1 74.7701 90.1 74.7878 90.1C74.8056 90.1 74.8233 90.1 74.8411 90.1C74.8588 90.1 74.8766 90.1 74.8943 90.1C74.9121 90.1 74.9298 90.1 74.9475 90.1C74.9652 90.1 74.983 90.1 75.0007 90.1C75.0184 90.1 75.0361 90.1 75.0538 90.1C75.0715 90.1 75.0892 90.1 75.1069 90.1C75.1246 90.1 75.1423 90.1 75.16 90.1C75.1777 90.1 75.1954 90.1 75.2131 90.1C75.2308 90.1 75.2484 90.1 75.2661 90.1C75.2838 90.1 75.3015 90.1 75.3191 90.1C75.3368 90.1 75.3544 90.1 75.3721 90.1C75.3898 90.1 75.4074 90.1 75.425 90.1C75.4427 90.1 75.4603 90.1 75.478 90.1C75.4956 90.1 75.5132 90.1 75.5309 90.1C75.5485 90.1 75.5661 90.1 75.5837 90.1C75.6013 90.1 75.619 90.1 75.6366 90.1C75.6542 90.1 75.6718 90.1 75.6894 90.1C75.707 90.1 75.7246 90.1 75.7422 90.1C75.7598 90.1 75.7773 90.1 75.7949 90.1C75.8125 90.1 75.8301 90.1 75.8477 90.1C75.8652 90.1 75.8828 90.1 75.9004 90.1C75.9179 90.1 75.9355 90.1 75.953 90.1C75.9706 90.1 75.9881 90.1 76.0057 90.1C76.0232 90.1 76.0408 90.1 76.0583 90.1C76.0758 90.1 76.0934 90.1 76.1109 90.1C76.1284 90.1 76.1459 90.1 76.1635 90.1C76.181 90.1 76.1985 90.1 76.216 90.1C76.2335 90.1 76.251 90.1 76.2685 90.1C76.286 90.1 76.3035 90.1 76.321 90.1C76.3385 90.1 76.356 90.1 76.3734 90.1C76.3909 90.1 76.4084 90.1 76.4259 90.1C76.4433 90.1 76.4608 90.1 76.4783 90.1C76.4957 90.1 76.5132 90.1 76.5306 90.1C76.5481 90.1 76.5655 90.1 76.583 90.1C76.6004 90.1 76.6179 90.1 76.6353 90.1C76.6527 90.1 76.6702 90.1 76.6876 90.1C76.705 90.1 76.7224 90.1 76.7399 90.1C76.7573 90.1 76.7747 90.1 76.7921 90.1C76.8095 90.1 76.8269 90.1 76.8443 90.1C76.8617 90.1 76.8791 90.1 76.8965 90.1C76.9139 90.1 76.9313 90.1 76.9486 90.1C76.966 90.1 76.9834 90.1 77.0008 90.1C77.0181 90.1 77.0355 90.1 77.0529 90.1C77.0702 90.1 77.0876 90.1 77.1049 90.1C77.1223 90.1 77.1396 90.1 77.157 90.1C77.1743 90.1 77.1917 90.1 77.209 90.1C77.2263 90.1 77.2436 90.1 77.261 90.1C77.2783 90.1 77.2956 90.1 77.3129 90.1C77.3302 90.1 77.3476 90.1 77.3649 90.1C77.3822 90.1 77.3995 90.1 77.4168 90.1C77.4341 90.1 77.4514 90.1 77.4687 90.1C77.4859 90.1 77.5032 90.1 77.5205 90.1C77.5378 90.1 77.5551 90.1 77.5723 90.1C77.5896 90.1 77.6069 90.1 77.6241 90.1C77.6414 90.1 77.6586 90.1 77.6759 90.1C77.6931 90.1 77.7104 90.1 77.7276 90.1C77.7449 90.1 77.7621 90.1 77.7793 90.1C77.7966 90.1 77.8138 90.1 77.831 90.1C77.8483 90.1 77.8655 90.1 77.8827 90.1C77.8999 90.1 77.9171 90.1 77.9343 90.1C77.9515 90.1 77.9687 90.1 77.9859 90.1C78.0031 90.1 78.0203 90.1 78.0375 90.1C78.0547 90.1 78.0719 90.1 78.0891 90.1C78.1062 90.1 78.1234 90.1 78.1406 90.1C78.1577 90.1 78.1749 90.1 78.1921 90.1C78.2092 90.1 78.2264 90.1 78.2435 90.1C78.2607 90.1 78.2778 90.1 78.295 90.1C78.3121 90.1 78.3293 90.1 78.3464 90.1C78.3635 90.1 78.3806 90.1 78.3978 90.1C78.4149 90.1 78.432 90.1 78.4491 90.1C78.4662 90.1 78.4833 90.1 78.5005 90.1C78.5176 90.1 78.5347 90.1 78.5518 90.1C78.5689 90.1 78.5859 90.1 78.603 90.1C78.6201 90.1 78.6372 90.1 78.6543 90.1C78.6714 90.1 78.6884 90.1 78.7055 90.1C78.7226 90.1 78.7396 90.1 78.7567 90.1C78.7737 90.1 78.7908 90.1 78.8078 90.1C78.8249 90.1 78.8419 90.1 78.859 90.1C78.876 90.1 78.8931 90.1 78.9101 90.1C78.9271 90.1 78.9442 90.1 78.9612 90.1C78.9782 90.1 78.9952 90.1 79.0122 90.1C79.0292 90.1 79.0463 90.1 79.0633 90.1C79.0803 90.1 79.0973 90.1 79.1143 90.1C79.1313 90.1 79.1482 90.1 79.1652 90.1C79.1822 90.1 79.1992 90.1 79.2162 90.1C79.2332 90.1 79.2501 90.1 79.2671 90.1C79.2841 90.1 79.301 90.1 79.318 90.1C79.3349 90.1 79.3519 90.1 79.3688 90.1C79.3858 90.1 79.4027 90.1 79.4197 90.1C79.4366 90.1 79.4536 90.1 79.4705 90.1C79.4874 90.1 79.5043 90.1 79.5213 90.1C79.5382 90.1 79.5551 90.1 79.572 90.1C79.5889 90.1 79.6058 90.1 79.6227 90.1C79.6396 90.1 79.6565 90.1 79.6734 90.1C79.6903 90.1 79.7072 90.1 79.7241 90.1C79.741 90.1 79.7579 90.1 79.7748 90.1C79.7916 90.1 79.8085 90.1 79.8254 90.1C79.8422 90.1 79.8591 90.1 79.876 90.1C79.8928 90.1 79.9097 90.1 79.9265 90.1C79.9434 90.1 79.9602 90.1 79.977 90.1C79.9939 90.1 80.0107 90.1 80.0276 90.1C80.0444 90.1 80.0612 90.1 80.078 90.1C80.0949 90.1 80.1117 90.1 80.1285 90.1C80.1453 90.1 80.1621 90.1 80.1789 90.1C80.1957 90.1 80.2125 90.1 80.2293 90.1C80.2461 90.1 80.2629 90.1 80.2797 90.1C80.2965 90.1 80.3132 90.1 80.33 90.1C80.3468 90.1 80.3636 90.1 80.3803 90.1C80.3971 90.1 80.4138 90.1 80.4306 90.1C80.4474 90.1 80.4641 90.1 80.4809 90.1C80.4976 90.1 80.5144 90.1 80.5311 90.1C80.5478 90.1 80.5646 90.1 80.5813 90.1C80.598 90.1 80.6147 90.1 80.6315 90.1C80.6482 90.1 80.6649 90.1 80.6816 90.1C80.6983 90.1 80.715 90.1 80.7317 90.1C80.7484 90.1 80.7651 90.1 80.7818 90.1C80.7985 90.1 80.8152 90.1 80.8319 90.1C80.8486 90.1 80.8653 90.1 80.8819 90.1C80.8986 90.1 80.9153 90.1 80.9319 90.1C80.9486 90.1 80.9653 90.1 80.9819 90.1C80.9986 90.1 81.0152 90.1 81.0319 90.1C81.0485 90.1 81.0652 90.1 81.0818 90.1C81.0985 90.1 81.1151 90.1 81.1317 90.1C81.1483 90.1 81.165 90.1 81.1816 90.1C81.1982 90.1 81.2148 90.1 81.2314 90.1C81.248 90.1 81.2647 90.1 81.2813 90.1C81.2979 90.1 81.3144 90.1 81.331 90.1C81.3476 90.1 81.3642 90.1 81.3808 90.1C81.3974 90.1 81.414 90.1 81.4305 90.1C81.4471 90.1 81.4637 90.1 81.4803 90.1C81.4968 90.1 81.5134 90.1 81.5299 90.1C81.5465 90.1 81.563 90.1 81.5796 90.1C81.5961 90.1 81.6127 90.1 81.6292 90.1C81.6457 90.1 81.6623 90.1 81.6788 90.1C81.6953 90.1 81.7119 90.1 81.7284 90.1C81.7449 90.1 81.7614 90.1 81.7779 90.1C81.7944 90.1 81.8109 90.1 81.8274 90.1C81.8439 90.1 81.8604 90.1 81.8769 90.1C81.8934 90.1 81.9099 90.1 81.9264 90.1C81.9429 90.1 81.9594 90.1 81.9758 90.1C81.9923 90.1 82.0088 90.1 82.0252 90.1C82.0417 90.1 82.0582 90.1 82.0746 90.1C82.0911 90.1 82.1075 90.1 82.124 90.1C82.1404 90.1 82.1568 90.1 82.1733 90.1C82.1897 90.1 82.2062 90.1 82.2226 90.1C82.239 90.1 82.2554 90.1 82.2719 90.1C82.2883 90.1 82.3047 90.1 82.3211 90.1C82.3375 90.1 82.3539 90.1 82.3703 90.1C82.3867 90.1 82.4031 90.1 82.4195 90.1C82.4359 90.1 82.4523 90.1 82.4687 90.1C82.485 90.1 82.5014 90.1 82.5178 90.1C82.5342 90.1 82.5505 90.1 82.5669 90.1C82.5833 90.1 82.5996 90.1 82.616 90.1C82.6323 90.1 82.6487 90.1 82.665 90.1C82.6814 90.1 82.6977 90.1 82.714 90.1C82.7304 90.1 82.7467 90.1 82.763 90.1C82.7794 90.1 82.7957 90.1 82.812 90.1C82.8283 90.1 82.8446 90.1 82.8609 90.1C82.8772 90.1 82.8936 90.1 82.9099 90.1C82.9262 90.1 82.9424 90.1 82.9587 90.1C82.975 90.1 82.9913 90.1 83.0076 90.1C83.0239 90.1 83.0401 90.1 83.0564 90.1C83.0727 90.1 83.089 90.1 83.1052 90.1C83.1215 90.1 83.1377 90.1 83.154 90.1C83.1703 90.1 83.1865 90.1 83.2027 90.1C83.219 90.1 83.2352 90.1 83.2515 90.1C83.2677 90.1 83.2839 90.1 83.3002 90.1C83.3164 90.1 83.3326 90.1 83.3488 90.1C83.365 90.1 83.3813 90.1 83.3975 90.1C83.4137 90.1 83.4299 90.1 83.4461 90.1C83.4623 90.1 83.4785 90.1 83.4947 90.1C83.5108 90.1 83.527 90.1 83.5432 90.1C83.5594 90.1 83.5756 90.1 83.5917 90.1C83.6079 90.1 83.6241 90.1 83.6402 90.1C83.6564 90.1 83.6726 90.1 83.6887 90.1C83.7049 90.1 83.721 90.1 83.7372 90.1C83.7533 90.1 83.7694 90.1 83.7856 90.1C83.8017 90.1 83.8178 90.1 83.834 90.1C83.8501 90.1 83.8662 90.1 83.8823 90.1C83.8984 90.1 83.9146 90.1 83.9307 90.1C83.9468 90.1 83.9629 90.1 83.979 90.1C83.9951 90.1 84.0112 90.1 84.0272 90.1C84.0433 90.1 84.0594 90.1 84.0755 90.1C84.0916 90.1 84.1077 90.1 84.1237 90.1C84.1398 90.1 84.1559 90.1 84.1719 90.1C84.188 90.1 84.204 90.1 84.2201 90.1C84.2361 90.1 84.2522 90.1 84.2682 90.1C84.2843 90.1 84.3003 90.1 84.3164 90.1C84.3324 90.1 84.3484 90.1 84.3644 90.1C84.3805 90.1 84.3965 90.1 84.4125 90.1V82.1ZM52.2618 85.4741C49.0389 105.819 47.2184 124.699 46.8136 142.107L54.8114 142.293C55.2066 125.301 56.9861 106.781 60.1632 86.7259L52.2618 85.4741Z" fill="url(#paint0_radial_349_230)" mask="url(#path-1-outside-1_349_230)"/>
</g>
<mask id="path-3-outside-2_349_230" maskUnits="userSpaceOnUse" x="13" y="61" width="134" height="204" fill="black">
<rect fill="white" x="13" y="61" width="134" height="204"/>
<path d="M50.8125 142.2C60.8125 140.4 70.4125 139.5 79.6125 139.5C89.0125 139.5 98.3125 141.4 107.513 145.2C116.913 148.8 124.213 153.7 129.413 159.9C139.213 171.9 144.113 186.4 144.113 203.4C144.113 220.4 138.213 234.5 126.413 245.7C114.813 256.9 97.1125 262.5 73.3125 262.5C58.9125 262.5 45.7125 258.8 33.7125 251.4C21.7125 243.8 15.7125 233 15.7125 219C15.7125 207 20.9125 201 31.3125 201C37.9125 201 42.8125 203.1 46.0125 207.3C49.2125 211.3 50.8125 216.2 50.8125 222C50.8125 227.6 49.6125 232.1 47.2125 235.5C53.4125 240.7 62.9125 243.3 75.7125 243.3C88.7125 243.3 99.0125 239.3 106.613 231.3C114.213 223.3 118.013 213.7 118.013 202.5C118.013 191.1 114.613 180.9 107.813 171.9C101.213 162.9 89.9125 158.4 73.9125 158.4C58.1125 158.4 45.8125 161.4 37.0125 167.4C31.4125 167.4 27.0125 166.8 23.8125 165.6C26.4125 158.2 28.4125 145.3 29.8125 126.9C31.2125 108.3 31.9125 94 31.9125 84C31.9125 73.8 31.8125 67.2 31.6125 64.2C44.0125 65.4 61.2125 66 83.2125 66C105.413 66 122.213 65.2 133.613 63.6L135.113 65.1C133.713 80.5 132.813 94.7 132.413 107.7C130.013 107.9 127.413 108 124.613 108C121.813 108 118.813 107.7 115.613 107.1L114.713 86.7C102.713 86.1 92.6125 85.9 84.4125 86.1C76.2125 86.1 66.8125 86.1 56.2125 86.1C53.0125 106.3 51.2125 125 50.8125 142.2Z"/>
</mask>
<path d="M50.8125 142.2L48.813 142.154L48.7561 144.602L51.1668 144.168L50.8125 142.2ZM107.513 145.2L106.749 147.049L106.773 147.058L106.797 147.068L107.513 145.2ZM129.413 159.9L130.962 158.635L130.953 158.625L130.945 158.615L129.413 159.9ZM126.413 245.7L125.036 244.249L125.029 244.255L125.023 244.261L126.413 245.7ZM33.7125 251.4L32.6424 253.09L32.6525 253.096L32.6627 253.102L33.7125 251.4ZM46.0125 207.3L44.4216 208.512L44.436 208.531L44.4508 208.549L46.0125 207.3ZM47.2125 235.5L45.5786 234.347L44.5174 235.85L45.9273 237.032L47.2125 235.5ZM106.613 231.3L105.163 229.923L106.613 231.3ZM107.813 171.9L106.2 173.083L106.208 173.094L106.217 173.106L107.813 171.9ZM37.0125 167.4V169.4H37.6294L38.1392 169.052L37.0125 167.4ZM23.8125 165.6L21.9256 164.937L21.2763 166.785L23.1103 167.473L23.8125 165.6ZM29.8125 126.9L31.8067 127.052L31.8069 127.05L29.8125 126.9ZM31.6125 64.2L31.8052 62.2093L29.4602 61.9824L29.6169 64.333L31.6125 64.2ZM133.613 63.6L135.027 62.1858L134.322 61.4809L133.335 61.6194L133.613 63.6ZM135.113 65.1L137.104 65.2811L137.189 64.3482L136.527 63.6858L135.113 65.1ZM132.413 107.7L132.579 109.693L134.357 109.545L134.412 107.761L132.413 107.7ZM115.613 107.1L113.614 107.188L113.684 108.773L115.244 109.066L115.613 107.1ZM114.713 86.7L116.711 86.6118L116.63 84.7934L114.812 84.7025L114.713 86.7ZM84.4125 86.1V88.1H84.4369L84.4613 88.0994L84.4125 86.1ZM56.2125 86.1V84.1H54.5044L54.2371 85.7871L56.2125 86.1ZM51.1668 144.168C61.0618 142.387 70.5429 141.5 79.6125 141.5V137.5C70.2821 137.5 60.5632 138.413 50.4582 140.232L51.1668 144.168ZM79.6125 141.5C88.7353 141.5 97.7766 143.343 106.749 147.049L108.276 143.351C98.8484 139.457 89.2897 137.5 79.6125 137.5V141.5ZM106.797 147.068C115.956 150.575 122.946 155.302 127.88 161.185L130.945 158.615C125.479 152.098 117.869 147.025 108.228 143.332L106.797 147.068ZM127.863 161.165C137.343 172.773 142.113 186.813 142.113 203.4H146.113C146.113 185.987 141.082 171.027 130.962 158.635L127.863 161.165ZM142.113 203.4C142.113 219.879 136.418 233.446 125.036 244.249L127.789 247.151C140.007 235.554 146.113 220.921 146.113 203.4H142.113ZM125.023 244.261C113.941 254.961 96.8383 260.5 73.3125 260.5V264.5C97.3867 264.5 115.684 258.839 127.802 247.139L125.023 244.261ZM73.3125 260.5C59.2749 260.5 46.4397 256.899 34.7623 249.698L32.6627 253.102C44.9853 260.701 58.5501 264.5 73.3125 264.5V260.5ZM34.7826 249.71C23.3513 242.471 17.7125 232.303 17.7125 219H13.7125C13.7125 233.697 20.0737 245.129 32.6424 253.09L34.7826 249.71ZM17.7125 219C17.7125 213.244 18.9659 209.3 21.1239 206.81C23.2345 204.375 26.5013 203 31.3125 203V199C25.7237 199 21.1905 200.625 18.1011 204.19C15.0592 207.7 13.7125 212.756 13.7125 219H17.7125ZM31.3125 203C37.4609 203 41.6935 204.931 44.4216 208.512L47.6034 206.088C43.9315 201.269 38.3641 199 31.3125 199V203ZM44.4508 208.549C47.3299 212.148 48.8125 216.591 48.8125 222H52.8125C52.8125 215.809 51.0952 210.452 47.5742 206.051L44.4508 208.549ZM48.8125 222C48.8125 227.327 47.6706 231.383 45.5786 234.347L48.8464 236.653C51.5544 232.817 52.8125 227.873 52.8125 222H48.8125ZM45.9273 237.032C52.6451 242.667 62.7004 245.3 75.7125 245.3V241.3C63.1246 241.3 54.1799 238.733 48.4977 233.968L45.9273 237.032ZM75.7125 245.3C89.1547 245.3 100.018 241.146 108.062 232.678L105.163 229.923C98.0074 237.454 88.2703 241.3 75.7125 241.3V245.3ZM108.062 232.678C116.021 224.3 120.013 214.204 120.013 202.5H116.013C116.013 213.196 112.404 222.3 105.163 229.923L108.062 232.678ZM120.013 202.5C120.013 190.67 116.474 180.046 109.408 170.694L106.217 173.106C112.751 181.754 116.013 191.53 116.013 202.5H120.013ZM109.425 170.717C102.304 161.006 90.2569 156.4 73.9125 156.4V160.4C89.5681 160.4 100.121 164.794 106.2 173.083L109.425 170.717ZM73.9125 156.4C57.8941 156.4 45.1427 159.436 35.8858 165.748L38.1392 169.052C46.4823 163.364 58.3309 160.4 73.9125 160.4V156.4ZM37.0125 165.4C31.5191 165.4 27.3924 164.806 24.5148 163.727L23.1103 167.473C26.6326 168.794 31.3059 169.4 37.0125 169.4V165.4ZM25.6994 166.263C28.3952 158.59 30.4065 145.455 31.8067 127.052L27.8183 126.748C26.4185 145.145 24.4298 157.81 21.9256 164.937L25.6994 166.263ZM31.8069 127.05C33.208 108.435 33.9125 94.0758 33.9125 84H29.9125C29.9125 93.9242 29.217 108.165 27.8181 126.75L31.8069 127.05ZM33.9125 84C33.9125 73.8172 33.8134 67.1464 33.6081 64.067L29.6169 64.333C29.8116 67.2536 29.9125 73.7828 29.9125 84H33.9125ZM31.4199 66.1907C43.9145 67.3998 61.1888 68 83.2125 68V64C61.2362 64 44.1105 63.4001 31.8052 62.2093L31.4199 66.1907ZM83.2125 68C105.437 68 122.349 67.2004 133.89 65.5806L133.335 61.6194C122.076 63.1996 105.388 64 83.2125 64V68ZM132.198 65.0142L133.698 66.5142L136.527 63.6858L135.027 62.1858L132.198 65.0142ZM133.121 64.9189C131.718 80.3515 130.815 94.592 130.413 107.638L134.412 107.761C134.81 94.808 135.707 80.6485 137.104 65.2811L133.121 64.9189ZM132.246 105.707C129.91 105.902 127.366 106 124.613 106V110C127.459 110 130.115 109.898 132.579 109.693L132.246 105.707ZM124.613 106C121.954 106 119.079 105.715 115.981 105.134L115.244 109.066C118.546 109.685 121.671 110 124.613 110V106ZM117.611 107.012L116.711 86.6118L112.714 86.7881L113.614 107.188L117.611 107.012ZM114.812 84.7025C102.783 84.101 92.6302 83.899 84.3637 84.1006L84.4613 88.0994C92.5948 87.901 102.642 88.099 114.613 88.6975L114.812 84.7025ZM84.4125 84.1C84.3965 84.1 84.3805 84.1 84.3644 84.1C84.3484 84.1 84.3324 84.1 84.3164 84.1C84.3003 84.1 84.2843 84.1 84.2682 84.1C84.2522 84.1 84.2361 84.1 84.2201 84.1C84.204 84.1 84.188 84.1 84.1719 84.1C84.1559 84.1 84.1398 84.1 84.1237 84.1C84.1077 84.1 84.0916 84.1 84.0755 84.1C84.0594 84.1 84.0433 84.1 84.0272 84.1C84.0112 84.1 83.9951 84.1 83.979 84.1C83.9629 84.1 83.9468 84.1 83.9307 84.1C83.9146 84.1 83.8984 84.1 83.8823 84.1C83.8662 84.1 83.8501 84.1 83.834 84.1C83.8178 84.1 83.8017 84.1 83.7856 84.1C83.7694 84.1 83.7533 84.1 83.7372 84.1C83.721 84.1 83.7049 84.1 83.6887 84.1C83.6726 84.1 83.6564 84.1 83.6402 84.1C83.6241 84.1 83.6079 84.1 83.5917 84.1C83.5756 84.1 83.5594 84.1 83.5432 84.1C83.527 84.1 83.5108 84.1 83.4947 84.1C83.4785 84.1 83.4623 84.1 83.4461 84.1C83.4299 84.1 83.4137 84.1 83.3975 84.1C83.3813 84.1 83.365 84.1 83.3488 84.1C83.3326 84.1 83.3164 84.1 83.3002 84.1C83.2839 84.1 83.2677 84.1 83.2515 84.1C83.2352 84.1 83.219 84.1 83.2027 84.1C83.1865 84.1 83.1703 84.1 83.154 84.1C83.1377 84.1 83.1215 84.1 83.1052 84.1C83.089 84.1 83.0727 84.1 83.0564 84.1C83.0401 84.1 83.0239 84.1 83.0076 84.1C82.9913 84.1 82.975 84.1 82.9587 84.1C82.9424 84.1 82.9262 84.1 82.9099 84.1C82.8936 84.1 82.8772 84.1 82.8609 84.1C82.8446 84.1 82.8283 84.1 82.812 84.1C82.7957 84.1 82.7794 84.1 82.763 84.1C82.7467 84.1 82.7304 84.1 82.714 84.1C82.6977 84.1 82.6814 84.1 82.665 84.1C82.6487 84.1 82.6323 84.1 82.616 84.1C82.5996 84.1 82.5833 84.1 82.5669 84.1C82.5505 84.1 82.5342 84.1 82.5178 84.1C82.5014 84.1 82.485 84.1 82.4687 84.1C82.4523 84.1 82.4359 84.1 82.4195 84.1C82.4031 84.1 82.3867 84.1 82.3703 84.1C82.3539 84.1 82.3375 84.1 82.3211 84.1C82.3047 84.1 82.2883 84.1 82.2719 84.1C82.2554 84.1 82.239 84.1 82.2226 84.1C82.2062 84.1 82.1897 84.1 82.1733 84.1C82.1568 84.1 82.1404 84.1 82.124 84.1C82.1075 84.1 82.0911 84.1 82.0746 84.1C82.0582 84.1 82.0417 84.1 82.0252 84.1C82.0088 84.1 81.9923 84.1 81.9758 84.1C81.9594 84.1 81.9429 84.1 81.9264 84.1C81.9099 84.1 81.8934 84.1 81.8769 84.1C81.8604 84.1 81.8439 84.1 81.8274 84.1C81.8109 84.1 81.7944 84.1 81.7779 84.1C81.7614 84.1 81.7449 84.1 81.7284 84.1C81.7119 84.1 81.6953 84.1 81.6788 84.1C81.6623 84.1 81.6457 84.1 81.6292 84.1C81.6127 84.1 81.5961 84.1 81.5796 84.1C81.563 84.1 81.5465 84.1 81.5299 84.1C81.5134 84.1 81.4968 84.1 81.4803 84.1C81.4637 84.1 81.4471 84.1 81.4305 84.1C81.414 84.1 81.3974 84.1 81.3808 84.1C81.3642 84.1 81.3476 84.1 81.331 84.1C81.3144 84.1 81.2979 84.1 81.2813 84.1C81.2647 84.1 81.248 84.1 81.2314 84.1C81.2148 84.1 81.1982 84.1 81.1816 84.1C81.165 84.1 81.1483 84.1 81.1317 84.1C81.1151 84.1 81.0985 84.1 81.0818 84.1C81.0652 84.1 81.0485 84.1 81.0319 84.1C81.0152 84.1 80.9986 84.1 80.9819 84.1C80.9653 84.1 80.9486 84.1 80.9319 84.1C80.9153 84.1 80.8986 84.1 80.8819 84.1C80.8653 84.1 80.8486 84.1 80.8319 84.1C80.8152 84.1 80.7985 84.1 80.7818 84.1C80.7651 84.1 80.7484 84.1 80.7317 84.1C80.715 84.1 80.6983 84.1 80.6816 84.1C80.6649 84.1 80.6482 84.1 80.6315 84.1C80.6147 84.1 80.598 84.1 80.5813 84.1C80.5646 84.1 80.5478 84.1 80.5311 84.1C80.5144 84.1 80.4976 84.1 80.4809 84.1C80.4641 84.1 80.4474 84.1 80.4306 84.1C80.4138 84.1 80.3971 84.1 80.3803 84.1C80.3636 84.1 80.3468 84.1 80.33 84.1C80.3132 84.1 80.2965 84.1 80.2797 84.1C80.2629 84.1 80.2461 84.1 80.2293 84.1C80.2125 84.1 80.1957 84.1 80.1789 84.1C80.1621 84.1 80.1453 84.1 80.1285 84.1C80.1117 84.1 80.0949 84.1 80.078 84.1C80.0612 84.1 80.0444 84.1 80.0276 84.1C80.0107 84.1 79.9939 84.1 79.977 84.1C79.9602 84.1 79.9434 84.1 79.9265 84.1C79.9097 84.1 79.8928 84.1 79.876 84.1C79.8591 84.1 79.8422 84.1 79.8254 84.1C79.8085 84.1 79.7916 84.1 79.7748 84.1C79.7579 84.1 79.741 84.1 79.7241 84.1C79.7072 84.1 79.6903 84.1 79.6734 84.1C79.6565 84.1 79.6396 84.1 79.6227 84.1C79.6058 84.1 79.5889 84.1 79.572 84.1C79.5551 84.1 79.5382 84.1 79.5213 84.1C79.5043 84.1 79.4874 84.1 79.4705 84.1C79.4536 84.1 79.4366 84.1 79.4197 84.1C79.4027 84.1 79.3858 84.1 79.3688 84.1C79.3519 84.1 79.3349 84.1 79.318 84.1C79.301 84.1 79.2841 84.1 79.2671 84.1C79.2501 84.1 79.2332 84.1 79.2162 84.1C79.1992 84.1 79.1822 84.1 79.1652 84.1C79.1482 84.1 79.1313 84.1 79.1143 84.1C79.0973 84.1 79.0803 84.1 79.0633 84.1C79.0463 84.1 79.0292 84.1 79.0122 84.1C78.9952 84.1 78.9782 84.1 78.9612 84.1C78.9442 84.1 78.9271 84.1 78.9101 84.1C78.8931 84.1 78.876 84.1 78.859 84.1C78.8419 84.1 78.8249 84.1 78.8078 84.1C78.7908 84.1 78.7737 84.1 78.7567 84.1C78.7396 84.1 78.7226 84.1 78.7055 84.1C78.6884 84.1 78.6714 84.1 78.6543 84.1C78.6372 84.1 78.6201 84.1 78.603 84.1C78.5859 84.1 78.5689 84.1 78.5518 84.1C78.5347 84.1 78.5176 84.1 78.5005 84.1C78.4833 84.1 78.4662 84.1 78.4491 84.1C78.432 84.1 78.4149 84.1 78.3978 84.1C78.3806 84.1 78.3635 84.1 78.3464 84.1C78.3293 84.1 78.3121 84.1 78.295 84.1C78.2778 84.1 78.2607 84.1 78.2435 84.1C78.2264 84.1 78.2092 84.1 78.1921 84.1C78.1749 84.1 78.1577 84.1 78.1406 84.1C78.1234 84.1 78.1062 84.1 78.0891 84.1C78.0719 84.1 78.0547 84.1 78.0375 84.1C78.0203 84.1 78.0031 84.1 77.9859 84.1C77.9687 84.1 77.9515 84.1 77.9343 84.1C77.9171 84.1 77.8999 84.1 77.8827 84.1C77.8655 84.1 77.8483 84.1 77.831 84.1C77.8138 84.1 77.7966 84.1 77.7793 84.1C77.7621 84.1 77.7449 84.1 77.7276 84.1C77.7104 84.1 77.6931 84.1 77.6759 84.1C77.6586 84.1 77.6414 84.1 77.6241 84.1C77.6069 84.1 77.5896 84.1 77.5723 84.1C77.5551 84.1 77.5378 84.1 77.5205 84.1C77.5032 84.1 77.4859 84.1 77.4687 84.1C77.4514 84.1 77.4341 84.1 77.4168 84.1C77.3995 84.1 77.3822 84.1 77.3649 84.1C77.3476 84.1 77.3302 84.1 77.3129 84.1C77.2956 84.1 77.2783 84.1 77.261 84.1C77.2436 84.1 77.2263 84.1 77.209 84.1C77.1917 84.1 77.1743 84.1 77.157 84.1C77.1396 84.1 77.1223 84.1 77.1049 84.1C77.0876 84.1 77.0702 84.1 77.0529 84.1C77.0355 84.1 77.0181 84.1 77.0008 84.1C76.9834 84.1 76.966 84.1 76.9486 84.1C76.9313 84.1 76.9139 84.1 76.8965 84.1C76.8791 84.1 76.8617 84.1 76.8443 84.1C76.8269 84.1 76.8095 84.1 76.7921 84.1C76.7747 84.1 76.7573 84.1 76.7399 84.1C76.7224 84.1 76.705 84.1 76.6876 84.1C76.6702 84.1 76.6527 84.1 76.6353 84.1C76.6179 84.1 76.6004 84.1 76.583 84.1C76.5655 84.1 76.5481 84.1 76.5306 84.1C76.5132 84.1 76.4957 84.1 76.4783 84.1C76.4608 84.1 76.4433 84.1 76.4259 84.1C76.4084 84.1 76.3909 84.1 76.3734 84.1C76.356 84.1 76.3385 84.1 76.321 84.1C76.3035 84.1 76.286 84.1 76.2685 84.1C76.251 84.1 76.2335 84.1 76.216 84.1C76.1985 84.1 76.181 84.1 76.1635 84.1C76.1459 84.1 76.1284 84.1 76.1109 84.1C76.0934 84.1 76.0758 84.1 76.0583 84.1C76.0408 84.1 76.0232 84.1 76.0057 84.1C75.9881 84.1 75.9706 84.1 75.953 84.1C75.9355 84.1 75.9179 84.1 75.9004 84.1C75.8828 84.1 75.8652 84.1 75.8477 84.1C75.8301 84.1 75.8125 84.1 75.7949 84.1C75.7773 84.1 75.7598 84.1 75.7422 84.1C75.7246 84.1 75.707 84.1 75.6894 84.1C75.6718 84.1 75.6542 84.1 75.6366 84.1C75.619 84.1 75.6013 84.1 75.5837 84.1C75.5661 84.1 75.5485 84.1 75.5309 84.1C75.5132 84.1 75.4956 84.1 75.478 84.1C75.4603 84.1 75.4427 84.1 75.425 84.1C75.4074 84.1 75.3898 84.1 75.3721 84.1C75.3544 84.1 75.3368 84.1 75.3191 84.1C75.3015 84.1 75.2838 84.1 75.2661 84.1C75.2484 84.1 75.2308 84.1 75.2131 84.1C75.1954 84.1 75.1777 84.1 75.16 84.1C75.1423 84.1 75.1246 84.1 75.1069 84.1C75.0892 84.1 75.0715 84.1 75.0538 84.1C75.0361 84.1 75.0184 84.1 75.0007 84.1C74.983 84.1 74.9652 84.1 74.9475 84.1C74.9298 84.1 74.9121 84.1 74.8943 84.1C74.8766 84.1 74.8588 84.1 74.8411 84.1C74.8233 84.1 74.8056 84.1 74.7878 84.1C74.7701 84.1 74.7523 84.1 74.7346 84.1C74.7168 84.1 74.699 84.1 74.6813 84.1C74.6635 84.1 74.6457 84.1 74.6279 84.1C74.6101 84.1 74.5924 84.1 74.5746 84.1C74.5568 84.1 74.539 84.1 74.5212 84.1C74.5034 84.1 74.4856 84.1 74.4678 84.1C74.4499 84.1 74.4321 84.1 74.4143 84.1C74.3965 84.1 74.3787 84.1 74.3608 84.1C74.343 84.1 74.3252 84.1 74.3073 84.1C74.2895 84.1 74.2717 84.1 74.2538 84.1C74.236 84.1 74.2181 84.1 74.2003 84.1C74.1824 84.1 74.1645 84.1 74.1467 84.1C74.1288 84.1 74.1109 84.1 74.0931 84.1C74.0752 84.1 74.0573 84.1 74.0394 84.1C74.0215 84.1 74.0037 84.1 73.9858 84.1C73.9679 84.1 73.95 84.1 73.9321 84.1C73.9142 84.1 73.8963 84.1 73.8784 84.1C73.8604 84.1 73.8425 84.1 73.8246 84.1C73.8067 84.1 73.7888 84.1 73.7708 84.1C73.7529 84.1 73.735 84.1 73.717 84.1C73.6991 84.1 73.6812 84.1 73.6632 84.1C73.6453 84.1 73.6273 84.1 73.6094 84.1C73.5914 84.1 73.5734 84.1 73.5555 84.1C73.5375 84.1 73.5195 84.1 73.5016 84.1C73.4836 84.1 73.4656 84.1 73.4476 84.1C73.4296 84.1 73.4116 84.1 73.3937 84.1C73.3757 84.1 73.3577 84.1 73.3397 84.1C73.3217 84.1 73.3037 84.1 73.2856 84.1C73.2676 84.1 73.2496 84.1 73.2316 84.1C73.2136 84.1 73.1955 84.1 73.1775 84.1C73.1595 84.1 73.1415 84.1 73.1234 84.1C73.1054 84.1 73.0873 84.1 73.0693 84.1C73.0512 84.1 73.0332 84.1 73.0151 84.1C72.9971 84.1 72.979 84.1 72.9609 84.1C72.9429 84.1 72.9248 84.1 72.9067 84.1C72.8887 84.1 72.8706 84.1 72.8525 84.1C72.8344 84.1 72.8163 84.1 72.7982 84.1C72.7801 84.1 72.762 84.1 72.7439 84.1C72.7258 84.1 72.7077 84.1 72.6896 84.1C72.6715 84.1 72.6534 84.1 72.6353 84.1C72.6171 84.1 72.599 84.1 72.5809 84.1C72.5627 84.1 72.5446 84.1 72.5265 84.1C72.5083 84.1 72.4902 84.1 72.472 84.1C72.4539 84.1 72.4357 84.1 72.4176 84.1C72.3994 84.1 72.3813 84.1 72.3631 84.1C72.3449 84.1 72.3267 84.1 72.3086 84.1C72.2904 84.1 72.2722 84.1 72.254 84.1C72.2358 84.1 72.2177 84.1 72.1995 84.1C72.1813 84.1 72.1631 84.1 72.1449 84.1C72.1267 84.1 72.1085 84.1 72.0902 84.1C72.072 84.1 72.0538 84.1 72.0356 84.1C72.0174 84.1 71.9991 84.1 71.9809 84.1C71.9627 84.1 71.9444 84.1 71.9262 84.1C71.908 84.1 71.8897 84.1 71.8715 84.1C71.8532 84.1 71.835 84.1 71.8167 84.1C71.7984 84.1 71.7802 84.1 71.7619 84.1C71.7436 84.1 71.7254 84.1 71.7071 84.1C71.6888 84.1 71.6705 84.1 71.6522 84.1C71.634 84.1 71.6157 84.1 71.5974 84.1C71.5791 84.1 71.5608 84.1 71.5425 84.1C71.5242 84.1 71.5059 84.1 71.4875 84.1C71.4692 84.1 71.4509 84.1 71.4326 84.1C71.4143 84.1 71.3959 84.1 71.3776 84.1C71.3593 84.1 71.3409 84.1 71.3226 84.1C71.3043 84.1 71.2859 84.1 71.2676 84.1C71.2492 84.1 71.2309 84.1 71.2125 84.1C71.1941 84.1 71.1758 84.1 71.1574 84.1C71.139 84.1 71.1207 84.1 71.1023 84.1C71.0839 84.1 71.0655 84.1 71.0471 84.1C71.0288 84.1 71.0104 84.1 70.992 84.1C70.9736 84.1 70.9552 84.1 70.9368 84.1C70.9184 84.1 70.9 84.1 70.8815 84.1C70.8631 84.1 70.8447 84.1 70.8263 84.1C70.8079 84.1 70.7894 84.1 70.771 84.1C70.7526 84.1 70.7341 84.1 70.7157 84.1C70.6972 84.1 70.6788 84.1 70.6603 84.1C70.6419 84.1 70.6234 84.1 70.605 84.1C70.5865 84.1 70.5681 84.1 70.5496 84.1C70.5311 84.1 70.5126 84.1 70.4942 84.1C70.4757 84.1 70.4572 84.1 70.4387 84.1C70.4202 84.1 70.4017 84.1 70.3832 84.1C70.3647 84.1 70.3462 84.1 70.3277 84.1C70.3092 84.1 70.2907 84.1 70.2722 84.1C70.2537 84.1 70.2352 84.1 70.2166 84.1C70.1981 84.1 70.1796 84.1 70.1611 84.1C70.1425 84.1 70.124 84.1 70.1054 84.1C70.0869 84.1 70.0684 84.1 70.0498 84.1C70.0313 84.1 70.0127 84.1 69.9941 84.1C69.9756 84.1 69.957 84.1 69.9384 84.1C69.9199 84.1 69.9013 84.1 69.8827 84.1C69.8641 84.1 69.8456 84.1 69.827 84.1C69.8084 84.1 69.7898 84.1 69.7712 84.1C69.7526 84.1 69.734 84.1 69.7154 84.1C69.6968 84.1 69.6782 84.1 69.6595 84.1C69.6409 84.1 69.6223 84.1 69.6037 84.1C69.5851 84.1 69.5664 84.1 69.5478 84.1C69.5292 84.1 69.5105 84.1 69.4919 84.1C69.4732 84.1 69.4546 84.1 69.4359 84.1C69.4173 84.1 69.3986 84.1 69.38 84.1C69.3613 84.1 69.3426 84.1 69.324 84.1C69.3053 84.1 69.2866 84.1 69.2679 84.1C69.2493 84.1 69.2306 84.1 69.2119 84.1C69.1932 84.1 69.1745 84.1 69.1558 84.1C69.1371 84.1 69.1184 84.1 69.0997 84.1C69.081 84.1 69.0623 84.1 69.0436 84.1C69.0249 84.1 69.0061 84.1 68.9874 84.1C68.9687 84.1 68.95 84.1 68.9312 84.1C68.9125 84.1 68.8937 84.1 68.875 84.1C68.8563 84.1 68.8375 84.1 68.8188 84.1C68.8 84.1 68.7812 84.1 68.7625 84.1C68.7437 84.1 68.7249 84.1 68.7062 84.1C68.6874 84.1 68.6686 84.1 68.6498 84.1C68.6311 84.1 68.6123 84.1 68.5935 84.1C68.5747 84.1 68.5559 84.1 68.5371 84.1C68.5183 84.1 68.4995 84.1 68.4807 84.1C68.4619 84.1 68.4431 84.1 68.4243 84.1C68.4054 84.1 68.3866 84.1 68.3678 84.1C68.349 84.1 68.3301 84.1 68.3113 84.1C68.2925 84.1 68.2736 84.1 68.2548 84.1C68.2359 84.1 68.2171 84.1 68.1982 84.1C68.1794 84.1 68.1605 84.1 68.1417 84.1C68.1228 84.1 68.1039 84.1 68.0851 84.1C68.0662 84.1 68.0473 84.1 68.0284 84.1C68.0096 84.1 67.9907 84.1 67.9718 84.1C67.9529 84.1 67.934 84.1 67.9151 84.1C67.8962 84.1 67.8773 84.1 67.8584 84.1C67.8395 84.1 67.8206 84.1 67.8016 84.1C67.7827 84.1 67.7638 84.1 67.7449 84.1C67.7259 84.1 67.707 84.1 67.6881 84.1C67.6691 84.1 67.6502 84.1 67.6313 84.1C67.6123 84.1 67.5934 84.1 67.5744 84.1C67.5555 84.1 67.5365 84.1 67.5175 84.1C67.4986 84.1 67.4796 84.1 67.4606 84.1C67.4417 84.1 67.4227 84.1 67.4037 84.1C67.3847 84.1 67.3657 84.1 67.3467 84.1C67.3277 84.1 67.3087 84.1 67.2897 84.1C67.2707 84.1 67.2517 84.1 67.2327 84.1C67.2137 84.1 67.1947 84.1 67.1757 84.1C67.1567 84.1 67.1376 84.1 67.1186 84.1C67.0996 84.1 67.0806 84.1 67.0615 84.1C67.0425 84.1 67.0234 84.1 67.0044 84.1C66.9854 84.1 66.9663 84.1 66.9472 84.1C66.9282 84.1 66.9091 84.1 66.8901 84.1C66.871 84.1 66.8519 84.1 66.8329 84.1C66.8138 84.1 66.7947 84.1 66.7756 84.1C66.7565 84.1 66.7375 84.1 66.7184 84.1C66.6993 84.1 66.6802 84.1 66.6611 84.1C66.642 84.1 66.6229 84.1 66.6038 84.1C66.5846 84.1 66.5655 84.1 66.5464 84.1C66.5273 84.1 66.5082 84.1 66.489 84.1C66.4699 84.1 66.4508 84.1 66.4316 84.1C66.4125 84.1 66.3934 84.1 66.3742 84.1C66.3551 84.1 66.3359 84.1 66.3168 84.1C66.2976 84.1 66.2784 84.1 66.2593 84.1C66.2401 84.1 66.2209 84.1 66.2018 84.1C66.1826 84.1 66.1634 84.1 66.1442 84.1C66.1251 84.1 66.1059 84.1 66.0867 84.1C66.0675 84.1 66.0483 84.1 66.0291 84.1C66.0099 84.1 65.9907 84.1 65.9715 84.1C65.9523 84.1 65.933 84.1 65.9138 84.1C65.8946 84.1 65.8754 84.1 65.8561 84.1C65.8369 84.1 65.8177 84.1 65.7984 84.1C65.7792 84.1 65.76 84.1 65.7407 84.1C65.7215 84.1 65.7022 84.1 65.683 84.1C65.6637 84.1 65.6444 84.1 65.6252 84.1C65.6059 84.1 65.5866 84.1 65.5674 84.1C65.5481 84.1 65.5288 84.1 65.5095 84.1C65.4902 84.1 65.471 84.1 65.4517 84.1C65.4324 84.1 65.4131 84.1 65.3938 84.1C65.3745 84.1 65.3552 84.1 65.3358 84.1C65.3165 84.1 65.2972 84.1 65.2779 84.1C65.2586 84.1 65.2393 84.1 65.2199 84.1C65.2006 84.1 65.1813 84.1 65.1619 84.1C65.1426 84.1 65.1232 84.1 65.1039 84.1C65.0845 84.1 65.0652 84.1 65.0458 84.1C65.0265 84.1 65.0071 84.1 64.9877 84.1C64.9684 84.1 64.949 84.1 64.9296 84.1C64.9103 84.1 64.8909 84.1 64.8715 84.1C64.8521 84.1 64.8327 84.1 64.8133 84.1C64.7939 84.1 64.7745 84.1 64.7551 84.1C64.7357 84.1 64.7163 84.1 64.6969 84.1C64.6775 84.1 64.6581 84.1 64.6386 84.1C64.6192 84.1 64.5998 84.1 64.5804 84.1C64.5609 84.1 64.5415 84.1 64.5221 84.1C64.5026 84.1 64.4832 84.1 64.4637 84.1C64.4443 84.1 64.4248 84.1 64.4054 84.1C64.3859 84.1 64.3665 84.1 64.347 84.1C64.3275 84.1 64.308 84.1 64.2886 84.1C64.2691 84.1 64.2496 84.1 64.2301 84.1C64.2106 84.1 64.1912 84.1 64.1717 84.1C64.1522 84.1 64.1327 84.1 64.1132 84.1C64.0937 84.1 64.0742 84.1 64.0546 84.1C64.0351 84.1 64.0156 84.1 63.9961 84.1C63.9766 84.1 63.957 84.1 63.9375 84.1C63.918 84.1 63.8984 84.1 63.8789 84.1C63.8594 84.1 63.8398 84.1 63.8203 84.1C63.8007 84.1 63.7812 84.1 63.7616 84.1C63.742 84.1 63.7225 84.1 63.7029 84.1C63.6833 84.1 63.6638 84.1 63.6442 84.1C63.6246 84.1 63.605 84.1 63.5854 84.1C63.5659 84.1 63.5463 84.1 63.5267 84.1C63.5071 84.1 63.4875 84.1 63.4679 84.1C63.4483 84.1 63.4287 84.1 63.409 84.1C63.3894 84.1 63.3698 84.1 63.3502 84.1C63.3306 84.1 63.3109 84.1 63.2913 84.1C63.2717 84.1 63.252 84.1 63.2324 84.1C63.2128 84.1 63.1931 84.1 63.1735 84.1C63.1538 84.1 63.1342 84.1 63.1145 84.1C63.0948 84.1 63.0752 84.1 63.0555 84.1C63.0358 84.1 63.0162 84.1 62.9965 84.1C62.9768 84.1 62.9571 84.1 62.9374 84.1C62.9178 84.1 62.8981 84.1 62.8784 84.1C62.8587 84.1 62.839 84.1 62.8193 84.1C62.7996 84.1 62.7799 84.1 62.7601 84.1C62.7404 84.1 62.7207 84.1 62.701 84.1C62.6813 84.1 62.6615 84.1 62.6418 84.1C62.6221 84.1 62.6023 84.1 62.5826 84.1C62.5628 84.1 62.5431 84.1 62.5233 84.1C62.5036 84.1 62.4838 84.1 62.4641 84.1C62.4443 84.1 62.4246 84.1 62.4048 84.1C62.385 84.1 62.3652 84.1 62.3455 84.1C62.3257 84.1 62.3059 84.1 62.2861 84.1C62.2663 84.1 62.2465 84.1 62.2267 84.1C62.2069 84.1 62.1871 84.1 62.1673 84.1C62.1475 84.1 62.1277 84.1 62.1079 84.1C62.0881 84.1 62.0683 84.1 62.0484 84.1C62.0286 84.1 62.0088 84.1 61.989 84.1C61.9691 84.1 61.9493 84.1 61.9294 84.1C61.9096 84.1 61.8898 84.1 61.8699 84.1C61.85 84.1 61.8302 84.1 61.8103 84.1C61.7905 84.1 61.7706 84.1 61.7507 84.1C61.7309 84.1 61.711 84.1 61.6911 84.1C61.6712 84.1 61.6513 84.1 61.6315 84.1C61.6116 84.1 61.5917 84.1 61.5718 84.1C61.5519 84.1 61.532 84.1 61.5121 84.1C61.4922 84.1 61.4723 84.1 61.4523 84.1C61.4324 84.1 61.4125 84.1 61.3926 84.1C61.3727 84.1 61.3527 84.1 61.3328 84.1C61.3129 84.1 61.2929 84.1 61.273 84.1C61.253 84.1 61.2331 84.1 61.2131 84.1C61.1932 84.1 61.1732 84.1 61.1533 84.1C61.1333 84.1 61.1133 84.1 61.0934 84.1C61.0734 84.1 61.0534 84.1 61.0334 84.1C61.0135 84.1 60.9935 84.1 60.9735 84.1C60.9535 84.1 60.9335 84.1 60.9135 84.1C60.8935 84.1 60.8735 84.1 60.8535 84.1C60.8335 84.1 60.8135 84.1 60.7935 84.1C60.7734 84.1 60.7534 84.1 60.7334 84.1C60.7134 84.1 60.6933 84.1 60.6733 84.1C60.6533 84.1 60.6332 84.1 60.6132 84.1C60.5931 84.1 60.5731 84.1 60.553 84.1C60.533 84.1 60.5129 84.1 60.4929 84.1C60.4728 84.1 60.4527 84.1 60.4327 84.1C60.4126 84.1 60.3925 84.1 60.3724 84.1C60.3524 84.1 60.3323 84.1 60.3122 84.1C60.2921 84.1 60.272 84.1 60.2519 84.1C60.2318 84.1 60.2117 84.1 60.1916 84.1C60.1715 84.1 60.1514 84.1 60.1313 84.1C60.1111 84.1 60.091 84.1 60.0709 84.1C60.0508 84.1 60.0306 84.1 60.0105 84.1C59.9904 84.1 59.9702 84.1 59.9501 84.1C59.9299 84.1 59.9098 84.1 59.8896 84.1C59.8695 84.1 59.8493 84.1 59.8292 84.1C59.809 84.1 59.7888 84.1 59.7687 84.1C59.7485 84.1 59.7283 84.1 59.7081 84.1C59.6879 84.1 59.6678 84.1 59.6476 84.1C59.6274 84.1 59.6072 84.1 59.587 84.1C59.5668 84.1 59.5466 84.1 59.5264 84.1C59.5062 84.1 59.4859 84.1 59.4657 84.1C59.4455 84.1 59.4253 84.1 59.4051 84.1C59.3848 84.1 59.3646 84.1 59.3444 84.1C59.3241 84.1 59.3039 84.1 59.2836 84.1C59.2634 84.1 59.2431 84.1 59.2229 84.1C59.2026 84.1 59.1824 84.1 59.1621 84.1C59.1418 84.1 59.1216 84.1 59.1013 84.1C59.081 84.1 59.0608 84.1 59.0405 84.1C59.0202 84.1 58.9999 84.1 58.9796 84.1C58.9593 84.1 58.939 84.1 58.9187 84.1C58.8984 84.1 58.8781 84.1 58.8578 84.1C58.8375 84.1 58.8172 84.1 58.7969 84.1C58.7766 84.1 58.7562 84.1 58.7359 84.1C58.7156 84.1 58.6952 84.1 58.6749 84.1C58.6546 84.1 58.6342 84.1 58.6139 84.1C58.5935 84.1 58.5732 84.1 58.5528 84.1C58.5325 84.1 58.5121 84.1 58.4917 84.1C58.4714 84.1 58.451 84.1 58.4306 84.1C58.4103 84.1 58.3899 84.1 58.3695 84.1C58.3491 84.1 58.3287 84.1 58.3083 84.1C58.288 84.1 58.2676 84.1 58.2472 84.1C58.2268 84.1 58.2063 84.1 58.1859 84.1C58.1655 84.1 58.1451 84.1 58.1247 84.1C58.1043 84.1 58.0839 84.1 58.0634 84.1C58.043 84.1 58.0226 84.1 58.0021 84.1C57.9817 84.1 57.9612 84.1 57.9408 84.1C57.9204 84.1 57.8999 84.1 57.8794 84.1C57.859 84.1 57.8385 84.1 57.8181 84.1C57.7976 84.1 57.7771 84.1 57.7567 84.1C57.7362 84.1 57.7157 84.1 57.6952 84.1C57.6747 84.1 57.6542 84.1 57.6338 84.1C57.6133 84.1 57.5928 84.1 57.5723 84.1C57.5518 84.1 57.5313 84.1 57.5107 84.1C57.4902 84.1 57.4697 84.1 57.4492 84.1C57.4287 84.1 57.4082 84.1 57.3876 84.1C57.3671 84.1 57.3466 84.1 57.326 84.1C57.3055 84.1 57.2849 84.1 57.2644 84.1C57.2438 84.1 57.2233 84.1 57.2027 84.1C57.1822 84.1 57.1616 84.1 57.1411 84.1C57.1205 84.1 57.0999 84.1 57.0793 84.1C57.0588 84.1 57.0382 84.1 57.0176 84.1C56.997 84.1 56.9764 84.1 56.9558 84.1C56.9352 84.1 56.9146 84.1 56.894 84.1C56.8734 84.1 56.8528 84.1 56.8322 84.1C56.8116 84.1 56.791 84.1 56.7704 84.1C56.7498 84.1 56.7291 84.1 56.7085 84.1C56.6879 84.1 56.6672 84.1 56.6466 84.1C56.626 84.1 56.6053 84.1 56.5847 84.1C56.564 84.1 56.5434 84.1 56.5227 84.1C56.502 84.1 56.4814 84.1 56.4607 84.1C56.4401 84.1 56.4194 84.1 56.3987 84.1C56.378 84.1 56.3573 84.1 56.3367 84.1C56.316 84.1 56.2953 84.1 56.2746 84.1C56.2539 84.1 56.2332 84.1 56.2125 84.1V88.1C56.2332 88.1 56.2539 88.1 56.2746 88.1C56.2953 88.1 56.316 88.1 56.3367 88.1C56.3573 88.1 56.378 88.1 56.3987 88.1C56.4194 88.1 56.4401 88.1 56.4607 88.1C56.4814 88.1 56.502 88.1 56.5227 88.1C56.5434 88.1 56.564 88.1 56.5847 88.1C56.6053 88.1 56.626 88.1 56.6466 88.1C56.6672 88.1 56.6879 88.1 56.7085 88.1C56.7291 88.1 56.7498 88.1 56.7704 88.1C56.791 88.1 56.8116 88.1 56.8322 88.1C56.8528 88.1 56.8734 88.1 56.894 88.1C56.9146 88.1 56.9352 88.1 56.9558 88.1C56.9764 88.1 56.997 88.1 57.0176 88.1C57.0382 88.1 57.0588 88.1 57.0793 88.1C57.0999 88.1 57.1205 88.1 57.1411 88.1C57.1616 88.1 57.1822 88.1 57.2027 88.1C57.2233 88.1 57.2438 88.1 57.2644 88.1C57.2849 88.1 57.3055 88.1 57.326 88.1C57.3466 88.1 57.3671 88.1 57.3876 88.1C57.4082 88.1 57.4287 88.1 57.4492 88.1C57.4697 88.1 57.4902 88.1 57.5107 88.1C57.5313 88.1 57.5518 88.1 57.5723 88.1C57.5928 88.1 57.6133 88.1 57.6338 88.1C57.6542 88.1 57.6747 88.1 57.6952 88.1C57.7157 88.1 57.7362 88.1 57.7567 88.1C57.7771 88.1 57.7976 88.1 57.8181 88.1C57.8385 88.1 57.859 88.1 57.8794 88.1C57.8999 88.1 57.9204 88.1 57.9408 88.1C57.9612 88.1 57.9817 88.1 58.0021 88.1C58.0226 88.1 58.043 88.1 58.0634 88.1C58.0839 88.1 58.1043 88.1 58.1247 88.1C58.1451 88.1 58.1655 88.1 58.1859 88.1C58.2063 88.1 58.2268 88.1 58.2472 88.1C58.2676 88.1 58.288 88.1 58.3083 88.1C58.3287 88.1 58.3491 88.1 58.3695 88.1C58.3899 88.1 58.4103 88.1 58.4306 88.1C58.451 88.1 58.4714 88.1 58.4917 88.1C58.5121 88.1 58.5325 88.1 58.5528 88.1C58.5732 88.1 58.5935 88.1 58.6139 88.1C58.6342 88.1 58.6546 88.1 58.6749 88.1C58.6952 88.1 58.7156 88.1 58.7359 88.1C58.7562 88.1 58.7766 88.1 58.7969 88.1C58.8172 88.1 58.8375 88.1 58.8578 88.1C58.8781 88.1 58.8984 88.1 58.9187 88.1C58.939 88.1 58.9593 88.1 58.9796 88.1C58.9999 88.1 59.0202 88.1 59.0405 88.1C59.0608 88.1 59.081 88.1 59.1013 88.1C59.1216 88.1 59.1418 88.1 59.1621 88.1C59.1824 88.1 59.2026 88.1 59.2229 88.1C59.2431 88.1 59.2634 88.1 59.2836 88.1C59.3039 88.1 59.3241 88.1 59.3444 88.1C59.3646 88.1 59.3848 88.1 59.4051 88.1C59.4253 88.1 59.4455 88.1 59.4657 88.1C59.4859 88.1 59.5062 88.1 59.5264 88.1C59.5466 88.1 59.5668 88.1 59.587 88.1C59.6072 88.1 59.6274 88.1 59.6476 88.1C59.6678 88.1 59.6879 88.1 59.7081 88.1C59.7283 88.1 59.7485 88.1 59.7687 88.1C59.7888 88.1 59.809 88.1 59.8292 88.1C59.8493 88.1 59.8695 88.1 59.8896 88.1C59.9098 88.1 59.9299 88.1 59.9501 88.1C59.9702 88.1 59.9904 88.1 60.0105 88.1C60.0306 88.1 60.0508 88.1 60.0709 88.1C60.091 88.1 60.1111 88.1 60.1313 88.1C60.1514 88.1 60.1715 88.1 60.1916 88.1C60.2117 88.1 60.2318 88.1 60.2519 88.1C60.272 88.1 60.2921 88.1 60.3122 88.1C60.3323 88.1 60.3524 88.1 60.3724 88.1C60.3925 88.1 60.4126 88.1 60.4327 88.1C60.4527 88.1 60.4728 88.1 60.4929 88.1C60.5129 88.1 60.533 88.1 60.553 88.1C60.5731 88.1 60.5931 88.1 60.6132 88.1C60.6332 88.1 60.6533 88.1 60.6733 88.1C60.6933 88.1 60.7134 88.1 60.7334 88.1C60.7534 88.1 60.7734 88.1 60.7935 88.1C60.8135 88.1 60.8335 88.1 60.8535 88.1C60.8735 88.1 60.8935 88.1 60.9135 88.1C60.9335 88.1 60.9535 88.1 60.9735 88.1C60.9935 88.1 61.0135 88.1 61.0334 88.1C61.0534 88.1 61.0734 88.1 61.0934 88.1C61.1133 88.1 61.1333 88.1 61.1533 88.1C61.1732 88.1 61.1932 88.1 61.2131 88.1C61.2331 88.1 61.253 88.1 61.273 88.1C61.2929 88.1 61.3129 88.1 61.3328 88.1C61.3527 88.1 61.3727 88.1 61.3926 88.1C61.4125 88.1 61.4324 88.1 61.4523 88.1C61.4723 88.1 61.4922 88.1 61.5121 88.1C61.532 88.1 61.5519 88.1 61.5718 88.1C61.5917 88.1 61.6116 88.1 61.6315 88.1C61.6513 88.1 61.6712 88.1 61.6911 88.1C61.711 88.1 61.7309 88.1 61.7507 88.1C61.7706 88.1 61.7905 88.1 61.8103 88.1C61.8302 88.1 61.85 88.1 61.8699 88.1C61.8898 88.1 61.9096 88.1 61.9294 88.1C61.9493 88.1 61.9691 88.1 61.989 88.1C62.0088 88.1 62.0286 88.1 62.0484 88.1C62.0683 88.1 62.0881 88.1 62.1079 88.1C62.1277 88.1 62.1475 88.1 62.1673 88.1C62.1871 88.1 62.2069 88.1 62.2267 88.1C62.2465 88.1 62.2663 88.1 62.2861 88.1C62.3059 88.1 62.3257 88.1 62.3455 88.1C62.3652 88.1 62.385 88.1 62.4048 88.1C62.4246 88.1 62.4443 88.1 62.4641 88.1C62.4838 88.1 62.5036 88.1 62.5233 88.1C62.5431 88.1 62.5628 88.1 62.5826 88.1C62.6023 88.1 62.6221 88.1 62.6418 88.1C62.6615 88.1 62.6813 88.1 62.701 88.1C62.7207 88.1 62.7404 88.1 62.7601 88.1C62.7799 88.1 62.7996 88.1 62.8193 88.1C62.839 88.1 62.8587 88.1 62.8784 88.1C62.8981 88.1 62.9178 88.1 62.9374 88.1C62.9571 88.1 62.9768 88.1 62.9965 88.1C63.0162 88.1 63.0358 88.1 63.0555 88.1C63.0752 88.1 63.0948 88.1 63.1145 88.1C63.1342 88.1 63.1538 88.1 63.1735 88.1C63.1931 88.1 63.2128 88.1 63.2324 88.1C63.252 88.1 63.2717 88.1 63.2913 88.1C63.3109 88.1 63.3306 88.1 63.3502 88.1C63.3698 88.1 63.3894 88.1 63.409 88.1C63.4287 88.1 63.4483 88.1 63.4679 88.1C63.4875 88.1 63.5071 88.1 63.5267 88.1C63.5463 88.1 63.5659 88.1 63.5854 88.1C63.605 88.1 63.6246 88.1 63.6442 88.1C63.6638 88.1 63.6833 88.1 63.7029 88.1C63.7225 88.1 63.742 88.1 63.7616 88.1C63.7812 88.1 63.8007 88.1 63.8203 88.1C63.8398 88.1 63.8594 88.1 63.8789 88.1C63.8984 88.1 63.918 88.1 63.9375 88.1C63.957 88.1 63.9766 88.1 63.9961 88.1C64.0156 88.1 64.0351 88.1 64.0546 88.1C64.0742 88.1 64.0937 88.1 64.1132 88.1C64.1327 88.1 64.1522 88.1 64.1717 88.1C64.1912 88.1 64.2106 88.1 64.2301 88.1C64.2496 88.1 64.2691 88.1 64.2886 88.1C64.308 88.1 64.3275 88.1 64.347 88.1C64.3665 88.1 64.3859 88.1 64.4054 88.1C64.4248 88.1 64.4443 88.1 64.4637 88.1C64.4832 88.1 64.5026 88.1 64.5221 88.1C64.5415 88.1 64.5609 88.1 64.5804 88.1C64.5998 88.1 64.6192 88.1 64.6386 88.1C64.6581 88.1 64.6775 88.1 64.6969 88.1C64.7163 88.1 64.7357 88.1 64.7551 88.1C64.7745 88.1 64.7939 88.1 64.8133 88.1C64.8327 88.1 64.8521 88.1 64.8715 88.1C64.8909 88.1 64.9103 88.1 64.9296 88.1C64.949 88.1 64.9684 88.1 64.9877 88.1C65.0071 88.1 65.0265 88.1 65.0458 88.1C65.0652 88.1 65.0845 88.1 65.1039 88.1C65.1232 88.1 65.1426 88.1 65.1619 88.1C65.1813 88.1 65.2006 88.1 65.2199 88.1C65.2393 88.1 65.2586 88.1 65.2779 88.1C65.2972 88.1 65.3165 88.1 65.3358 88.1C65.3552 88.1 65.3745 88.1 65.3938 88.1C65.4131 88.1 65.4324 88.1 65.4517 88.1C65.471 88.1 65.4902 88.1 65.5095 88.1C65.5288 88.1 65.5481 88.1 65.5674 88.1C65.5866 88.1 65.6059 88.1 65.6252 88.1C65.6444 88.1 65.6637 88.1 65.683 88.1C65.7022 88.1 65.7215 88.1 65.7407 88.1C65.76 88.1 65.7792 88.1 65.7984 88.1C65.8177 88.1 65.8369 88.1 65.8561 88.1C65.8754 88.1 65.8946 88.1 65.9138 88.1C65.933 88.1 65.9523 88.1 65.9715 88.1C65.9907 88.1 66.0099 88.1 66.0291 88.1C66.0483 88.1 66.0675 88.1 66.0867 88.1C66.1059 88.1 66.1251 88.1 66.1442 88.1C66.1634 88.1 66.1826 88.1 66.2018 88.1C66.2209 88.1 66.2401 88.1 66.2593 88.1C66.2784 88.1 66.2976 88.1 66.3168 88.1C66.3359 88.1 66.3551 88.1 66.3742 88.1C66.3934 88.1 66.4125 88.1 66.4316 88.1C66.4508 88.1 66.4699 88.1 66.489 88.1C66.5082 88.1 66.5273 88.1 66.5464 88.1C66.5655 88.1 66.5846 88.1 66.6038 88.1C66.6229 88.1 66.642 88.1 66.6611 88.1C66.6802 88.1 66.6993 88.1 66.7184 88.1C66.7375 88.1 66.7565 88.1 66.7756 88.1C66.7947 88.1 66.8138 88.1 66.8329 88.1C66.8519 88.1 66.871 88.1 66.8901 88.1C66.9091 88.1 66.9282 88.1 66.9472 88.1C66.9663 88.1 66.9854 88.1 67.0044 88.1C67.0234 88.1 67.0425 88.1 67.0615 88.1C67.0806 88.1 67.0996 88.1 67.1186 88.1C67.1376 88.1 67.1567 88.1 67.1757 88.1C67.1947 88.1 67.2137 88.1 67.2327 88.1C67.2517 88.1 67.2707 88.1 67.2897 88.1C67.3087 88.1 67.3277 88.1 67.3467 88.1C67.3657 88.1 67.3847 88.1 67.4037 88.1C67.4227 88.1 67.4417 88.1 67.4606 88.1C67.4796 88.1 67.4986 88.1 67.5175 88.1C67.5365 88.1 67.5555 88.1 67.5744 88.1C67.5934 88.1 67.6123 88.1 67.6313 88.1C67.6502 88.1 67.6691 88.1 67.6881 88.1C67.707 88.1 67.7259 88.1 67.7449 88.1C67.7638 88.1 67.7827 88.1 67.8016 88.1C67.8206 88.1 67.8395 88.1 67.8584 88.1C67.8773 88.1 67.8962 88.1 67.9151 88.1C67.934 88.1 67.9529 88.1 67.9718 88.1C67.9907 88.1 68.0096 88.1 68.0284 88.1C68.0473 88.1 68.0662 88.1 68.0851 88.1C68.1039 88.1 68.1228 88.1 68.1417 88.1C68.1605 88.1 68.1794 88.1 68.1982 88.1C68.2171 88.1 68.2359 88.1 68.2548 88.1C68.2736 88.1 68.2925 88.1 68.3113 88.1C68.3301 88.1 68.349 88.1 68.3678 88.1C68.3866 88.1 68.4054 88.1 68.4243 88.1C68.4431 88.1 68.4619 88.1 68.4807 88.1C68.4995 88.1 68.5183 88.1 68.5371 88.1C68.5559 88.1 68.5747 88.1 68.5935 88.1C68.6123 88.1 68.6311 88.1 68.6498 88.1C68.6686 88.1 68.6874 88.1 68.7062 88.1C68.7249 88.1 68.7437 88.1 68.7625 88.1C68.7812 88.1 68.8 88.1 68.8188 88.1C68.8375 88.1 68.8563 88.1 68.875 88.1C68.8937 88.1 68.9125 88.1 68.9312 88.1C68.95 88.1 68.9687 88.1 68.9874 88.1C69.0061 88.1 69.0249 88.1 69.0436 88.1C69.0623 88.1 69.081 88.1 69.0997 88.1C69.1184 88.1 69.1371 88.1 69.1558 88.1C69.1745 88.1 69.1932 88.1 69.2119 88.1C69.2306 88.1 69.2493 88.1 69.2679 88.1C69.2866 88.1 69.3053 88.1 69.324 88.1C69.3426 88.1 69.3613 88.1 69.38 88.1C69.3986 88.1 69.4173 88.1 69.4359 88.1C69.4546 88.1 69.4732 88.1 69.4919 88.1C69.5105 88.1 69.5292 88.1 69.5478 88.1C69.5664 88.1 69.5851 88.1 69.6037 88.1C69.6223 88.1 69.6409 88.1 69.6595 88.1C69.6782 88.1 69.6968 88.1 69.7154 88.1C69.734 88.1 69.7526 88.1 69.7712 88.1C69.7898 88.1 69.8084 88.1 69.827 88.1C69.8456 88.1 69.8641 88.1 69.8827 88.1C69.9013 88.1 69.9199 88.1 69.9384 88.1C69.957 88.1 69.9756 88.1 69.9941 88.1C70.0127 88.1 70.0313 88.1 70.0498 88.1C70.0684 88.1 70.0869 88.1 70.1054 88.1C70.124 88.1 70.1425 88.1 70.1611 88.1C70.1796 88.1 70.1981 88.1 70.2166 88.1C70.2352 88.1 70.2537 88.1 70.2722 88.1C70.2907 88.1 70.3092 88.1 70.3277 88.1C70.3462 88.1 70.3647 88.1 70.3832 88.1C70.4017 88.1 70.4202 88.1 70.4387 88.1C70.4572 88.1 70.4757 88.1 70.4942 88.1C70.5126 88.1 70.5311 88.1 70.5496 88.1C70.5681 88.1 70.5865 88.1 70.605 88.1C70.6234 88.1 70.6419 88.1 70.6603 88.1C70.6788 88.1 70.6972 88.1 70.7157 88.1C70.7341 88.1 70.7526 88.1 70.771 88.1C70.7894 88.1 70.8079 88.1 70.8263 88.1C70.8447 88.1 70.8631 88.1 70.8815 88.1C70.9 88.1 70.9184 88.1 70.9368 88.1C70.9552 88.1 70.9736 88.1 70.992 88.1C71.0104 88.1 71.0288 88.1 71.0471 88.1C71.0655 88.1 71.0839 88.1 71.1023 88.1C71.1207 88.1 71.139 88.1 71.1574 88.1C71.1758 88.1 71.1941 88.1 71.2125 88.1C71.2309 88.1 71.2492 88.1 71.2676 88.1C71.2859 88.1 71.3043 88.1 71.3226 88.1C71.3409 88.1 71.3593 88.1 71.3776 88.1C71.3959 88.1 71.4143 88.1 71.4326 88.1C71.4509 88.1 71.4692 88.1 71.4875 88.1C71.5059 88.1 71.5242 88.1 71.5425 88.1C71.5608 88.1 71.5791 88.1 71.5974 88.1C71.6157 88.1 71.634 88.1 71.6522 88.1C71.6705 88.1 71.6888 88.1 71.7071 88.1C71.7254 88.1 71.7436 88.1 71.7619 88.1C71.7802 88.1 71.7984 88.1 71.8167 88.1C71.835 88.1 71.8532 88.1 71.8715 88.1C71.8897 88.1 71.908 88.1 71.9262 88.1C71.9444 88.1 71.9627 88.1 71.9809 88.1C71.9991 88.1 72.0174 88.1 72.0356 88.1C72.0538 88.1 72.072 88.1 72.0902 88.1C72.1085 88.1 72.1267 88.1 72.1449 88.1C72.1631 88.1 72.1813 88.1 72.1995 88.1C72.2177 88.1 72.2358 88.1 72.254 88.1C72.2722 88.1 72.2904 88.1 72.3086 88.1C72.3267 88.1 72.3449 88.1 72.3631 88.1C72.3813 88.1 72.3994 88.1 72.4176 88.1C72.4357 88.1 72.4539 88.1 72.472 88.1C72.4902 88.1 72.5083 88.1 72.5265 88.1C72.5446 88.1 72.5627 88.1 72.5809 88.1C72.599 88.1 72.6171 88.1 72.6353 88.1C72.6534 88.1 72.6715 88.1 72.6896 88.1C72.7077 88.1 72.7258 88.1 72.7439 88.1C72.762 88.1 72.7801 88.1 72.7982 88.1C72.8163 88.1 72.8344 88.1 72.8525 88.1C72.8706 88.1 72.8887 88.1 72.9067 88.1C72.9248 88.1 72.9429 88.1 72.9609 88.1C72.979 88.1 72.9971 88.1 73.0151 88.1C73.0332 88.1 73.0512 88.1 73.0693 88.1C73.0873 88.1 73.1054 88.1 73.1234 88.1C73.1415 88.1 73.1595 88.1 73.1775 88.1C73.1955 88.1 73.2136 88.1 73.2316 88.1C73.2496 88.1 73.2676 88.1 73.2856 88.1C73.3037 88.1 73.3217 88.1 73.3397 88.1C73.3577 88.1 73.3757 88.1 73.3937 88.1C73.4116 88.1 73.4296 88.1 73.4476 88.1C73.4656 88.1 73.4836 88.1 73.5016 88.1C73.5195 88.1 73.5375 88.1 73.5555 88.1C73.5734 88.1 73.5914 88.1 73.6094 88.1C73.6273 88.1 73.6453 88.1 73.6632 88.1C73.6812 88.1 73.6991 88.1 73.717 88.1C73.735 88.1 73.7529 88.1 73.7708 88.1C73.7888 88.1 73.8067 88.1 73.8246 88.1C73.8425 88.1 73.8604 88.1 73.8784 88.1C73.8963 88.1 73.9142 88.1 73.9321 88.1C73.95 88.1 73.9679 88.1 73.9858 88.1C74.0037 88.1 74.0215 88.1 74.0394 88.1C74.0573 88.1 74.0752 88.1 74.0931 88.1C74.1109 88.1 74.1288 88.1 74.1467 88.1C74.1645 88.1 74.1824 88.1 74.2003 88.1C74.2181 88.1 74.236 88.1 74.2538 88.1C74.2717 88.1 74.2895 88.1 74.3073 88.1C74.3252 88.1 74.343 88.1 74.3608 88.1C74.3787 88.1 74.3965 88.1 74.4143 88.1C74.4321 88.1 74.4499 88.1 74.4678 88.1C74.4856 88.1 74.5034 88.1 74.5212 88.1C74.539 88.1 74.5568 88.1 74.5746 88.1C74.5924 88.1 74.6101 88.1 74.6279 88.1C74.6457 88.1 74.6635 88.1 74.6813 88.1C74.699 88.1 74.7168 88.1 74.7346 88.1C74.7523 88.1 74.7701 88.1 74.7878 88.1C74.8056 88.1 74.8233 88.1 74.8411 88.1C74.8588 88.1 74.8766 88.1 74.8943 88.1C74.9121 88.1 74.9298 88.1 74.9475 88.1C74.9652 88.1 74.983 88.1 75.0007 88.1C75.0184 88.1 75.0361 88.1 75.0538 88.1C75.0715 88.1 75.0892 88.1 75.1069 88.1C75.1246 88.1 75.1423 88.1 75.16 88.1C75.1777 88.1 75.1954 88.1 75.2131 88.1C75.2308 88.1 75.2484 88.1 75.2661 88.1C75.2838 88.1 75.3015 88.1 75.3191 88.1C75.3368 88.1 75.3544 88.1 75.3721 88.1C75.3898 88.1 75.4074 88.1 75.425 88.1C75.4427 88.1 75.4603 88.1 75.478 88.1C75.4956 88.1 75.5132 88.1 75.5309 88.1C75.5485 88.1 75.5661 88.1 75.5837 88.1C75.6013 88.1 75.619 88.1 75.6366 88.1C75.6542 88.1 75.6718 88.1 75.6894 88.1C75.707 88.1 75.7246 88.1 75.7422 88.1C75.7598 88.1 75.7773 88.1 75.7949 88.1C75.8125 88.1 75.8301 88.1 75.8477 88.1C75.8652 88.1 75.8828 88.1 75.9004 88.1C75.9179 88.1 75.9355 88.1 75.953 88.1C75.9706 88.1 75.9881 88.1 76.0057 88.1C76.0232 88.1 76.0408 88.1 76.0583 88.1C76.0758 88.1 76.0934 88.1 76.1109 88.1C76.1284 88.1 76.1459 88.1 76.1635 88.1C76.181 88.1 76.1985 88.1 76.216 88.1C76.2335 88.1 76.251 88.1 76.2685 88.1C76.286 88.1 76.3035 88.1 76.321 88.1C76.3385 88.1 76.356 88.1 76.3734 88.1C76.3909 88.1 76.4084 88.1 76.4259 88.1C76.4433 88.1 76.4608 88.1 76.4783 88.1C76.4957 88.1 76.5132 88.1 76.5306 88.1C76.5481 88.1 76.5655 88.1 76.583 88.1C76.6004 88.1 76.6179 88.1 76.6353 88.1C76.6527 88.1 76.6702 88.1 76.6876 88.1C76.705 88.1 76.7224 88.1 76.7399 88.1C76.7573 88.1 76.7747 88.1 76.7921 88.1C76.8095 88.1 76.8269 88.1 76.8443 88.1C76.8617 88.1 76.8791 88.1 76.8965 88.1C76.9139 88.1 76.9313 88.1 76.9486 88.1C76.966 88.1 76.9834 88.1 77.0008 88.1C77.0181 88.1 77.0355 88.1 77.0529 88.1C77.0702 88.1 77.0876 88.1 77.1049 88.1C77.1223 88.1 77.1396 88.1 77.157 88.1C77.1743 88.1 77.1917 88.1 77.209 88.1C77.2263 88.1 77.2436 88.1 77.261 88.1C77.2783 88.1 77.2956 88.1 77.3129 88.1C77.3302 88.1 77.3476 88.1 77.3649 88.1C77.3822 88.1 77.3995 88.1 77.4168 88.1C77.4341 88.1 77.4514 88.1 77.4687 88.1C77.4859 88.1 77.5032 88.1 77.5205 88.1C77.5378 88.1 77.5551 88.1 77.5723 88.1C77.5896 88.1 77.6069 88.1 77.6241 88.1C77.6414 88.1 77.6586 88.1 77.6759 88.1C77.6931 88.1 77.7104 88.1 77.7276 88.1C77.7449 88.1 77.7621 88.1 77.7793 88.1C77.7966 88.1 77.8138 88.1 77.831 88.1C77.8483 88.1 77.8655 88.1 77.8827 88.1C77.8999 88.1 77.9171 88.1 77.9343 88.1C77.9515 88.1 77.9687 88.1 77.9859 88.1C78.0031 88.1 78.0203 88.1 78.0375 88.1C78.0547 88.1 78.0719 88.1 78.0891 88.1C78.1062 88.1 78.1234 88.1 78.1406 88.1C78.1577 88.1 78.1749 88.1 78.1921 88.1C78.2092 88.1 78.2264 88.1 78.2435 88.1C78.2607 88.1 78.2778 88.1 78.295 88.1C78.3121 88.1 78.3293 88.1 78.3464 88.1C78.3635 88.1 78.3806 88.1 78.3978 88.1C78.4149 88.1 78.432 88.1 78.4491 88.1C78.4662 88.1 78.4833 88.1 78.5005 88.1C78.5176 88.1 78.5347 88.1 78.5518 88.1C78.5689 88.1 78.5859 88.1 78.603 88.1C78.6201 88.1 78.6372 88.1 78.6543 88.1C78.6714 88.1 78.6884 88.1 78.7055 88.1C78.7226 88.1 78.7396 88.1 78.7567 88.1C78.7737 88.1 78.7908 88.1 78.8078 88.1C78.8249 88.1 78.8419 88.1 78.859 88.1C78.876 88.1 78.8931 88.1 78.9101 88.1C78.9271 88.1 78.9442 88.1 78.9612 88.1C78.9782 88.1 78.9952 88.1 79.0122 88.1C79.0292 88.1 79.0463 88.1 79.0633 88.1C79.0803 88.1 79.0973 88.1 79.1143 88.1C79.1313 88.1 79.1482 88.1 79.1652 88.1C79.1822 88.1 79.1992 88.1 79.2162 88.1C79.2332 88.1 79.2501 88.1 79.2671 88.1C79.2841 88.1 79.301 88.1 79.318 88.1C79.3349 88.1 79.3519 88.1 79.3688 88.1C79.3858 88.1 79.4027 88.1 79.4197 88.1C79.4366 88.1 79.4536 88.1 79.4705 88.1C79.4874 88.1 79.5043 88.1 79.5213 88.1C79.5382 88.1 79.5551 88.1 79.572 88.1C79.5889 88.1 79.6058 88.1 79.6227 88.1C79.6396 88.1 79.6565 88.1 79.6734 88.1C79.6903 88.1 79.7072 88.1 79.7241 88.1C79.741 88.1 79.7579 88.1 79.7748 88.1C79.7916 88.1 79.8085 88.1 79.8254 88.1C79.8422 88.1 79.8591 88.1 79.876 88.1C79.8928 88.1 79.9097 88.1 79.9265 88.1C79.9434 88.1 79.9602 88.1 79.977 88.1C79.9939 88.1 80.0107 88.1 80.0276 88.1C80.0444 88.1 80.0612 88.1 80.078 88.1C80.0949 88.1 80.1117 88.1 80.1285 88.1C80.1453 88.1 80.1621 88.1 80.1789 88.1C80.1957 88.1 80.2125 88.1 80.2293 88.1C80.2461 88.1 80.2629 88.1 80.2797 88.1C80.2965 88.1 80.3132 88.1 80.33 88.1C80.3468 88.1 80.3636 88.1 80.3803 88.1C80.3971 88.1 80.4138 88.1 80.4306 88.1C80.4474 88.1 80.4641 88.1 80.4809 88.1C80.4976 88.1 80.5144 88.1 80.5311 88.1C80.5478 88.1 80.5646 88.1 80.5813 88.1C80.598 88.1 80.6147 88.1 80.6315 88.1C80.6482 88.1 80.6649 88.1 80.6816 88.1C80.6983 88.1 80.715 88.1 80.7317 88.1C80.7484 88.1 80.7651 88.1 80.7818 88.1C80.7985 88.1 80.8152 88.1 80.8319 88.1C80.8486 88.1 80.8653 88.1 80.8819 88.1C80.8986 88.1 80.9153 88.1 80.9319 88.1C80.9486 88.1 80.9653 88.1 80.9819 88.1C80.9986 88.1 81.0152 88.1 81.0319 88.1C81.0485 88.1 81.0652 88.1 81.0818 88.1C81.0985 88.1 81.1151 88.1 81.1317 88.1C81.1483 88.1 81.165 88.1 81.1816 88.1C81.1982 88.1 81.2148 88.1 81.2314 88.1C81.248 88.1 81.2647 88.1 81.2813 88.1C81.2979 88.1 81.3144 88.1 81.331 88.1C81.3476 88.1 81.3642 88.1 81.3808 88.1C81.3974 88.1 81.414 88.1 81.4305 88.1C81.4471 88.1 81.4637 88.1 81.4803 88.1C81.4968 88.1 81.5134 88.1 81.5299 88.1C81.5465 88.1 81.563 88.1 81.5796 88.1C81.5961 88.1 81.6127 88.1 81.6292 88.1C81.6457 88.1 81.6623 88.1 81.6788 88.1C81.6953 88.1 81.7119 88.1 81.7284 88.1C81.7449 88.1 81.7614 88.1 81.7779 88.1C81.7944 88.1 81.8109 88.1 81.8274 88.1C81.8439 88.1 81.8604 88.1 81.8769 88.1C81.8934 88.1 81.9099 88.1 81.9264 88.1C81.9429 88.1 81.9594 88.1 81.9758 88.1C81.9923 88.1 82.0088 88.1 82.0252 88.1C82.0417 88.1 82.0582 88.1 82.0746 88.1C82.0911 88.1 82.1075 88.1 82.124 88.1C82.1404 88.1 82.1568 88.1 82.1733 88.1C82.1897 88.1 82.2062 88.1 82.2226 88.1C82.239 88.1 82.2554 88.1 82.2719 88.1C82.2883 88.1 82.3047 88.1 82.3211 88.1C82.3375 88.1 82.3539 88.1 82.3703 88.1C82.3867 88.1 82.4031 88.1 82.4195 88.1C82.4359 88.1 82.4523 88.1 82.4687 88.1C82.485 88.1 82.5014 88.1 82.5178 88.1C82.5342 88.1 82.5505 88.1 82.5669 88.1C82.5833 88.1 82.5996 88.1 82.616 88.1C82.6323 88.1 82.6487 88.1 82.665 88.1C82.6814 88.1 82.6977 88.1 82.714 88.1C82.7304 88.1 82.7467 88.1 82.763 88.1C82.7794 88.1 82.7957 88.1 82.812 88.1C82.8283 88.1 82.8446 88.1 82.8609 88.1C82.8772 88.1 82.8936 88.1 82.9099 88.1C82.9262 88.1 82.9424 88.1 82.9587 88.1C82.975 88.1 82.9913 88.1 83.0076 88.1C83.0239 88.1 83.0401 88.1 83.0564 88.1C83.0727 88.1 83.089 88.1 83.1052 88.1C83.1215 88.1 83.1377 88.1 83.154 88.1C83.1703 88.1 83.1865 88.1 83.2027 88.1C83.219 88.1 83.2352 88.1 83.2515 88.1C83.2677 88.1 83.2839 88.1 83.3002 88.1C83.3164 88.1 83.3326 88.1 83.3488 88.1C83.365 88.1 83.3813 88.1 83.3975 88.1C83.4137 88.1 83.4299 88.1 83.4461 88.1C83.4623 88.1 83.4785 88.1 83.4947 88.1C83.5108 88.1 83.527 88.1 83.5432 88.1C83.5594 88.1 83.5756 88.1 83.5917 88.1C83.6079 88.1 83.6241 88.1 83.6402 88.1C83.6564 88.1 83.6726 88.1 83.6887 88.1C83.7049 88.1 83.721 88.1 83.7372 88.1C83.7533 88.1 83.7694 88.1 83.7856 88.1C83.8017 88.1 83.8178 88.1 83.834 88.1C83.8501 88.1 83.8662 88.1 83.8823 88.1C83.8984 88.1 83.9146 88.1 83.9307 88.1C83.9468 88.1 83.9629 88.1 83.979 88.1C83.9951 88.1 84.0112 88.1 84.0272 88.1C84.0433 88.1 84.0594 88.1 84.0755 88.1C84.0916 88.1 84.1077 88.1 84.1237 88.1C84.1398 88.1 84.1559 88.1 84.1719 88.1C84.188 88.1 84.204 88.1 84.2201 88.1C84.2361 88.1 84.2522 88.1 84.2682 88.1C84.2843 88.1 84.3003 88.1 84.3164 88.1C84.3324 88.1 84.3484 88.1 84.3644 88.1C84.3805 88.1 84.3965 88.1 84.4125 88.1V84.1ZM54.2371 85.7871C51.0257 106.059 49.2155 124.849 48.813 142.154L52.812 142.246C53.2095 125.151 54.9993 106.541 58.1879 86.4129L54.2371 85.7871Z" fill="url(#paint1_radial_349_230)" mask="url(#path-3-outside-2_349_230)"/>
<defs>
<filter id="filter0_f_349_230" x="0.0128908" y="47.9001" width="159.799" height="230.3" filterUnits="userSpaceOnUse" color-interpolation-filters="sRGB">
<feFlood flood-opacity="0" result="BackgroundImageFix"/>
<feBlend mode="normal" in="SourceGraphic" in2="BackgroundImageFix" result="shape"/>
<feGaussianBlur stdDeviation="7.85" result="effect1_foregroundBlur_349_230"/>
</filter>
<radialGradient id="paint0_radial_349_230" cx="0" cy="0" r="1" gradientUnits="userSpaceOnUse" gradientTransform="translate(80 92) rotate(90) scale(318 130.196)">
<stop stop-color="#343434" stop-opacity="0.67"/>
<stop offset="0.0001" stop-color="#343434" stop-opacity="0.67"/>
<stop offset="0.525" stop-color="#343434" stop-opacity="0"/>
</radialGradient>
<radialGradient id="paint1_radial_349_230" cx="0" cy="0" r="1" gradientUnits="userSpaceOnUse" gradientTransform="translate(80 152) rotate(90) scale(165 67.5543)">
<stop stop-color="#343434" stop-opacity="0.76"/>
<stop offset="0.86" stop-color="#343434" stop-opacity="0"/>
</radialGradient>
</defs>
</svg>
