<svg width="167" height="276" viewBox="0 0 167 276" fill="none" xmlns="http://www.w3.org/2000/svg">
<g filter="url(#filter0_f_349_235)">
<mask id="path-1-outside-1_349_235" maskUnits="userSpaceOnUse" x="11" y="59" width="145" height="204" fill="black">
<rect fill="white" x="11" y="59" width="145" height="204"/>
<path d="M92.0887 66.3C98.0887 64.3 104.289 63.3 110.689 63.3C117.089 63.3 125.489 63.7 135.889 64.5C133.089 86.7 131.689 110.7 131.689 136.5C131.689 162.3 131.789 178.4 131.989 184.8C141.989 184 147.989 183.3 149.989 182.7C150.789 185.9 151.189 189.9 151.189 194.7C151.189 199.5 150.389 204.3 148.789 209.1C141.589 208.3 136.189 207.8 132.589 207.6C132.989 220.8 133.589 231.8 134.389 240.6L145.189 241.5C145.589 244.7 145.789 247.5 145.789 249.9C145.789 252.1 145.489 254.9 144.889 258.3C137.889 258.1 129.789 258 120.589 258C111.389 258 103.389 258.1 96.5887 258.3C95.9887 255.3 95.6887 252.7 95.6887 250.5C95.6887 248.1 95.8887 245.1 96.2887 241.5L106.789 240.6C107.589 230 108.189 218.7 108.589 206.7C102.389 206.5 88.0887 206.4 65.6887 206.4C43.4887 206.4 27.1887 207 16.7887 208.2C16.1887 206.4 15.8887 202.8 15.8887 197.4C18.8887 192.8 23.7887 185 30.5887 174C37.5887 162.8 42.4887 155 45.2887 150.6C48.0887 146.2 52.1887 139.6 57.5887 130.8C62.9887 121.8 67.2887 114.5 70.4887 108.9C78.8887 93.5 86.0887 79.3 92.0887 66.3ZM48.8887 186.6C56.2887 186.8 64.8887 186.9 74.6887 186.9C84.4887 186.9 95.9887 186.7 109.189 186.3V165.9C109.189 126.5 108.389 99.3 106.789 84.3C92.1887 104.7 72.8887 138.8 48.8887 186.6Z"/>
</mask>
<path d="M92.0887 66.3L90.8238 62.5052L89.182 63.0525L88.4568 64.6237L92.0887 66.3ZM135.889 64.5L139.857 65.0005L140.383 60.8339L136.195 60.5118L135.889 64.5ZM131.989 184.8L127.991 184.925L128.122 189.122L132.308 188.787L131.989 184.8ZM149.989 182.7L153.869 181.73L152.853 177.665L148.839 178.869L149.989 182.7ZM148.789 209.1L148.347 213.076L151.561 213.433L152.583 210.365L148.789 209.1ZM132.589 207.6L132.811 203.606L128.458 203.364L128.591 207.721L132.589 207.6ZM134.389 240.6L130.405 240.962L130.709 244.307L134.056 244.586L134.389 240.6ZM145.189 241.5L149.158 241.004L148.755 237.783L145.521 237.514L145.189 241.5ZM144.889 258.3L144.774 262.298L148.227 262.397L148.828 258.995L144.889 258.3ZM96.5887 258.3L92.6664 259.084L93.329 262.398L96.7063 262.298L96.5887 258.3ZM96.2887 241.5L95.9471 237.515L92.6757 237.795L92.3131 241.058L96.2887 241.5ZM106.789 240.6L107.13 244.585L110.521 244.295L110.777 240.901L106.789 240.6ZM108.589 206.7L112.586 206.833L112.72 202.831L108.718 202.702L108.589 206.7ZM16.7887 208.2L12.9939 209.465L14.0209 212.546L17.2472 212.174L16.7887 208.2ZM15.8887 197.4L12.5382 195.215L11.8887 196.211V197.4H15.8887ZM30.5887 174L27.1967 171.88L27.1915 171.888L27.1863 171.897L30.5887 174ZM45.2887 150.6L48.6633 152.747H48.6633L45.2887 150.6ZM57.5887 130.8L60.998 132.892L61.0084 132.875L61.0186 132.858L57.5887 130.8ZM70.4887 108.9L73.9616 110.885L73.9813 110.85L74.0003 110.815L70.4887 108.9ZM48.8887 186.6L45.314 184.805L42.4905 190.429L48.7806 190.599L48.8887 186.6ZM109.189 186.3L109.31 190.298L113.189 190.181V186.3H109.189ZM106.789 84.3L110.766 83.8757L109.652 73.4268L103.536 81.972L106.789 84.3ZM93.3536 70.0947C98.9408 68.2323 104.713 67.3 110.689 67.3V59.3C103.864 59.3 97.2365 60.3677 90.8238 62.5052L93.3536 70.0947ZM110.689 67.3C116.943 67.3 125.229 67.6918 135.582 68.4882L136.195 60.5118C125.748 59.7081 117.234 59.3 110.689 59.3V67.3ZM131.92 63.9995C129.096 86.3883 127.689 110.557 127.689 136.5H135.689C135.689 110.843 137.081 87.0117 139.857 65.0005L131.92 63.9995ZM127.689 136.5C127.689 162.276 127.788 178.448 127.991 184.925L135.987 184.675C135.789 178.352 135.689 162.324 135.689 136.5H127.689ZM132.308 188.787C137.329 188.386 141.383 188.006 144.452 187.648C147.402 187.304 149.748 186.948 151.138 186.531L148.839 178.869C148.229 179.052 146.575 179.346 143.525 179.702C140.594 180.044 136.648 180.414 131.67 180.813L132.308 188.787ZM146.108 183.67C146.802 186.445 147.189 190.093 147.189 194.7H155.189C155.189 189.707 154.776 185.355 153.869 181.73L146.108 183.67ZM147.189 194.7C147.189 199.047 146.465 203.421 144.994 207.835L152.583 210.365C154.312 205.179 155.189 199.953 155.189 194.7H147.189ZM149.23 205.124C142.015 204.323 136.525 203.813 132.811 203.606L132.367 211.594C135.852 211.787 141.163 212.277 148.347 213.076L149.23 205.124ZM128.591 207.721C128.992 220.967 129.595 232.053 130.405 240.962L138.372 240.238C137.582 231.547 136.985 220.633 136.587 207.479L128.591 207.721ZM134.056 244.586L144.856 245.486L145.521 237.514L134.721 236.614L134.056 244.586ZM141.22 241.996C141.605 245.084 141.789 247.711 141.789 249.9H149.789C149.789 247.289 149.572 244.316 149.158 241.004L141.22 241.996ZM141.789 249.9C141.789 251.775 141.529 254.321 140.95 257.605L148.828 258.995C149.448 255.479 149.789 252.425 149.789 249.9H141.789ZM145.003 254.302C137.955 254.1 129.816 254 120.589 254V262C129.762 262 137.822 262.1 144.774 262.298L145.003 254.302ZM120.589 254C111.362 254 103.321 254.1 96.4711 254.302L96.7063 262.298C103.456 262.1 111.415 262 120.589 262V254ZM100.511 257.516C99.9443 254.682 99.6887 252.357 99.6887 250.5H91.6887C91.6887 253.043 92.0331 255.918 92.6664 259.084L100.511 257.516ZM99.6887 250.5C99.6887 248.302 99.8732 245.461 100.264 241.942L92.3131 241.058C91.9041 244.739 91.6887 247.898 91.6887 250.5H99.6887ZM96.6303 245.485L107.13 244.585L106.447 236.615L95.9471 237.515L96.6303 245.485ZM110.777 240.901C111.582 230.239 112.185 218.882 112.586 206.833L104.591 206.567C104.193 218.518 103.595 229.761 102.8 240.299L110.777 240.901ZM108.718 202.702C102.44 202.5 88.0692 202.4 65.6887 202.4V210.4C88.1082 210.4 102.338 210.5 108.46 210.698L108.718 202.702ZM65.6887 202.4C43.4655 202.4 26.9723 202.998 16.3302 204.226L17.2472 212.174C27.4051 211.002 43.5118 210.4 65.6887 210.4V202.4ZM20.5834 206.935C20.2202 205.846 19.8887 202.89 19.8887 197.4H11.8887C11.8887 202.71 12.1571 206.954 12.9939 209.465L20.5834 206.935ZM19.2391 199.585C22.2681 194.941 27.1906 187.104 33.9911 176.103L27.1863 171.897C20.3868 182.896 15.5092 190.659 12.5382 195.215L19.2391 199.585ZM33.9807 176.12C40.981 164.919 45.8731 157.132 48.6633 152.747L41.914 148.452C39.1043 152.868 34.1964 160.681 27.1967 171.88L33.9807 176.12ZM48.6633 152.747C51.4814 148.319 55.5953 141.696 60.998 132.892L54.1794 128.708C48.7821 137.504 44.6959 144.081 41.914 148.452L48.6633 152.747ZM61.0186 132.858C66.4254 123.847 70.7417 116.52 73.9616 110.885L67.0157 106.915C63.8357 112.48 59.5519 119.753 54.1587 128.742L61.0186 132.858ZM74.0003 110.815C82.4339 95.3537 89.6759 81.0729 95.7205 67.9762L88.4568 64.6237C82.5014 77.5271 75.3434 91.6463 66.9771 106.985L74.0003 110.815ZM48.7806 190.599C56.226 190.8 64.8634 190.9 74.6887 190.9V182.9C64.914 182.9 56.3514 182.8 48.9967 182.601L48.7806 190.599ZM74.6887 190.9C84.5401 190.9 96.0823 190.699 109.31 190.298L109.068 182.302C95.8951 182.701 84.4372 182.9 74.6887 182.9V190.9ZM113.189 186.3V165.9H105.189V186.3H113.189ZM113.189 165.9C113.189 126.513 112.392 99.1145 110.766 83.8757L102.811 84.7242C104.386 99.4854 105.189 126.487 105.189 165.9H113.189ZM103.536 81.972C88.7429 102.642 69.3273 136.979 45.314 184.805L52.4634 188.395C76.4501 140.621 95.6344 106.758 110.041 86.628L103.536 81.972Z" fill="url(#paint0_radial_349_235)" mask="url(#path-1-outside-1_349_235)"/>
</g>
<mask id="path-3-outside-2_349_235" maskUnits="userSpaceOnUse" x="13" y="61" width="141" height="200" fill="black">
<rect fill="white" x="13" y="61" width="141" height="200"/>
<path d="M92.0887 66.3C98.0887 64.3 104.289 63.3 110.689 63.3C117.089 63.3 125.489 63.7 135.889 64.5C133.089 86.7 131.689 110.7 131.689 136.5C131.689 162.3 131.789 178.4 131.989 184.8C141.989 184 147.989 183.3 149.989 182.7C150.789 185.9 151.189 189.9 151.189 194.7C151.189 199.5 150.389 204.3 148.789 209.1C141.589 208.3 136.189 207.8 132.589 207.6C132.989 220.8 133.589 231.8 134.389 240.6L145.189 241.5C145.589 244.7 145.789 247.5 145.789 249.9C145.789 252.1 145.489 254.9 144.889 258.3C137.889 258.1 129.789 258 120.589 258C111.389 258 103.389 258.1 96.5887 258.3C95.9887 255.3 95.6887 252.7 95.6887 250.5C95.6887 248.1 95.8887 245.1 96.2887 241.5L106.789 240.6C107.589 230 108.189 218.7 108.589 206.7C102.389 206.5 88.0887 206.4 65.6887 206.4C43.4887 206.4 27.1887 207 16.7887 208.2C16.1887 206.4 15.8887 202.8 15.8887 197.4C18.8887 192.8 23.7887 185 30.5887 174C37.5887 162.8 42.4887 155 45.2887 150.6C48.0887 146.2 52.1887 139.6 57.5887 130.8C62.9887 121.8 67.2887 114.5 70.4887 108.9C78.8887 93.5 86.0887 79.3 92.0887 66.3ZM48.8887 186.6C56.2887 186.8 64.8887 186.9 74.6887 186.9C84.4887 186.9 95.9887 186.7 109.189 186.3V165.9C109.189 126.5 108.389 99.3 106.789 84.3C92.1887 104.7 72.8887 138.8 48.8887 186.6Z"/>
</mask>
<path d="M92.0887 66.3L91.4562 64.4026L90.6354 64.6762L90.2728 65.4619L92.0887 66.3ZM135.889 64.5L137.873 64.7503L138.136 62.6669L136.042 62.5059L135.889 64.5ZM131.989 184.8L129.99 184.862L130.055 186.961L132.148 186.794L131.989 184.8ZM149.989 182.7L151.929 182.215L151.421 180.182L149.414 180.784L149.989 182.7ZM148.789 209.1L148.568 211.088L150.175 211.266L150.686 209.732L148.789 209.1ZM132.589 207.6L132.7 205.603L130.524 205.482L130.59 207.661L132.589 207.6ZM134.389 240.6L132.397 240.781L132.549 242.454L134.223 242.593L134.389 240.6ZM145.189 241.5L147.173 241.252L146.972 239.642L145.355 239.507L145.189 241.5ZM144.889 258.3L144.832 260.299L146.558 260.349L146.858 258.648L144.889 258.3ZM96.5887 258.3L94.6275 258.692L94.9588 260.349L96.6475 260.299L96.5887 258.3ZM96.2887 241.5L96.1179 239.507L94.4822 239.648L94.3009 241.279L96.2887 241.5ZM106.789 240.6L106.959 242.593L108.655 242.447L108.783 240.751L106.789 240.6ZM108.589 206.7L110.588 206.767L110.654 204.766L108.653 204.701L108.589 206.7ZM16.7887 208.2L14.8913 208.832L15.4048 210.373L17.0179 210.187L16.7887 208.2ZM15.8887 197.4L14.2135 196.307L13.8887 196.805V197.4H15.8887ZM30.5887 174L28.8927 172.94L28.8875 172.948L30.5887 174ZM45.2887 150.6L46.976 151.674H46.976L45.2887 150.6ZM57.5887 130.8L59.2933 131.846L59.2985 131.838L59.3037 131.829L57.5887 130.8ZM70.4887 108.9L72.2252 109.892L72.235 109.875L72.2445 109.858L70.4887 108.9ZM48.8887 186.6L47.1013 185.703L45.6896 188.514L48.8346 188.599L48.8887 186.6ZM109.189 186.3L109.249 188.299L111.189 188.24V186.3H109.189ZM106.789 84.3L108.777 84.0879L108.22 78.8634L105.162 83.136L106.789 84.3ZM92.7211 68.1973C98.5147 66.2662 104.501 65.3 110.689 65.3V61.3C104.076 61.3 97.6626 62.3338 91.4562 64.4026L92.7211 68.1973ZM110.689 65.3C117.016 65.3 125.359 65.6959 135.735 66.4941L136.042 62.5059C125.618 61.7041 117.161 61.3 110.689 61.3V65.3ZM133.904 64.2497C131.092 86.5441 129.689 110.629 129.689 136.5H133.689C133.689 110.771 135.085 86.8558 137.873 64.7503L133.904 64.2497ZM129.689 136.5C129.689 162.288 129.788 178.424 129.99 184.862L133.988 184.738C133.789 178.376 133.689 162.312 133.689 136.5H129.689ZM132.148 186.794C137.159 186.393 141.186 186.016 144.22 185.662C147.195 185.314 149.368 184.974 150.563 184.616L149.414 180.784C148.609 181.026 146.782 181.336 143.757 181.688C140.791 182.034 136.819 182.407 131.829 182.806L132.148 186.794ZM148.048 183.185C148.795 186.172 149.189 189.997 149.189 194.7H153.189C153.189 189.803 152.782 185.628 151.929 182.215L148.048 183.185ZM149.189 194.7C149.189 199.274 148.427 203.86 146.891 208.468L150.686 209.732C152.35 204.74 153.189 199.726 153.189 194.7H149.189ZM149.01 207.112C141.802 206.311 136.357 205.806 132.7 205.603L132.478 209.597C136.021 209.794 141.376 210.289 148.568 211.088L149.01 207.112ZM130.59 207.661C130.99 220.883 131.592 231.927 132.397 240.781L136.38 240.419C135.585 231.673 134.987 220.717 134.588 207.539L130.59 207.661ZM134.223 242.593L145.023 243.493L145.355 239.507L134.555 238.607L134.223 242.593ZM143.204 241.748C143.597 244.892 143.789 247.606 143.789 249.9H147.789C147.789 247.394 147.58 244.508 147.173 241.252L143.204 241.748ZM143.789 249.9C143.789 251.937 143.509 254.61 142.919 257.952L146.858 258.648C147.468 255.19 147.789 252.263 147.789 249.9H143.789ZM144.946 256.301C137.922 256.1 129.802 256 120.589 256V260C129.775 260 137.855 260.1 144.832 260.299L144.946 256.301ZM120.589 256C111.375 256 103.355 256.1 96.5299 256.301L96.6475 260.299C103.422 260.1 111.402 260 120.589 260V256ZM98.5498 257.908C97.9665 254.991 97.6887 252.528 97.6887 250.5H93.6887C93.6887 252.872 94.0109 255.609 94.6275 258.692L98.5498 257.908ZM97.6887 250.5C97.6887 248.201 97.8809 245.28 98.2764 241.721L94.3009 241.279C93.8964 244.92 93.6887 247.999 93.6887 250.5H97.6887ZM96.4595 243.493L106.959 242.593L106.618 238.607L96.1179 239.507L96.4595 243.493ZM108.783 240.751C109.585 230.119 110.187 218.791 110.588 206.767L106.59 206.633C106.191 218.609 105.592 229.881 104.794 240.449L108.783 240.751ZM108.653 204.701C102.414 204.5 88.0789 204.4 65.6887 204.4V208.4C88.0984 208.4 102.363 208.5 108.524 208.699L108.653 204.701ZM65.6887 204.4C43.4771 204.4 27.0805 204.999 16.5594 206.213L17.0179 210.187C27.2969 209.001 43.5002 208.4 65.6887 208.4V204.4ZM18.686 207.568C18.2045 206.123 17.8887 202.845 17.8887 197.4H13.8887C13.8887 202.755 14.1729 206.677 14.8913 208.832L18.686 207.568ZM17.5639 198.493C20.5784 193.87 25.4896 186.052 32.2899 175.052L28.8875 172.948C22.0877 183.948 17.1989 191.73 14.2135 196.307L17.5639 198.493ZM32.2847 175.06C39.2848 163.86 44.1809 156.066 46.976 151.674L43.6014 149.526C40.7965 153.934 35.8925 161.74 28.8927 172.94L32.2847 175.06ZM46.976 151.674C49.7851 147.26 53.892 140.648 59.2933 131.846L55.884 129.754C50.4854 138.552 46.3923 145.14 43.6013 149.526L46.976 151.674ZM59.3037 131.829C64.7071 122.823 69.0152 115.51 72.2252 109.892L68.7522 107.908C65.5622 113.49 61.2703 120.777 55.8737 129.771L59.3037 131.829ZM72.2445 109.858C80.6613 94.4269 87.8823 80.1864 93.9046 67.1381L90.2728 65.4619C84.2951 78.4136 77.1161 92.5731 68.7329 107.942L72.2445 109.858ZM48.8346 188.599C56.2573 188.8 64.876 188.9 74.6887 188.9V184.9C64.9013 184.9 56.32 184.8 48.9427 184.601L48.8346 188.599ZM74.6887 188.9C84.5144 188.9 96.0355 188.699 109.249 188.299L109.128 184.301C95.9419 184.701 84.4629 184.9 74.6887 184.9V188.9ZM111.189 186.3V165.9H107.189V186.3H111.189ZM111.189 165.9C111.189 126.507 110.39 99.2073 108.777 84.0879L104.8 84.5121C106.387 99.3927 107.189 126.493 107.189 165.9H111.189ZM105.162 83.136C90.4658 103.671 71.108 137.889 47.1013 185.703L50.676 187.497C74.6694 139.711 93.9115 105.729 108.415 85.464L105.162 83.136Z" fill="url(#paint1_radial_349_235)" mask="url(#path-3-outside-2_349_235)"/>
<defs>
<filter id="filter0_f_349_235" x="0.188672" y="47.6" width="166.7" height="226.4" filterUnits="userSpaceOnUse" color-interpolation-filters="sRGB">
<feFlood flood-opacity="0" result="BackgroundImageFix"/>
<feBlend mode="normal" in="SourceGraphic" in2="BackgroundImageFix" result="shape"/>
<feGaussianBlur stdDeviation="7.85" result="effect1_foregroundBlur_349_235"/>
</filter>
<radialGradient id="paint0_radial_349_235" cx="0" cy="0" r="1" gradientUnits="userSpaceOnUse" gradientTransform="translate(93 92) rotate(90) scale(318 130.196)">
<stop stop-color="#020EF2"/>
<stop offset="0.5" stop-color="#020EF2" stop-opacity="0"/>
</radialGradient>
<radialGradient id="paint1_radial_349_235" cx="0" cy="0" r="1" gradientUnits="userSpaceOnUse" gradientTransform="translate(93 152) rotate(90) scale(165 67.5543)">
<stop stop-color="#020EF2" stop-opacity="0.87"/>
<stop offset="0.769697" stop-color="#020EF2" stop-opacity="0"/>
</radialGradient>
</defs>
</svg>
