<svg width="126" height="276" viewBox="0 0 126 276" fill="none" xmlns="http://www.w3.org/2000/svg">
<g filter="url(#filter0_f_349_215)">
<mask id="path-1-outside-1_349_215" maskUnits="userSpaceOnUse" x="3" y="59" width="119" height="204" fill="black">
<rect fill="white" x="3" y="59" width="119" height="204"/>
<path d="M70.35 63.6C72.15 63.4 74.35 63.3 76.95 63.3C79.55 63.3 81.95 63.4 84.15 63.6C86.35 63.8 88.25 63.9 89.85 63.9C87.05 85.5 85.65 115.4 85.65 153.6C85.65 191.6 86.45 220.1 88.05 239.1L117.15 241.5C117.55 244.7 117.75 247.5 117.75 249.9C117.75 252.1 117.45 254.9 116.85 258.3C105.05 258.1 90.95 258 74.55 258C58.15 258 44.15 258.1 32.55 258.3C31.95 255.3 31.65 252.7 31.65 250.5C31.65 248.1 31.85 245.1 32.25 241.5L60.75 239.1C62.35 217.7 63.15 191.2 63.15 159.6C63.15 127.8 62.55 105.3 61.35 92.1C38.95 106.9 25.85 116.2 22.05 120C14.25 111.4 9.65 103.4 8.25 96C21.05 90.8 41.75 80 70.35 63.6Z"/>
</mask>
<path d="M70.35 63.6L69.9083 59.6245L69.0817 59.7163L68.3602 60.13L70.35 63.6ZM84.15 63.6L83.7878 67.5836H83.7879L84.15 63.6ZM89.85 63.9L93.8168 64.4142L94.402 59.9H89.85V63.9ZM88.05 239.1L84.0641 239.436L84.3481 242.808L87.7212 243.086L88.05 239.1ZM117.15 241.5L121.119 241.004L120.716 237.781L117.479 237.514L117.15 241.5ZM116.85 258.3L116.782 262.299L120.196 262.357L120.789 258.995L116.85 258.3ZM32.55 258.3L28.6277 259.084L29.2822 262.357L32.619 262.299L32.55 258.3ZM32.25 241.5L31.9143 237.514L28.6376 237.79L28.2745 241.058L32.25 241.5ZM60.75 239.1L61.0857 243.086L64.4846 242.8L64.7389 239.398L60.75 239.1ZM61.35 92.1L65.3336 91.7378L64.7278 85.074L59.145 88.7626L61.35 92.1ZM22.05 120L19.0871 122.687L21.9087 125.798L24.8784 122.828L22.05 120ZM8.25 96L6.74449 92.2941L3.71108 93.5265L4.31972 96.7436L8.25 96ZM70.7918 67.5755C72.3972 67.3971 74.4399 67.3 76.95 67.3V59.3C74.2601 59.3 71.9028 59.4028 69.9083 59.6245L70.7918 67.5755ZM76.95 67.3C79.4496 67.3 81.7271 67.3962 83.7878 67.5836L84.5122 59.6164C82.1729 59.4038 79.6504 59.3 76.95 59.3V67.3ZM83.7879 67.5836C86.0666 67.7907 88.0935 67.9 89.85 67.9V59.9C88.4065 59.9 86.6334 59.8093 84.5121 59.6164L83.7879 67.5836ZM85.8832 63.3858C83.0506 85.2371 81.65 115.335 81.65 153.6H89.65C89.65 115.465 91.0494 85.7629 93.8168 64.4142L85.8832 63.3858ZM81.65 153.6C81.65 191.625 82.4495 220.262 84.0641 239.436L92.0359 238.764C90.4505 219.938 89.65 191.575 89.65 153.6H81.65ZM87.7212 243.086L116.821 245.486L117.479 237.514L88.3788 235.114L87.7212 243.086ZM113.181 241.996C113.567 245.084 113.75 247.711 113.75 249.9H121.75C121.75 247.289 121.533 244.316 121.119 241.004L113.181 241.996ZM113.75 249.9C113.75 251.775 113.49 254.321 112.911 257.605L120.789 258.995C121.41 255.479 121.75 252.425 121.75 249.9H113.75ZM116.918 254.301C105.088 254.1 90.9646 254 74.55 254V262C90.9354 262 105.012 262.1 116.782 262.299L116.918 254.301ZM74.55 254C58.1356 254 44.1112 254.1 32.481 254.301L32.619 262.299C44.1888 262.1 58.1644 262 74.55 262V254ZM36.4723 257.516C35.9056 254.682 35.65 252.357 35.65 250.5H27.65C27.65 253.043 27.9944 255.918 28.6277 259.084L36.4723 257.516ZM35.65 250.5C35.65 248.302 35.8345 245.461 36.2255 241.942L28.2745 241.058C27.8655 244.739 27.65 247.898 27.65 250.5H35.65ZM32.5857 245.486L61.0857 243.086L60.4143 235.114L31.9143 237.514L32.5857 245.486ZM64.7389 239.398C66.3489 217.865 67.15 191.258 67.15 159.6H59.15C59.15 191.142 58.3512 217.535 56.7611 238.802L64.7389 239.398ZM67.15 159.6C67.15 127.799 66.5517 105.137 65.3336 91.7378L57.3664 92.4621C58.5483 105.463 59.15 127.801 59.15 159.6H67.15ZM59.145 88.7626C47.9288 96.1733 39.0119 102.226 32.4095 106.913C25.9054 111.531 21.3993 114.994 19.2216 117.172L24.8784 122.828C26.5007 121.206 30.4446 118.119 37.0405 113.437C43.5381 108.824 52.3712 102.827 63.555 95.4373L59.145 88.7626ZM25.0129 117.313C17.4613 108.987 13.388 101.64 12.1803 95.2564L4.31972 96.7436C5.91203 105.16 11.0387 113.813 19.0871 122.687L25.0129 117.313ZM9.75551 99.7059C22.8308 94.394 43.7381 83.4709 72.3398 67.07L68.3602 60.13C39.7619 76.5291 19.2692 87.206 6.74449 92.2941L9.75551 99.7059Z" fill="url(#paint0_radial_349_215)" mask="url(#path-1-outside-1_349_215)"/>
</g>
<mask id="path-3-outside-2_349_215" maskUnits="userSpaceOnUse" x="5" y="61" width="115" height="200" fill="black">
<rect fill="white" x="5" y="61" width="115" height="200"/>
<path d="M70.35 63.6C72.15 63.4 74.35 63.3 76.95 63.3C79.55 63.3 81.95 63.4 84.15 63.6C86.35 63.8 88.25 63.9 89.85 63.9C87.05 85.5 85.65 115.4 85.65 153.6C85.65 191.6 86.45 220.1 88.05 239.1L117.15 241.5C117.55 244.7 117.75 247.5 117.75 249.9C117.75 252.1 117.45 254.9 116.85 258.3C105.05 258.1 90.95 258 74.55 258C58.15 258 44.15 258.1 32.55 258.3C31.95 255.3 31.65 252.7 31.65 250.5C31.65 248.1 31.85 245.1 32.25 241.5L60.75 239.1C62.35 217.7 63.15 191.2 63.15 159.6C63.15 127.8 62.55 105.3 61.35 92.1C38.95 106.9 25.85 116.2 22.05 120C14.25 111.4 9.65 103.4 8.25 96C21.05 90.8 41.75 80 70.35 63.6Z"/>
</mask>
<path d="M70.35 63.6L70.1291 61.6122L69.7158 61.6582L69.3551 61.865L70.35 63.6ZM84.15 63.6L83.9689 65.5918L83.9689 65.5918L84.15 63.6ZM89.85 63.9L91.8334 64.1571L92.126 61.9H89.85V63.9ZM88.05 239.1L86.0571 239.268L86.1991 240.954L87.8856 241.093L88.05 239.1ZM117.15 241.5L119.135 241.252L118.933 239.64L117.314 239.507L117.15 241.5ZM116.85 258.3L116.816 260.3L118.523 260.329L118.82 258.648L116.85 258.3ZM32.55 258.3L30.5888 258.692L30.9161 260.328L32.5845 260.3L32.55 258.3ZM32.25 241.5L32.0822 239.507L30.4438 239.645L30.2622 241.279L32.25 241.5ZM60.75 239.1L60.9178 241.093L62.6173 240.95L62.7444 239.249L60.75 239.1ZM61.35 92.1L63.3418 91.9189L63.0389 88.587L60.2475 90.4313L61.35 92.1ZM22.05 120L20.5686 121.344L21.9793 122.899L23.4642 121.414L22.05 120ZM8.25 96L7.49725 94.1471L5.98054 94.7632L6.28486 96.3718L8.25 96ZM70.5709 65.5878C72.2736 65.3986 74.395 65.3 76.95 65.3V61.3C74.305 61.3 72.0264 61.4014 70.1291 61.6122L70.5709 65.5878ZM76.95 65.3C79.4998 65.3 81.8385 65.3981 83.9689 65.5918L84.3311 61.6082C82.0615 61.4019 79.6002 61.3 76.95 61.3V65.3ZM83.9689 65.5918C86.2083 65.7954 88.1717 65.9 89.85 65.9V61.9C88.3283 61.9 86.4917 61.8046 84.3311 61.6082L83.9689 65.5918ZM87.8666 63.6429C85.0503 85.3685 83.65 115.368 83.65 153.6H87.65C87.65 115.432 89.0497 85.6314 91.8334 64.1571L87.8666 63.6429ZM83.65 153.6C83.65 191.613 84.4498 220.181 86.0571 239.268L90.0429 238.932C88.4503 220.019 87.65 191.587 87.65 153.6H83.65ZM87.8856 241.093L116.986 243.493L117.314 239.507L88.2144 237.107L87.8856 241.093ZM115.165 241.748C115.558 244.892 115.75 247.606 115.75 249.9H119.75C119.75 247.394 119.542 244.508 119.135 241.252L115.165 241.748ZM115.75 249.9C115.75 251.937 115.47 254.61 114.88 257.952L118.82 258.648C119.43 255.19 119.75 252.263 119.75 249.9H115.75ZM116.884 256.3C105.069 256.1 90.9573 256 74.55 256V260C90.9427 260 105.031 260.1 116.816 260.3L116.884 256.3ZM74.55 256C58.1428 256 44.1306 256.1 32.5155 256.3L32.5845 260.3C44.1694 260.1 58.1572 260 74.55 260V256ZM34.5112 257.908C33.9278 254.991 33.65 252.528 33.65 250.5H29.65C29.65 252.872 29.9722 255.609 30.5888 258.692L34.5112 257.908ZM33.65 250.5C33.65 248.201 33.8423 245.28 34.2378 241.721L30.2622 241.279C29.8577 244.92 29.65 247.999 29.65 250.5H33.65ZM32.4178 243.493L60.9178 241.093L60.5822 237.107L32.0822 239.507L32.4178 243.493ZM62.7444 239.249C64.3494 217.782 65.15 191.229 65.15 159.6H61.15C61.15 191.171 60.3506 217.618 58.7556 238.951L62.7444 239.249ZM65.15 159.6C65.15 127.8 64.5508 105.219 63.3418 91.9189L59.3582 92.2811C60.5492 105.381 61.15 127.8 61.15 159.6H65.15ZM60.2475 90.4313C49.0394 97.8367 40.1434 103.876 33.5672 108.544C27.0402 113.178 22.6747 116.547 20.6358 118.586L23.4642 121.414C25.2253 119.653 29.3098 116.472 35.8828 111.806C42.4066 107.174 51.2606 101.163 62.4525 93.7687L60.2475 90.4313ZM23.5314 118.656C15.8557 110.193 11.519 102.52 10.2151 95.6282L6.28486 96.3718C7.78102 104.28 12.6443 112.607 20.5686 121.344L23.5314 118.656ZM9.00275 97.8529C21.9404 92.597 42.7441 81.7355 71.3449 65.335L69.3551 61.865C40.7559 78.2645 20.1596 89.003 7.49725 94.1471L9.00275 97.8529Z" fill="url(#paint1_radial_349_215)" mask="url(#path-3-outside-2_349_215)"/>
<defs>
<filter id="filter0_f_349_215" x="0.85" y="55.9" width="124.3" height="209.8" filterUnits="userSpaceOnUse" color-interpolation-filters="sRGB">
<feFlood flood-opacity="0" result="BackgroundImageFix"/>
<feBlend mode="normal" in="SourceGraphic" in2="BackgroundImageFix" result="shape"/>
<feGaussianBlur stdDeviation="3.7" result="effect1_foregroundBlur_349_215"/>
</filter>
<radialGradient id="paint0_radial_349_215" cx="0" cy="0" r="1" gradientUnits="userSpaceOnUse" gradientTransform="translate(65 92) rotate(90) scale(318 130.196)">
<stop stop-color="#4EA8FD"/>
<stop offset="0.5" stop-color="#4EA8FD" stop-opacity="0"/>
</radialGradient>
<radialGradient id="paint1_radial_349_215" cx="0" cy="0" r="1" gradientUnits="userSpaceOnUse" gradientTransform="translate(65 152) rotate(90) scale(165 67.5543)">
<stop stop-color="#4EA8FD"/>
<stop offset="0.75" stop-color="#4EA8FD" stop-opacity="0"/>
</radialGradient>
</defs>
</svg>
