<svg width="164" height="279" viewBox="0 0 164 279" fill="none" xmlns="http://www.w3.org/2000/svg">
<g filter="url(#filter0_f_349_220)">
<mask id="path-1-outside-1_349_220" maskUnits="userSpaceOnUse" x="12" y="57" width="140" height="210" fill="black">
<rect fill="white" x="12" y="57" width="140" height="210"/>
<path d="M76.1055 262.5C60.9055 262.5 47.1055 258.8 34.7055 251.4C22.3055 243.8 16.1055 233 16.1055 219C16.1055 207 21.3055 201 31.7055 201C38.3055 201 43.2055 203.1 46.4055 207.3C49.6055 211.3 51.2055 216.2 51.2055 222C51.2055 227.6 50.0055 232.1 47.6055 235.5C53.8055 240.7 63.6055 243.3 77.0055 243.3C90.4055 243.3 101.205 240 109.405 233.4C117.605 226.6 121.705 218.2 121.705 208.2C121.705 198 119.505 189.6 115.105 183C110.905 176.4 104.905 171.8 97.1055 169.2C86.1055 170 77.7055 170.4 71.9055 170.4C66.3055 170.4 61.2055 170.1 56.6055 169.5C55.6055 165.9 55.1055 162.4 55.1055 159C55.1055 155.6 56.1055 152.1 58.1055 148.5C62.7055 149.9 70.2055 150.6 80.6055 150.6C91.2055 150.4 99.7055 147 106.105 140.4C112.705 133.8 116.005 125.4 116.005 115.2C116.005 104.8 112.505 96.2 105.505 89.4C98.5055 82.6 89.4055 79.2 78.2055 79.2C67.2055 79.2 58.5055 82.2 52.1055 88.2C54.9055 91.6 56.3055 96.4 56.3055 102.6C56.3055 108.6 54.6055 113.5 51.2055 117.3C47.8055 121.1 43.0055 123 36.8055 123C26.4055 123 21.2055 117 21.2055 105C21.2055 100.2 21.8055 96.3 23.0055 93.3C31.2055 72.1 49.8055 61.5 78.8055 61.5C98.0055 61.5 113.105 66.2 124.105 75.6C135.305 85 140.905 97.8 140.905 114C140.905 136.2 131.905 151 113.905 158.4C136.505 167 147.805 182.9 147.805 206.1C147.805 224.3 141.605 238.3 129.205 248.1C116.805 257.7 99.1055 262.5 76.1055 262.5Z"/>
</mask>
<path d="M34.7055 251.4L32.6152 254.81L32.6354 254.823L32.6556 254.835L34.7055 251.4ZM46.4055 207.3L43.2237 209.724L43.2524 209.762L43.282 209.799L46.4055 207.3ZM47.6055 235.5L44.3376 233.193L42.2153 236.2L45.035 238.565L47.6055 235.5ZM109.405 233.4L111.914 236.516L111.936 236.498L111.959 236.479L109.405 233.4ZM115.105 183L111.731 185.148L111.754 185.183L111.777 185.219L115.105 183ZM97.1055 169.2L98.3704 165.405L97.6123 165.153L96.8153 165.211L97.1055 169.2ZM56.6055 169.5L52.7514 170.571L53.4606 173.124L56.0881 173.466L56.6055 169.5ZM58.1055 148.5L59.2701 144.673L56.1783 143.732L54.6088 146.557L58.1055 148.5ZM80.6055 150.6V154.6H80.6432L80.6809 154.599L80.6055 150.6ZM106.105 140.4L103.277 137.572L103.255 137.593L103.234 137.615L106.105 140.4ZM105.505 89.4L108.293 86.5309L108.293 86.5309L105.505 89.4ZM52.1055 88.2L49.3697 85.2818L46.6332 87.8473L49.0177 90.7428L52.1055 88.2ZM51.2055 117.3L54.1864 119.967L54.1864 119.967L51.2055 117.3ZM23.0055 93.3L26.7194 94.7856L26.7279 94.7643L26.7361 94.743L23.0055 93.3ZM124.105 75.6L121.507 78.6409L121.52 78.6525L121.534 78.6639L124.105 75.6ZM113.905 158.4L112.385 154.7L103.036 158.544L112.483 162.138L113.905 158.4ZM129.205 248.1L131.654 251.263L131.67 251.251L131.686 251.238L129.205 248.1ZM76.1055 258.5C61.5876 258.5 48.5024 254.976 36.7553 247.965L32.6556 254.835C45.7086 262.624 60.2233 266.5 76.1055 266.5V258.5ZM36.7957 247.99C25.5261 241.082 20.1055 231.544 20.1055 219H12.1055C12.1055 234.456 19.0849 246.518 32.6152 254.81L36.7957 247.99ZM20.1055 219C20.1055 213.487 21.3122 210.1 23.0282 208.12C24.6494 206.249 27.283 205 31.7055 205V197C25.7279 197 20.5615 198.751 16.9827 202.88C13.4988 206.9 12.1055 212.513 12.1055 219H20.1055ZM31.7055 205C37.4022 205 40.9675 206.763 43.2237 209.724L49.5872 204.876C45.4435 199.437 39.2087 197 31.7055 197V205ZM43.282 209.799C45.8402 212.996 47.2055 216.982 47.2055 222H55.2055C55.2055 215.418 53.3708 209.604 49.5289 204.801L43.282 209.799ZM47.2055 222C47.2055 227.055 46.1216 230.666 44.3376 233.193L50.8733 237.807C53.8894 233.534 55.2055 228.145 55.2055 222H47.2055ZM45.035 238.565C52.2965 244.655 63.2359 247.3 77.0055 247.3V239.3C63.975 239.3 55.3144 236.745 50.1759 232.435L45.035 238.565ZM77.0055 247.3C91.0643 247.3 102.828 243.829 111.914 236.516L106.897 230.284C99.5833 236.171 89.7466 239.3 77.0055 239.3V247.3ZM111.959 236.479C121.007 228.976 125.705 219.477 125.705 208.2H117.705C117.705 216.923 114.204 224.224 106.852 230.321L111.959 236.479ZM125.705 208.2C125.705 197.434 123.381 188.203 118.434 180.781L111.777 185.219C115.63 190.997 117.705 198.566 117.705 208.2H125.705ZM118.48 180.852C113.76 173.436 106.994 168.28 98.3704 165.405L95.8406 172.995C102.817 175.32 108.051 179.364 111.731 185.148L118.48 180.852ZM96.8153 165.211C85.8425 166.009 77.5578 166.4 71.9055 166.4V174.4C77.8531 174.4 86.3685 173.991 97.3956 173.189L96.8153 165.211ZM71.9055 166.4C66.4444 166.4 61.5205 166.107 57.1228 165.534L56.0881 173.466C60.8904 174.093 66.1666 174.4 71.9055 174.4V166.4ZM60.4595 168.429C59.5469 165.144 59.1055 162.004 59.1055 159H51.1055C51.1055 162.796 51.664 166.656 52.7514 170.571L60.4595 168.429ZM59.1055 159C59.1055 156.41 59.8629 153.573 61.6021 150.443L54.6088 146.557C52.3481 150.627 51.1055 154.79 51.1055 159H59.1055ZM56.9408 152.327C62.1484 153.912 70.1595 154.6 80.6055 154.6V146.6C70.2514 146.6 63.2625 145.888 59.2701 144.673L56.9408 152.327ZM80.6809 154.599C92.1617 154.383 101.728 150.66 108.977 143.185L103.234 137.615C97.6826 143.34 90.2492 146.417 80.53 146.601L80.6809 154.599ZM108.934 143.228C116.357 135.805 120.005 126.353 120.005 115.2H112.005C112.005 124.447 109.054 131.795 103.277 137.572L108.934 143.228ZM120.005 115.2C120.005 103.798 116.123 94.1374 108.293 86.5309L102.718 92.2691C108.888 98.2626 112.005 105.802 112.005 115.2H120.005ZM108.293 86.5309C100.435 78.8977 90.2803 75.2 78.2055 75.2V83.2C88.5307 83.2 96.576 86.3023 102.718 92.2691L108.293 86.5309ZM78.2055 75.2C66.4588 75.2 56.6868 78.4221 49.3697 85.2818L54.8412 91.1181C60.3241 85.9779 67.9521 83.2 78.2055 83.2V75.2ZM49.0177 90.7428C51.028 93.1839 52.3055 96.9551 52.3055 102.6H60.3055C60.3055 95.8448 58.7829 90.0161 55.1932 85.6572L49.0177 90.7428ZM52.3055 102.6C52.3055 107.8 50.8551 111.693 48.2245 114.633L54.1864 119.967C58.3559 115.307 60.3055 109.4 60.3055 102.6H52.3055ZM48.2245 114.633C45.7446 117.404 42.1341 119 36.8055 119V127C43.8768 127 49.8663 124.796 54.1864 119.967L48.2245 114.633ZM36.8055 119C32.383 119 29.7494 117.751 28.1282 115.88C26.4122 113.9 25.2055 110.513 25.2055 105H17.2055C17.2055 111.487 18.5988 117.1 22.0827 121.12C25.6615 125.249 30.8279 127 36.8055 127V119ZM25.2055 105C25.2055 100.485 25.7768 97.142 26.7194 94.7856L19.2916 91.8144C17.8341 95.458 17.2055 99.9152 17.2055 105H25.2055ZM26.7361 94.743C30.5261 84.9445 36.6375 77.74 45.086 72.9253C53.6058 68.0699 64.7635 65.5 78.8055 65.5V57.5C63.8475 57.5 51.2051 60.2301 41.1249 65.9747C30.9734 71.76 23.6848 80.4555 19.2748 91.857L26.7361 94.743ZM78.8055 65.5C97.3678 65.5 111.439 70.0377 121.507 78.6409L126.704 72.5591C114.772 62.3623 98.6432 57.5 78.8055 57.5V65.5ZM121.534 78.6639C131.724 87.2159 136.905 98.8382 136.905 114H144.905C144.905 96.7618 138.887 82.7841 126.677 72.5361L121.534 78.6639ZM136.905 114C136.905 124.57 134.764 133.051 130.738 139.672C126.735 146.254 120.698 151.283 112.385 154.7L115.426 162.1C125.113 158.117 132.576 152.046 137.573 143.828C142.547 135.649 144.905 125.63 144.905 114H136.905ZM112.483 162.138C123.221 166.225 130.978 171.927 136.07 179.092C141.153 186.245 143.805 195.169 143.805 206.1H151.805C151.805 193.831 148.808 183.205 142.591 174.458C136.383 165.723 127.19 159.175 115.328 154.662L112.483 162.138ZM143.805 206.1C143.805 223.286 138.012 236.041 126.725 244.962L131.686 251.238C145.198 240.559 151.805 225.314 151.805 206.1H143.805ZM126.757 244.937C115.318 253.793 98.6172 258.5 76.1055 258.5V266.5C99.5938 266.5 118.293 261.607 131.654 251.263L126.757 244.937Z" fill="url(#paint0_radial_349_220)" mask="url(#path-1-outside-1_349_220)"/>
</g>
<mask id="path-3-outside-2_349_220" maskUnits="userSpaceOnUse" x="14" y="59" width="136" height="206" fill="black">
<rect fill="white" x="14" y="59" width="136" height="206"/>
<path d="M76.1055 262.5C60.9055 262.5 47.1055 258.8 34.7055 251.4C22.3055 243.8 16.1055 233 16.1055 219C16.1055 207 21.3055 201 31.7055 201C38.3055 201 43.2055 203.1 46.4055 207.3C49.6055 211.3 51.2055 216.2 51.2055 222C51.2055 227.6 50.0055 232.1 47.6055 235.5C53.8055 240.7 63.6055 243.3 77.0055 243.3C90.4055 243.3 101.205 240 109.405 233.4C117.605 226.6 121.705 218.2 121.705 208.2C121.705 198 119.505 189.6 115.105 183C110.905 176.4 104.905 171.8 97.1055 169.2C86.1055 170 77.7055 170.4 71.9055 170.4C66.3055 170.4 61.2055 170.1 56.6055 169.5C55.6055 165.9 55.1055 162.4 55.1055 159C55.1055 155.6 56.1055 152.1 58.1055 148.5C62.7055 149.9 70.2055 150.6 80.6055 150.6C91.2055 150.4 99.7055 147 106.105 140.4C112.705 133.8 116.005 125.4 116.005 115.2C116.005 104.8 112.505 96.2 105.505 89.4C98.5055 82.6 89.4055 79.2 78.2055 79.2C67.2055 79.2 58.5055 82.2 52.1055 88.2C54.9055 91.6 56.3055 96.4 56.3055 102.6C56.3055 108.6 54.6055 113.5 51.2055 117.3C47.8055 121.1 43.0055 123 36.8055 123C26.4055 123 21.2055 117 21.2055 105C21.2055 100.2 21.8055 96.3 23.0055 93.3C31.2055 72.1 49.8055 61.5 78.8055 61.5C98.0055 61.5 113.105 66.2 124.105 75.6C135.305 85 140.905 97.8 140.905 114C140.905 136.2 131.905 151 113.905 158.4C136.505 167 147.805 182.9 147.805 206.1C147.805 224.3 141.605 238.3 129.205 248.1C116.805 257.7 99.1055 262.5 76.1055 262.5Z"/>
</mask>
<path d="M34.7055 251.4L33.6603 253.105L33.6704 253.111L33.6806 253.117L34.7055 251.4ZM46.4055 207.3L44.8146 208.512L44.8289 208.531L44.8437 208.549L46.4055 207.3ZM47.6055 235.5L45.9715 234.347L44.9104 235.85L46.3202 237.032L47.6055 235.5ZM109.405 233.4L110.659 234.958L110.671 234.949L110.682 234.94L109.405 233.4ZM115.105 183L113.418 184.074L113.43 184.092L113.441 184.109L115.105 183ZM97.1055 169.2L97.7379 167.303L97.3589 167.176L96.9604 167.205L97.1055 169.2ZM56.6055 169.5L54.6784 170.035L55.033 171.312L56.3468 171.483L56.6055 169.5ZM58.1055 148.5L58.6878 146.587L57.1419 146.116L56.3572 147.529L58.1055 148.5ZM80.6055 150.6V152.6H80.6243L80.6432 152.6L80.6055 150.6ZM106.105 140.4L104.691 138.986L104.68 138.997L104.67 139.008L106.105 140.4ZM105.505 89.4L106.899 87.9654L105.505 89.4ZM52.1055 88.2L50.7376 86.7409L49.3693 88.0236L50.5616 89.4714L52.1055 88.2ZM51.2055 117.3L52.696 118.634L51.2055 117.3ZM23.0055 93.3L24.8624 94.0428L24.8667 94.0322L24.8708 94.0215L23.0055 93.3ZM124.105 75.6L122.806 77.1205L122.813 77.1262L122.82 77.1319L124.105 75.6ZM113.905 158.4L113.145 156.55L108.471 158.472L113.194 160.269L113.905 158.4ZM129.205 248.1L130.43 249.681L130.438 249.675L130.446 249.669L129.205 248.1ZM76.1055 260.5C61.2465 260.5 47.8039 256.888 35.7304 249.683L33.6806 253.117C46.407 260.712 60.5644 264.5 76.1055 264.5V260.5ZM35.7506 249.695C23.9158 242.441 18.1055 232.272 18.1055 219H14.1055C14.1055 233.728 20.6952 245.159 33.6603 253.105L35.7506 249.695ZM18.1055 219C18.1055 213.244 19.3588 209.3 21.5168 206.81C23.6274 204.375 26.8943 203 31.7055 203V199C26.1167 199 21.5835 200.625 18.4941 204.19C15.4521 207.7 14.1055 212.756 14.1055 219H18.1055ZM31.7055 203C37.8539 203 42.0865 204.931 44.8146 208.512L47.9963 206.088C44.3245 201.269 38.7571 199 31.7055 199V203ZM44.8437 208.549C47.7228 212.148 49.2055 216.591 49.2055 222H53.2055C53.2055 215.809 51.4881 210.452 47.9672 206.051L44.8437 208.549ZM49.2055 222C49.2055 227.327 48.0635 231.383 45.9715 234.347L49.2394 236.653C51.9474 232.817 53.2055 227.873 53.2055 222H49.2055ZM46.3202 237.032C53.051 242.678 63.4207 245.3 77.0055 245.3V241.3C63.7902 241.3 54.5599 238.722 48.8907 233.968L46.3202 237.032ZM77.0055 245.3C90.7349 245.3 102.017 241.915 110.659 234.958L108.151 231.842C100.394 238.085 90.0761 241.3 77.0055 241.3V245.3ZM110.682 234.94C119.306 227.788 123.705 218.838 123.705 208.2H119.705C119.705 217.562 115.905 225.412 108.129 231.86L110.682 234.94ZM123.705 208.2C123.705 197.717 121.443 188.901 116.77 181.891L113.441 184.109C117.568 190.299 119.705 198.283 119.705 208.2H123.705ZM116.793 181.926C112.333 174.918 105.95 170.04 97.7379 167.303L96.473 171.097C103.861 173.56 109.478 177.882 113.418 184.074L116.793 181.926ZM96.9604 167.205C85.974 168.004 77.6316 168.4 71.9055 168.4V172.4C77.7793 172.4 86.237 171.996 97.2505 171.195L96.9604 167.205ZM71.9055 168.4C66.3749 168.4 61.363 168.104 56.8641 167.517L56.3468 171.483C61.048 172.096 66.236 172.4 71.9055 172.4V168.4ZM58.5325 168.965C57.5762 165.522 57.1055 162.202 57.1055 159H53.1055C53.1055 162.598 53.6348 166.278 54.6784 170.035L58.5325 168.965ZM57.1055 159C57.1055 156.005 57.9842 152.837 59.8538 149.471L56.3572 147.529C54.2268 151.363 53.1055 155.195 53.1055 159H57.1055ZM57.5231 150.413C62.4269 151.906 70.1825 152.6 80.6055 152.6V148.6C70.2285 148.6 62.984 147.894 58.6878 146.587L57.5231 150.413ZM80.6432 152.6C91.6836 152.391 100.717 148.83 107.541 141.792L104.67 139.008C98.694 145.17 90.7274 148.409 80.5677 148.6L80.6432 152.6ZM107.52 141.814C114.531 134.802 118.005 125.876 118.005 115.2H114.005C114.005 124.924 110.88 132.798 104.691 138.986L107.52 141.814ZM118.005 115.2C118.005 104.299 114.314 95.1687 106.899 87.9654L104.112 90.8345C110.697 97.2313 114.005 105.301 114.005 115.2H118.005ZM106.899 87.9654C99.4702 80.7488 89.8429 77.2 78.2055 77.2V81.2C88.9681 81.2 97.5407 84.4511 104.112 90.8345L106.899 87.9654ZM78.2055 77.2C66.8321 77.2 57.5961 80.311 50.7376 86.7409L53.4734 89.6591C59.4148 84.089 67.5788 81.2 78.2055 81.2V77.2ZM50.5616 89.4714C52.9668 92.3919 54.3055 96.6776 54.3055 102.6H58.3055C58.3055 96.1224 56.8442 90.808 53.6493 86.9286L50.5616 89.4714ZM54.3055 102.6C54.3055 108.2 52.7303 112.596 49.715 115.966L52.696 118.634C56.4807 114.404 58.3055 109 58.3055 102.6H54.3055ZM49.715 115.966C46.775 119.252 42.5698 121 36.8055 121V125C43.4411 125 48.8359 122.948 52.696 118.634L49.715 115.966ZM36.8055 121C31.9943 121 28.7274 119.625 26.6168 117.19C24.4588 114.7 23.2055 110.756 23.2055 105H19.2055C19.2055 111.244 20.5521 116.3 23.5941 119.81C26.6835 123.375 31.2167 125 36.8055 125V121ZM23.2055 105C23.2055 100.342 23.7911 96.721 24.8624 94.0428L21.1485 92.5572C19.8198 95.879 19.2055 100.058 19.2055 105H23.2055ZM24.8708 94.0215C28.8158 83.8223 35.2215 76.245 44.0957 71.1876C53.0057 66.1099 64.5345 63.5 78.8055 63.5V59.5C64.0765 59.5 51.8053 62.1901 42.1152 67.7124C32.3895 73.255 25.3952 81.5777 21.1401 92.5785L24.8708 94.0215ZM78.8055 63.5C97.6866 63.5 112.272 68.1189 122.806 77.1205L125.405 74.0795C113.939 64.2811 98.3243 59.5 78.8055 59.5V63.5ZM122.82 77.1319C133.515 86.1079 138.905 98.3191 138.905 114H142.905C142.905 97.2809 137.096 83.892 125.391 74.068L122.82 77.1319ZM138.905 114C138.905 124.835 136.71 133.701 132.447 140.711C128.195 147.702 121.802 152.991 113.145 156.55L114.666 160.25C124.009 156.409 131.116 150.598 135.864 142.789C140.601 134.999 142.905 125.365 142.905 114H138.905ZM113.194 160.269C124.213 164.462 132.329 170.376 137.7 177.934C143.067 185.485 145.805 194.835 145.805 206.1H149.805C149.805 194.165 146.894 183.965 140.961 175.616C135.032 167.274 126.198 160.938 114.617 156.531L113.194 160.269ZM145.805 206.1C145.805 223.793 139.809 237.171 127.965 246.531L130.446 249.669C143.402 239.429 149.805 224.807 149.805 206.1H145.805ZM127.981 246.519C116.062 255.746 98.8613 260.5 76.1055 260.5V264.5C99.3496 264.5 117.549 259.654 130.43 249.681L127.981 246.519Z" fill="url(#paint1_radial_349_220)" mask="url(#path-3-outside-2_349_220)"/>
<defs>
<filter id="filter0_f_349_220" x="0.405469" y="45.8" width="163.1" height="232.4" filterUnits="userSpaceOnUse" color-interpolation-filters="sRGB">
<feFlood flood-opacity="0" result="BackgroundImageFix"/>
<feBlend mode="normal" in="SourceGraphic" in2="BackgroundImageFix" result="shape"/>
<feGaussianBlur stdDeviation="7.85" result="effect1_foregroundBlur_349_220"/>
</filter>
<radialGradient id="paint0_radial_349_220" cx="0" cy="0" r="1" gradientUnits="userSpaceOnUse" gradientTransform="translate(84 92) rotate(90) scale(318 130.196)">
<stop offset="0.13" stop-color="#02F296"/>
<stop offset="0.5" stop-color="#02F296" stop-opacity="0"/>
</radialGradient>
<radialGradient id="paint1_radial_349_220" cx="0" cy="0" r="1" gradientUnits="userSpaceOnUse" gradientTransform="translate(84 152) rotate(90) scale(165 67.5543)">
<stop stop-color="#017046"/>
<stop offset="0.769697" stop-color="#017046" stop-opacity="0.03"/>
</radialGradient>
</defs>
</svg>
