<svg width="494" height="162" viewBox="0 0 494 162" fill="none" xmlns="http://www.w3.org/2000/svg">
<g opacity="0.5" filter="url(#filter0_f_484_278)">
<g filter="url(#filter1_f_484_278)">
<mask id="path-1-outside-1_484_278" maskUnits="userSpaceOnUse" x="53" y="28" width="387" height="103" fill="black">
<rect fill="white" x="53" y="28" width="387" height="103"/>
<path d="M116.768 36.784V46.256H92.448V126H80.8V46.256H56.352V36.784H116.768ZM161.698 127.152C155.127 127.152 149.154 125.659 143.778 122.672C138.487 119.685 134.306 115.461 131.234 110C128.247 104.453 126.754 98.0533 126.754 90.8C126.754 83.632 128.29 77.3173 131.362 71.856C134.519 66.3093 138.786 62.0853 144.162 59.184C149.538 56.1973 155.554 54.704 162.21 54.704C168.866 54.704 174.882 56.1973 180.258 59.184C185.634 62.0853 189.858 66.2667 192.93 71.728C196.087 77.1893 197.666 83.5467 197.666 90.8C197.666 98.0533 196.045 104.453 192.802 110C189.645 115.461 185.335 119.685 179.874 122.672C174.413 125.659 168.354 127.152 161.698 127.152ZM161.698 116.912C165.879 116.912 169.805 115.931 173.474 113.968C177.143 112.005 180.087 109.061 182.306 105.136C184.61 101.211 185.762 96.432 185.762 90.8C185.762 85.168 184.653 80.3893 182.434 76.464C180.215 72.5387 177.314 69.6373 173.73 67.76C170.146 65.7973 166.263 64.816 162.082 64.816C157.815 64.816 153.89 65.7973 150.306 67.76C146.807 69.6373 143.991 72.5387 141.858 76.464C139.725 80.3893 138.658 85.168 138.658 90.8C138.658 96.5173 139.682 101.339 141.73 105.264C143.863 109.189 146.679 112.133 150.178 114.096C153.677 115.973 157.517 116.912 161.698 116.912ZM261.621 74.16V84.016H210.549V74.16H261.621ZM279.129 90.672C279.129 83.504 280.58 77.232 283.481 71.856C286.382 66.3947 290.35 62.1707 295.385 59.184C300.505 56.1973 306.222 54.704 312.537 54.704C317.998 54.704 323.076 55.984 327.769 58.544C332.462 61.0187 336.046 64.304 338.521 68.4V31.28H350.297V126H338.521V112.816C336.217 116.997 332.804 120.453 328.281 123.184C323.758 125.829 318.468 127.152 312.409 127.152C306.18 127.152 300.505 125.616 295.385 122.544C290.35 119.472 286.382 115.163 283.481 109.616C280.58 104.069 279.129 97.7547 279.129 90.672ZM338.521 90.8C338.521 85.5093 337.454 80.9013 335.321 76.976C333.188 73.0507 330.286 70.064 326.617 68.016C323.033 65.8827 319.065 64.816 314.713 64.816C310.361 64.816 306.393 65.84 302.809 67.888C299.225 69.936 296.366 72.9227 294.233 76.848C292.1 80.7733 291.033 85.3813 291.033 90.672C291.033 96.048 292.1 100.741 294.233 104.752C296.366 108.677 299.225 111.707 302.809 113.84C306.393 115.888 310.361 116.912 314.713 116.912C319.065 116.912 323.033 115.888 326.617 113.84C330.286 111.707 333.188 108.677 335.321 104.752C337.454 100.741 338.521 96.0907 338.521 90.8ZM400.573 127.152C394.002 127.152 388.029 125.659 382.653 122.672C377.362 119.685 373.181 115.461 370.109 110C367.122 104.453 365.629 98.0533 365.629 90.8C365.629 83.632 367.165 77.3173 370.237 71.856C373.394 66.3093 377.661 62.0853 383.037 59.184C388.413 56.1973 394.429 54.704 401.085 54.704C407.741 54.704 413.757 56.1973 419.133 59.184C424.509 62.0853 428.733 66.2667 431.805 71.728C434.962 77.1893 436.541 83.5467 436.541 90.8C436.541 98.0533 434.92 104.453 431.677 110C428.52 115.461 424.21 119.685 418.749 122.672C413.288 125.659 407.229 127.152 400.573 127.152ZM400.573 116.912C404.754 116.912 408.68 115.931 412.349 113.968C416.018 112.005 418.962 109.061 421.181 105.136C423.485 101.211 424.637 96.432 424.637 90.8C424.637 85.168 423.528 80.3893 421.309 76.464C419.09 72.5387 416.189 69.6373 412.605 67.76C409.021 65.7973 405.138 64.816 400.957 64.816C396.69 64.816 392.765 65.7973 389.181 67.76C385.682 69.6373 382.866 72.5387 380.733 76.464C378.6 80.3893 377.533 85.168 377.533 90.8C377.533 96.5173 378.557 101.339 380.605 105.264C382.738 109.189 385.554 112.133 389.053 114.096C392.552 115.973 396.392 116.912 400.573 116.912Z"/>
</mask>
<path d="M116.768 36.784H119.768V33.784H116.768V36.784ZM116.768 46.256V49.256H119.768V46.256H116.768ZM92.448 46.256V43.256H89.448V46.256H92.448ZM92.448 126V129H95.448V126H92.448ZM80.8 126H77.8V129H80.8V126ZM80.8 46.256H83.8V43.256H80.8V46.256ZM56.352 46.256H53.352V49.256H56.352V46.256ZM56.352 36.784V33.784H53.352V36.784H56.352ZM113.768 36.784V46.256H119.768V36.784H113.768ZM116.768 43.256H92.448V49.256H116.768V43.256ZM89.448 46.256V126H95.448V46.256H89.448ZM92.448 123H80.8V129H92.448V123ZM83.8 126V46.256H77.8V126H83.8ZM80.8 43.256H56.352V49.256H80.8V43.256ZM59.352 46.256V36.784H53.352V46.256H59.352ZM56.352 39.784H116.768V33.784H56.352V39.784ZM143.778 122.672L142.303 125.284L142.312 125.29L142.321 125.294L143.778 122.672ZM131.234 110L128.593 111.422L128.606 111.447L128.619 111.471L131.234 110ZM131.362 71.856L128.755 70.3719L128.751 70.3785L128.747 70.3852L131.362 71.856ZM144.162 59.184L145.587 61.8241L145.603 61.8154L145.619 61.8065L144.162 59.184ZM180.258 59.184L178.801 61.8065L178.817 61.8154L178.833 61.8241L180.258 59.184ZM192.93 71.728L190.315 73.1988L190.324 73.2142L190.333 73.2295L192.93 71.728ZM192.802 110L190.212 108.486L190.208 108.492L190.205 108.498L192.802 110ZM179.874 122.672L181.313 125.304L179.874 122.672ZM182.306 105.136L179.719 103.617L179.706 103.639L179.694 103.66L182.306 105.136ZM173.73 67.76L172.289 70.3913L172.313 70.4046L172.338 70.4175L173.73 67.76ZM150.306 67.76L151.724 70.4035L151.736 70.3974L151.747 70.3913L150.306 67.76ZM141.858 76.464L144.494 77.8965L141.858 76.464ZM141.73 105.264L139.07 106.652L139.082 106.674L139.094 106.697L141.73 105.264ZM150.178 114.096L148.71 116.712L148.735 116.726L148.76 116.739L150.178 114.096ZM161.698 124.152C155.601 124.152 150.135 122.772 145.235 120.05L142.321 125.294C148.173 128.546 154.654 130.152 161.698 130.152V124.152ZM145.253 120.06C140.455 117.351 136.661 113.529 133.849 108.529L128.619 111.471C131.951 117.394 136.52 122.02 142.303 125.284L145.253 120.06ZM133.875 108.578C131.158 103.53 129.754 97.6326 129.754 90.8H123.754C123.754 98.4741 125.337 105.376 128.593 111.422L133.875 108.578ZM129.754 90.8C129.754 84.0721 131.192 78.2778 133.977 73.3268L128.747 70.3852C125.388 76.3568 123.754 83.1919 123.754 90.8H129.754ZM133.969 73.3401C136.862 68.259 140.728 64.4462 145.587 61.8241L142.737 56.5439C136.844 59.7245 132.177 64.3597 128.755 70.3719L133.969 73.3401ZM145.619 61.8065C150.513 59.0875 156.021 57.704 162.21 57.704V51.704C155.087 51.704 148.563 53.3071 142.705 56.5615L145.619 61.8065ZM162.21 57.704C168.399 57.704 173.907 59.0875 178.801 61.8065L181.715 56.5615C175.857 53.3071 169.333 51.704 162.21 51.704V57.704ZM178.833 61.8241C183.697 64.4488 187.514 68.2184 190.315 73.1988L195.545 70.2572C192.202 64.3149 187.571 59.7219 181.683 56.5439L178.833 61.8241ZM190.333 73.2295C193.189 78.1697 194.666 83.9938 194.666 90.8H200.666C200.666 83.0996 198.986 76.2089 195.527 70.2265L190.333 73.2295ZM194.666 90.8C194.666 97.5912 193.153 103.456 190.212 108.486L195.392 111.514C198.936 105.451 200.666 98.5154 200.666 90.8H194.666ZM190.205 108.498C187.319 113.491 183.407 117.321 178.435 120.04L181.313 125.304C187.264 122.05 191.971 117.432 195.399 111.502L190.205 108.498ZM178.435 120.04C173.445 122.769 167.887 124.152 161.698 124.152V130.152C168.821 130.152 175.38 128.549 181.313 125.304L178.435 120.04ZM161.698 119.912C166.37 119.912 170.782 118.81 174.889 116.613L172.059 111.323C168.827 113.051 165.388 113.912 161.698 113.912V119.912ZM174.889 116.613C179.102 114.36 182.443 110.99 184.918 106.612L179.694 103.66C177.731 107.133 175.185 109.651 172.059 111.323L174.889 116.613ZM184.893 106.655C187.525 102.171 188.762 96.8401 188.762 90.8H182.762C182.762 96.0239 181.695 100.25 179.719 103.617L184.893 106.655ZM188.762 90.8C188.762 84.7778 187.575 79.4626 185.046 74.9878L179.822 77.9402C181.73 81.3161 182.762 85.5582 182.762 90.8H188.762ZM185.046 74.9878C182.576 70.619 179.275 67.278 175.122 65.1025L172.338 70.4175C175.353 71.9967 177.854 74.4583 179.822 77.9402L185.046 74.9878ZM175.171 65.1287C171.135 62.9183 166.755 61.816 162.082 61.816V67.816C165.772 67.816 169.157 68.6763 172.289 70.3913L175.171 65.1287ZM162.082 61.816C157.335 61.816 152.911 62.9133 148.865 65.1287L151.747 70.3913C154.869 68.6814 158.296 67.816 162.082 67.816V61.816ZM148.888 65.1165C144.811 67.304 141.599 70.6589 139.222 75.0315L144.494 77.8965C146.384 74.4184 148.804 71.9707 151.724 70.4035L148.888 65.1165ZM139.222 75.0315C136.795 79.4966 135.658 84.7955 135.658 90.8H141.658C141.658 85.5405 142.654 81.2821 144.494 77.8965L139.222 75.0315ZM135.658 90.8C135.658 96.8641 136.743 102.191 139.07 106.652L144.39 103.876C142.621 100.486 141.658 96.1706 141.658 90.8H135.658ZM139.094 106.697C141.466 111.06 144.664 114.442 148.71 116.712L151.646 111.48C148.695 109.824 146.261 107.318 144.366 103.831L139.094 106.697ZM148.76 116.739C152.718 118.863 157.049 119.912 161.698 119.912V113.912C157.984 113.912 154.636 113.083 151.596 111.453L148.76 116.739ZM261.621 74.16H264.621V71.16H261.621V74.16ZM261.621 84.016V87.016H264.621V84.016H261.621ZM210.549 84.016H207.549V87.016H210.549V84.016ZM210.549 74.16V71.16H207.549V74.16H210.549ZM258.621 74.16V84.016H264.621V74.16H258.621ZM261.621 81.016H210.549V87.016H261.621V81.016ZM213.549 84.016V74.16H207.549V84.016H213.549ZM210.549 77.16H261.621V71.16H210.549V77.16ZM283.481 71.856L286.121 73.2808L286.126 73.2721L286.13 73.2635L283.481 71.856ZM295.385 59.184L293.873 56.5927L293.864 56.5982L293.854 56.6038L295.385 59.184ZM327.769 58.544L326.332 61.1777L326.351 61.1878L326.37 61.1977L327.769 58.544ZM338.521 68.4L335.953 69.9513L341.521 79.1669V68.4H338.521ZM338.521 31.28V28.28H335.521V31.28H338.521ZM350.297 31.28H353.297V28.28H350.297V31.28ZM350.297 126V129H353.297V126H350.297ZM338.521 126H335.521V129H338.521V126ZM338.521 112.816H341.521L335.893 111.368L338.521 112.816ZM328.281 123.184L329.796 125.774L329.814 125.763L329.832 125.752L328.281 123.184ZM295.385 122.544L293.822 125.105L293.832 125.111L293.842 125.116L295.385 122.544ZM283.481 109.616L286.139 108.226L283.481 109.616ZM326.617 68.016L325.083 70.5939L325.118 70.6152L325.155 70.6356L326.617 68.016ZM302.809 67.888L301.321 65.2833L302.809 67.888ZM294.233 76.848L296.869 78.2805L294.233 76.848ZM294.233 104.752L291.584 106.161L291.591 106.173L291.597 106.185L294.233 104.752ZM302.809 113.84L301.275 116.418L301.297 116.432L301.321 116.445L302.809 113.84ZM326.617 113.84L328.105 116.445L328.115 116.439L328.125 116.434L326.617 113.84ZM335.321 104.752L337.957 106.185L337.963 106.173L337.97 106.161L335.321 104.752ZM282.129 90.672C282.129 83.915 283.494 78.1488 286.121 73.2808L280.841 70.4312C277.665 76.3152 276.129 83.093 276.129 90.672H282.129ZM286.13 73.2635C288.789 68.2596 292.382 64.4539 296.916 61.7642L293.854 56.6038C288.319 59.8874 283.976 64.5297 280.832 70.4485L286.13 73.2635ZM296.897 61.7753C301.528 59.0739 306.717 57.704 312.537 57.704V51.704C305.727 51.704 299.482 53.3208 293.873 56.5927L296.897 61.7753ZM312.537 57.704C317.508 57.704 322.09 58.8634 326.332 61.1777L329.206 55.9103C324.062 53.1046 318.489 51.704 312.537 51.704V57.704ZM326.37 61.1977C330.635 63.4464 333.791 66.3718 335.953 69.9513L341.089 66.8486C338.302 62.2362 334.29 58.5909 329.168 55.8903L326.37 61.1977ZM341.521 68.4V31.28H335.521V68.4H341.521ZM338.521 34.28H350.297V28.28H338.521V34.28ZM347.297 31.28V126H353.297V31.28H347.297ZM350.297 123H338.521V129H350.297V123ZM341.521 126V112.816H335.521V126H341.521ZM335.893 111.368C333.87 115.04 330.851 118.128 326.73 120.616L329.832 125.752C334.756 122.779 338.564 118.955 341.149 114.264L335.893 111.368ZM326.766 120.594C322.771 122.931 318.02 124.152 312.409 124.152V130.152C318.916 130.152 324.746 128.727 329.796 125.774L326.766 120.594ZM312.409 124.152C306.699 124.152 301.562 122.751 296.928 119.972L293.842 125.116C299.448 128.481 305.661 130.152 312.409 130.152V124.152ZM296.948 119.983C292.406 117.212 288.804 113.321 286.139 108.226L280.823 111.006C283.96 117.005 288.294 121.732 293.822 125.105L296.948 119.983ZM286.139 108.226C283.49 103.162 282.129 97.3347 282.129 90.672H276.129C276.129 98.1746 277.669 104.977 280.823 111.006L286.139 108.226ZM341.521 90.8C341.521 85.1011 340.37 79.9829 337.957 75.5435L332.685 78.4085C334.539 81.8197 335.521 85.9175 335.521 90.8H341.521ZM337.957 75.5435C335.57 71.1523 332.276 67.7388 328.079 65.3964L325.155 70.6356C328.297 72.3892 330.805 74.949 332.685 78.4085L337.957 75.5435ZM328.151 65.4381C324.083 63.0162 319.581 61.816 314.713 61.816V67.816C318.549 67.816 321.983 68.7491 325.083 70.5939L328.151 65.4381ZM314.713 61.816C309.868 61.816 305.383 62.962 301.321 65.2833L304.297 70.4927C307.403 68.718 310.854 67.816 314.713 67.816V61.816ZM301.321 65.2833C297.213 67.6305 293.974 71.0422 291.597 75.4155L296.869 78.2805C298.759 74.8031 301.237 72.2415 304.297 70.4927L301.321 65.2833ZM291.597 75.4155C289.184 79.8549 288.033 84.9731 288.033 90.672H294.033C294.033 85.7895 295.015 81.6917 296.869 78.2805L291.597 75.4155ZM288.033 90.672C288.033 96.4493 289.181 101.643 291.584 106.161L296.882 103.343C295.018 99.8393 294.033 95.6467 294.033 90.672H288.033ZM291.597 106.185C293.969 110.549 297.194 113.989 301.275 116.418L304.343 111.262C301.256 109.424 298.764 106.806 296.869 103.319L291.597 106.185ZM301.321 116.445C305.383 118.766 309.868 119.912 314.713 119.912V113.912C310.854 113.912 307.403 113.01 304.297 111.235L301.321 116.445ZM314.713 119.912C319.558 119.912 324.043 118.766 328.105 116.445L325.129 111.235C322.023 113.01 318.572 113.912 314.713 113.912V119.912ZM328.125 116.434C332.295 114.009 335.575 110.566 337.957 106.185L332.685 103.319C330.8 106.788 328.278 109.404 325.109 111.246L328.125 116.434ZM337.97 106.161C340.369 101.65 341.521 96.5008 341.521 90.8H335.521C335.521 95.6805 334.54 99.8327 332.672 103.343L337.97 106.161ZM382.653 122.672L381.178 125.284L381.187 125.29L381.196 125.294L382.653 122.672ZM370.109 110L367.468 111.422L367.481 111.447L367.494 111.471L370.109 110ZM370.237 71.856L367.63 70.3719L367.626 70.3785L367.622 70.3852L370.237 71.856ZM383.037 59.184L384.462 61.8241L384.478 61.8154L384.494 61.8065L383.037 59.184ZM419.133 59.184L417.676 61.8065L417.692 61.8154L417.708 61.8241L419.133 59.184ZM431.805 71.728L429.19 73.1988L429.199 73.2142L429.208 73.2295L431.805 71.728ZM431.677 110L429.087 108.486L429.083 108.492L429.08 108.498L431.677 110ZM418.749 122.672L420.188 125.304L418.749 122.672ZM421.181 105.136L418.594 103.617L418.581 103.639L418.569 103.66L421.181 105.136ZM412.605 67.76L411.164 70.3913L411.188 70.4046L411.213 70.4175L412.605 67.76ZM389.181 67.76L390.599 70.4035L390.611 70.3974L390.622 70.3913L389.181 67.76ZM380.733 76.464L383.369 77.8965L380.733 76.464ZM380.605 105.264L377.945 106.652L377.957 106.674L377.969 106.697L380.605 105.264ZM389.053 114.096L387.585 116.712L387.61 116.726L387.635 116.739L389.053 114.096ZM400.573 124.152C394.476 124.152 389.01 122.772 384.11 120.05L381.196 125.294C387.048 128.546 393.529 130.152 400.573 130.152V124.152ZM384.128 120.06C379.33 117.351 375.536 113.529 372.724 108.529L367.494 111.471C370.826 117.394 375.395 122.02 381.178 125.284L384.128 120.06ZM372.75 108.578C370.033 103.53 368.629 97.6326 368.629 90.8H362.629C362.629 98.4741 364.212 105.376 367.468 111.422L372.75 108.578ZM368.629 90.8C368.629 84.0721 370.067 78.2778 372.852 73.3268L367.622 70.3852C364.263 76.3568 362.629 83.1919 362.629 90.8H368.629ZM372.844 73.3401C375.737 68.259 379.603 64.4462 384.462 61.8241L381.612 56.5439C375.719 59.7245 371.052 64.3597 367.63 70.3719L372.844 73.3401ZM384.494 61.8065C389.388 59.0875 394.896 57.704 401.085 57.704V51.704C393.962 51.704 387.438 53.3071 381.58 56.5615L384.494 61.8065ZM401.085 57.704C407.274 57.704 412.782 59.0875 417.676 61.8065L420.59 56.5615C414.732 53.3071 408.208 51.704 401.085 51.704V57.704ZM417.708 61.8241C422.572 64.4488 426.389 68.2184 429.19 73.1988L434.42 70.2572C431.077 64.3149 426.446 59.7219 420.558 56.5439L417.708 61.8241ZM429.208 73.2295C432.064 78.1697 433.541 83.9938 433.541 90.8H439.541C439.541 83.0996 437.861 76.2089 434.402 70.2265L429.208 73.2295ZM433.541 90.8C433.541 97.5912 432.028 103.456 429.087 108.486L434.267 111.514C437.811 105.451 439.541 98.5154 439.541 90.8H433.541ZM429.08 108.498C426.194 113.491 422.282 117.321 417.31 120.04L420.188 125.304C426.139 122.05 430.846 117.432 434.274 111.502L429.08 108.498ZM417.31 120.04C412.32 122.769 406.762 124.152 400.573 124.152V130.152C407.696 130.152 414.255 128.549 420.188 125.304L417.31 120.04ZM400.573 119.912C405.245 119.912 409.657 118.81 413.764 116.613L410.934 111.323C407.702 113.051 404.263 113.912 400.573 113.912V119.912ZM413.764 116.613C417.977 114.36 421.318 110.99 423.793 106.612L418.569 103.66C416.606 107.133 414.06 109.651 410.934 111.323L413.764 116.613ZM423.768 106.655C426.4 102.171 427.637 96.8401 427.637 90.8H421.637C421.637 96.0239 420.57 100.25 418.594 103.617L423.768 106.655ZM427.637 90.8C427.637 84.7778 426.45 79.4626 423.921 74.9878L418.697 77.9402C420.605 81.3161 421.637 85.5582 421.637 90.8H427.637ZM423.921 74.9878C421.451 70.619 418.15 67.278 413.997 65.1025L411.213 70.4175C414.228 71.9967 416.729 74.4583 418.697 77.9402L423.921 74.9878ZM414.046 65.1287C410.01 62.9183 405.63 61.816 400.957 61.816V67.816C404.647 67.816 408.032 68.6763 411.164 70.3913L414.046 65.1287ZM400.957 61.816C396.21 61.816 391.786 62.9133 387.74 65.1287L390.622 70.3913C393.744 68.6814 397.171 67.816 400.957 67.816V61.816ZM387.763 65.1165C383.686 67.304 380.474 70.6589 378.097 75.0315L383.369 77.8965C385.259 74.4184 387.679 71.9707 390.599 70.4035L387.763 65.1165ZM378.097 75.0315C375.67 79.4966 374.533 84.7955 374.533 90.8H380.533C380.533 85.5405 381.529 81.2821 383.369 77.8965L378.097 75.0315ZM374.533 90.8C374.533 96.8641 375.618 102.191 377.945 106.652L383.265 103.876C381.496 100.486 380.533 96.1706 380.533 90.8H374.533ZM377.969 106.697C380.341 111.06 383.539 114.442 387.585 116.712L390.521 111.48C387.57 109.824 385.136 107.318 383.241 103.831L377.969 106.697ZM387.635 116.739C391.593 118.863 395.924 119.912 400.573 119.912V113.912C396.859 113.912 393.511 113.083 390.471 111.453L387.635 116.739Z" fill="url(#paint0_radial_484_278)" mask="url(#path-1-outside-1_484_278)"/>
</g>
<mask id="path-3-outside-2_484_278" maskUnits="userSpaceOnUse" x="55" y="29" width="385" height="101" fill="black">
<rect fill="white" x="55" y="29" width="385" height="101"/>
<path d="M117.768 36.784V46.256H93.448V126H81.8V46.256H57.352V36.784H117.768ZM162.698 127.152C156.127 127.152 150.154 125.659 144.778 122.672C139.487 119.685 135.306 115.461 132.234 110C129.247 104.453 127.754 98.0533 127.754 90.8C127.754 83.632 129.29 77.3173 132.362 71.856C135.519 66.3093 139.786 62.0853 145.162 59.184C150.538 56.1973 156.554 54.704 163.21 54.704C169.866 54.704 175.882 56.1973 181.258 59.184C186.634 62.0853 190.858 66.2667 193.93 71.728C197.087 77.1893 198.666 83.5467 198.666 90.8C198.666 98.0533 197.045 104.453 193.802 110C190.645 115.461 186.335 119.685 180.874 122.672C175.413 125.659 169.354 127.152 162.698 127.152ZM162.698 116.912C166.879 116.912 170.805 115.931 174.474 113.968C178.143 112.005 181.087 109.061 183.306 105.136C185.61 101.211 186.762 96.432 186.762 90.8C186.762 85.168 185.653 80.3893 183.434 76.464C181.215 72.5387 178.314 69.6373 174.73 67.76C171.146 65.7973 167.263 64.816 163.082 64.816C158.815 64.816 154.89 65.7973 151.306 67.76C147.807 69.6373 144.991 72.5387 142.858 76.464C140.725 80.3893 139.658 85.168 139.658 90.8C139.658 96.5173 140.682 101.339 142.73 105.264C144.863 109.189 147.679 112.133 151.178 114.096C154.677 115.973 158.517 116.912 162.698 116.912ZM262.621 74.16V84.016H211.549V74.16H262.621ZM280.129 90.672C280.129 83.504 281.58 77.232 284.481 71.856C287.382 66.3947 291.35 62.1707 296.385 59.184C301.505 56.1973 307.222 54.704 313.537 54.704C318.998 54.704 324.076 55.984 328.769 58.544C333.462 61.0187 337.046 64.304 339.521 68.4V31.28H351.297V126H339.521V112.816C337.217 116.997 333.804 120.453 329.281 123.184C324.758 125.829 319.468 127.152 313.409 127.152C307.18 127.152 301.505 125.616 296.385 122.544C291.35 119.472 287.382 115.163 284.481 109.616C281.58 104.069 280.129 97.7547 280.129 90.672ZM339.521 90.8C339.521 85.5093 338.454 80.9013 336.321 76.976C334.188 73.0507 331.286 70.064 327.617 68.016C324.033 65.8827 320.065 64.816 315.713 64.816C311.361 64.816 307.393 65.84 303.809 67.888C300.225 69.936 297.366 72.9227 295.233 76.848C293.1 80.7733 292.033 85.3813 292.033 90.672C292.033 96.048 293.1 100.741 295.233 104.752C297.366 108.677 300.225 111.707 303.809 113.84C307.393 115.888 311.361 116.912 315.713 116.912C320.065 116.912 324.033 115.888 327.617 113.84C331.286 111.707 334.188 108.677 336.321 104.752C338.454 100.741 339.521 96.0907 339.521 90.8ZM401.573 127.152C395.002 127.152 389.029 125.659 383.653 122.672C378.362 119.685 374.181 115.461 371.109 110C368.122 104.453 366.629 98.0533 366.629 90.8C366.629 83.632 368.165 77.3173 371.237 71.856C374.394 66.3093 378.661 62.0853 384.037 59.184C389.413 56.1973 395.429 54.704 402.085 54.704C408.741 54.704 414.757 56.1973 420.133 59.184C425.509 62.0853 429.733 66.2667 432.805 71.728C435.962 77.1893 437.541 83.5467 437.541 90.8C437.541 98.0533 435.92 104.453 432.677 110C429.52 115.461 425.21 119.685 419.749 122.672C414.288 125.659 408.229 127.152 401.573 127.152ZM401.573 116.912C405.754 116.912 409.68 115.931 413.349 113.968C417.018 112.005 419.962 109.061 422.181 105.136C424.485 101.211 425.637 96.432 425.637 90.8C425.637 85.168 424.528 80.3893 422.309 76.464C420.09 72.5387 417.189 69.6373 413.605 67.76C410.021 65.7973 406.138 64.816 401.957 64.816C397.69 64.816 393.765 65.7973 390.181 67.76C386.682 69.6373 383.866 72.5387 381.733 76.464C379.6 80.3893 378.533 85.168 378.533 90.8C378.533 96.5173 379.557 101.339 381.605 105.264C383.738 109.189 386.554 112.133 390.053 114.096C393.552 115.973 397.392 116.912 401.573 116.912Z"/>
</mask>
<path d="M117.768 36.784H119.768V34.784H117.768V36.784ZM117.768 46.256V48.256H119.768V46.256H117.768ZM93.448 46.256V44.256H91.448V46.256H93.448ZM93.448 126V128H95.448V126H93.448ZM81.8 126H79.8V128H81.8V126ZM81.8 46.256H83.8V44.256H81.8V46.256ZM57.352 46.256H55.352V48.256H57.352V46.256ZM57.352 36.784V34.784H55.352V36.784H57.352ZM115.768 36.784V46.256H119.768V36.784H115.768ZM117.768 44.256H93.448V48.256H117.768V44.256ZM91.448 46.256V126H95.448V46.256H91.448ZM93.448 124H81.8V128H93.448V124ZM83.8 126V46.256H79.8V126H83.8ZM81.8 44.256H57.352V48.256H81.8V44.256ZM59.352 46.256V36.784H55.352V46.256H59.352ZM57.352 38.784H117.768V34.784H57.352V38.784ZM144.778 122.672L143.795 124.414L143.807 124.42L144.778 122.672ZM132.234 110L130.473 110.948L130.482 110.964L130.491 110.981L132.234 110ZM132.362 71.856L130.624 70.8666L130.619 70.8755L132.362 71.856ZM145.162 59.184L146.112 60.944L146.123 60.9382L146.133 60.9323L145.162 59.184ZM181.258 59.184L180.287 60.9323L180.297 60.9382L180.308 60.944L181.258 59.184ZM193.93 71.728L192.187 72.7085L192.193 72.7188L192.199 72.729L193.93 71.728ZM193.802 110L192.075 108.991L192.071 108.999L193.802 110ZM180.874 122.672L181.834 124.427L180.874 122.672ZM183.306 105.136L181.581 104.124L181.573 104.138L181.565 104.152L183.306 105.136ZM174.73 67.76L173.769 69.5142L173.786 69.5231L173.802 69.5317L174.73 67.76ZM151.306 67.76L152.252 69.5223L152.259 69.5183L152.267 69.5142L151.306 67.76ZM142.858 76.464L144.615 77.419V77.419L142.858 76.464ZM142.73 105.264L140.957 106.189L140.965 106.204L140.973 106.219L142.73 105.264ZM151.178 114.096L150.199 115.84L150.216 115.849L150.232 115.858L151.178 114.096ZM162.698 125.152C156.443 125.152 150.808 123.734 145.749 120.924L143.807 124.42C149.5 127.583 155.811 129.152 162.698 129.152V125.152ZM145.761 120.93C140.799 118.129 136.876 114.173 133.977 109.019L130.491 110.981C133.736 116.75 138.176 121.242 143.795 124.414L145.761 120.93ZM133.995 109.052C131.188 103.838 129.754 97.7729 129.754 90.8H125.754C125.754 98.3338 127.307 105.069 130.473 110.948L133.995 109.052ZM129.754 90.8C129.754 83.9254 131.225 77.9577 134.105 72.8365L130.619 70.8755C127.355 76.677 125.754 83.3386 125.754 90.8H129.754ZM134.1 72.8454C137.081 67.6091 141.081 63.6592 146.112 60.944L144.212 57.424C138.491 60.5114 133.958 65.0096 130.624 70.8666L134.1 72.8454ZM146.133 60.9323C151.188 58.1241 156.865 56.704 163.21 56.704V52.704C156.243 52.704 149.888 54.2705 144.191 57.4357L146.133 60.9323ZM163.21 56.704C169.555 56.704 175.232 58.1241 180.287 60.9323L182.229 57.4357C176.532 54.2705 170.177 52.704 163.21 52.704V56.704ZM180.308 60.944C185.342 63.6609 189.295 67.5679 192.187 72.7085L195.673 70.7475C192.421 64.9655 187.926 60.5097 182.208 57.424L180.308 60.944ZM192.199 72.729C195.155 77.8429 196.666 83.8447 196.666 90.8H200.666C200.666 83.2486 199.02 76.5357 195.661 70.727L192.199 72.729ZM196.666 90.8C196.666 97.7453 195.117 103.788 192.075 108.991L195.529 111.009C198.972 105.119 200.666 98.3614 200.666 90.8H196.666ZM192.071 108.999C189.094 114.148 185.05 118.109 179.914 120.917L181.834 124.427C187.621 121.262 192.195 116.775 195.533 111.001L192.071 108.999ZM179.914 120.917C174.768 123.732 169.043 125.152 162.698 125.152V129.152C169.665 129.152 176.058 127.585 181.834 124.427L179.914 120.917ZM162.698 118.912C167.207 118.912 171.456 117.85 175.417 115.732L173.531 112.204C170.153 114.011 166.552 114.912 162.698 114.912V118.912ZM175.417 115.732C179.449 113.575 182.658 110.347 185.047 106.12L181.565 104.152C179.517 107.776 176.838 110.436 173.531 112.204L175.417 115.732ZM185.031 106.148C187.553 101.851 188.762 96.7041 188.762 90.8H184.762C184.762 96.1599 183.667 100.57 181.581 104.124L185.031 106.148ZM188.762 90.8C188.762 84.9079 187.601 79.7715 185.175 75.4799L181.693 77.4481C183.705 81.0072 184.762 85.4281 184.762 90.8H188.762ZM185.175 75.4799C182.789 71.2589 179.622 68.0644 175.658 65.9883L173.802 69.5317C177.007 71.2102 179.641 73.8184 181.693 77.4481L185.175 75.4799ZM175.691 66.0058C171.805 63.878 167.591 62.816 163.082 62.816V66.816C166.936 66.816 170.487 67.7167 173.769 69.5142L175.691 66.0058ZM163.082 62.816C158.495 62.816 154.237 63.8746 150.345 66.0058L152.267 69.5142C155.543 67.72 159.136 66.816 163.082 66.816V62.816ZM150.36 65.9977C146.476 68.0817 143.396 71.2855 141.101 75.509L144.615 77.419C146.587 73.7918 149.138 71.1929 152.252 69.5223L150.36 65.9977ZM141.101 75.509C138.772 79.7942 137.658 84.9196 137.658 90.8H141.658C141.658 85.4164 142.677 80.9845 144.615 77.419L141.101 75.509ZM137.658 90.8C137.658 96.7485 138.723 101.907 140.957 106.189L144.503 104.339C142.641 100.77 141.658 96.2862 141.658 90.8H137.658ZM140.973 106.219C143.265 110.437 146.336 113.673 150.199 115.84L152.157 112.352C149.023 110.594 146.462 107.942 144.487 104.309L140.973 106.219ZM150.232 115.858C154.037 117.9 158.205 118.912 162.698 118.912V114.912C158.829 114.912 155.316 114.047 152.124 112.334L150.232 115.858ZM262.621 74.16H264.621V72.16H262.621V74.16ZM262.621 84.016V86.016H264.621V84.016H262.621ZM211.549 84.016H209.549V86.016H211.549V84.016ZM211.549 74.16V72.16H209.549V74.16H211.549ZM260.621 74.16V84.016H264.621V74.16H260.621ZM262.621 82.016H211.549V86.016H262.621V82.016ZM213.549 84.016V74.16H209.549V84.016H213.549ZM211.549 76.16H262.621V72.16H211.549V76.16ZM284.481 71.856L286.241 72.8059L286.247 72.7943L284.481 71.856ZM296.385 59.184L295.377 57.4564L295.371 57.4601L295.365 57.4639L296.385 59.184ZM328.769 58.544L327.811 60.2998L327.824 60.3066L327.836 60.3131L328.769 58.544ZM339.521 68.4L337.809 69.4342L341.521 75.5779V68.4H339.521ZM339.521 31.28V29.28H337.521V31.28H339.521ZM351.297 31.28H353.297V29.28H351.297V31.28ZM351.297 126V128H353.297V126H351.297ZM339.521 126H337.521V128H339.521V126ZM339.521 112.816H341.521L337.769 111.851L339.521 112.816ZM329.281 123.184L330.291 124.91L330.303 124.903L330.315 124.896L329.281 123.184ZM296.385 122.544L295.343 124.251L295.35 124.255L295.356 124.259L296.385 122.544ZM284.481 109.616L286.253 108.689L284.481 109.616ZM327.617 68.016L326.594 69.7346L326.618 69.7488L326.642 69.7624L327.617 68.016ZM303.809 67.888L302.817 66.1515V66.1515L303.809 67.888ZM295.233 76.848L296.99 77.803V77.803L295.233 76.848ZM295.233 104.752L293.467 105.691L293.471 105.699L293.476 105.707L295.233 104.752ZM303.809 113.84L302.786 115.559L302.801 115.568L302.817 115.576L303.809 113.84ZM327.617 113.84L328.609 115.576L328.616 115.573L328.622 115.569L327.617 113.84ZM336.321 104.752L338.078 105.707L338.083 105.699L338.087 105.691L336.321 104.752ZM282.129 90.672C282.129 83.778 283.522 77.8432 286.241 72.8059L282.721 70.9061C279.637 76.6208 278.129 83.23 278.129 90.672H282.129ZM286.247 72.7943C288.987 67.638 292.704 63.6928 297.405 60.9041L295.365 57.4639C289.996 60.6485 285.778 65.1513 282.715 70.9177L286.247 72.7943ZM297.393 60.9116C302.187 58.115 307.552 56.704 313.537 56.704V52.704C306.892 52.704 300.823 54.2796 295.377 57.4564L297.393 60.9116ZM313.537 56.704C318.671 56.704 323.418 57.9036 327.811 60.2998L329.727 56.7882C324.733 54.0644 319.325 52.704 313.537 52.704V56.704ZM327.836 60.3131C332.244 62.6372 335.543 65.6825 337.809 69.4342L341.233 67.3658C338.55 62.9255 334.681 59.4002 329.702 56.7749L327.836 60.3131ZM341.521 68.4V31.28H337.521V68.4H341.521ZM339.521 33.28H351.297V29.28H339.521V33.28ZM349.297 31.28V126H353.297V31.28H349.297ZM351.297 124H339.521V128H351.297V124ZM341.521 126V112.816H337.521V126H341.521ZM337.769 111.851C335.652 115.692 332.502 118.903 328.247 121.472L330.315 124.896C335.105 122.004 338.781 118.302 341.273 113.781L337.769 111.851ZM328.271 121.458C324.1 123.897 319.169 125.152 313.409 125.152V129.152C319.766 129.152 325.417 127.761 330.291 124.91L328.271 121.458ZM313.409 125.152C307.526 125.152 302.209 123.706 297.414 120.829L295.356 124.259C300.801 127.526 306.834 129.152 313.409 129.152V125.152ZM297.427 120.837C292.721 117.965 288.997 113.935 286.253 108.689L282.709 110.543C285.768 116.391 289.98 120.979 295.343 124.251L297.427 120.837ZM286.253 108.689C283.52 103.464 282.129 97.4747 282.129 90.672H278.129C278.129 98.0346 279.639 104.674 282.709 110.543L286.253 108.689ZM341.521 90.8C341.521 85.2372 340.398 80.2891 338.078 76.021L334.564 77.931C336.511 81.5136 337.521 85.7815 337.521 90.8H341.521ZM338.078 76.021C335.776 71.7851 332.613 68.5139 328.592 66.2696L326.642 69.7624C329.96 71.6141 332.599 74.3162 334.564 77.931L338.078 76.021ZM328.64 66.2974C324.733 63.9717 320.409 62.816 315.713 62.816V66.816C319.721 66.816 323.333 67.7936 326.594 69.7346L328.64 66.2974ZM315.713 62.816C311.033 62.816 306.72 63.9213 302.817 66.1515L304.801 69.6245C308.066 67.7586 311.689 66.816 315.713 66.816V62.816ZM302.817 66.1515C298.884 68.399 295.771 71.669 293.476 75.893L296.99 77.803C298.961 74.1763 301.566 71.473 304.801 69.6245L302.817 66.1515ZM293.476 75.893C291.156 80.161 290.033 85.1092 290.033 90.672H294.033C294.033 85.6535 295.043 81.3856 296.99 77.803L293.476 75.893ZM290.033 90.672C290.033 96.3155 291.154 101.343 293.467 105.691L296.999 103.813C295.045 100.14 294.033 95.7805 294.033 90.672H290.033ZM293.476 105.707C295.768 109.925 298.871 113.228 302.786 115.559L304.832 112.121C301.579 110.185 298.965 107.43 296.99 103.797L293.476 105.707ZM302.817 115.576C306.72 117.807 311.033 118.912 315.713 118.912V114.912C311.689 114.912 308.066 113.969 304.801 112.104L302.817 115.576ZM315.713 118.912C320.393 118.912 324.706 117.807 328.609 115.576L326.625 112.104C323.359 113.969 319.737 114.912 315.713 114.912V118.912ZM328.622 115.569C332.625 113.242 335.78 109.937 338.078 105.707L334.564 103.797C332.596 107.418 329.947 110.172 326.612 112.111L328.622 115.569ZM338.087 105.691C340.397 101.347 341.521 96.3641 341.521 90.8H337.521C337.521 95.8172 336.511 100.136 334.555 103.813L338.087 105.691ZM383.653 122.672L382.67 124.414L382.682 124.42L383.653 122.672ZM371.109 110L369.348 110.948L369.357 110.964L369.366 110.981L371.109 110ZM371.237 71.856L369.499 70.8666L369.494 70.8755L371.237 71.856ZM384.037 59.184L384.987 60.944L384.998 60.9382L385.008 60.9323L384.037 59.184ZM420.133 59.184L419.162 60.9323L419.172 60.9382L419.183 60.944L420.133 59.184ZM432.805 71.728L431.062 72.7085L431.068 72.7188L431.074 72.729L432.805 71.728ZM432.677 110L430.95 108.991L430.946 108.999L432.677 110ZM419.749 122.672L420.709 124.427L419.749 122.672ZM422.181 105.136L420.456 104.124L420.448 104.138L420.44 104.152L422.181 105.136ZM413.605 67.76L412.644 69.5142L412.661 69.5231L412.677 69.5317L413.605 67.76ZM390.181 67.76L391.127 69.5223L391.134 69.5183L391.142 69.5142L390.181 67.76ZM381.733 76.464L383.49 77.419V77.419L381.733 76.464ZM381.605 105.264L379.832 106.189L379.84 106.204L379.848 106.219L381.605 105.264ZM390.053 114.096L389.074 115.84L389.091 115.849L389.107 115.858L390.053 114.096ZM401.573 125.152C395.318 125.152 389.683 123.734 384.624 120.924L382.682 124.42C388.375 127.583 394.686 129.152 401.573 129.152V125.152ZM384.636 120.93C379.674 118.129 375.751 114.173 372.852 109.019L369.366 110.981C372.611 116.75 377.051 121.242 382.67 124.414L384.636 120.93ZM372.87 109.052C370.062 103.838 368.629 97.7729 368.629 90.8H364.629C364.629 98.3338 366.182 105.069 369.348 110.948L372.87 109.052ZM368.629 90.8C368.629 83.9254 370.1 77.9577 372.98 72.8365L369.494 70.8755C366.23 76.677 364.629 83.3386 364.629 90.8H368.629ZM372.975 72.8454C375.956 67.6091 379.956 63.6592 384.987 60.944L383.087 57.424C377.366 60.5114 372.833 65.0096 369.499 70.8666L372.975 72.8454ZM385.008 60.9323C390.063 58.1241 395.74 56.704 402.085 56.704V52.704C395.118 52.704 388.763 54.2705 383.066 57.4357L385.008 60.9323ZM402.085 56.704C408.43 56.704 414.107 58.1241 419.162 60.9323L421.104 57.4357C415.407 54.2705 409.052 52.704 402.085 52.704V56.704ZM419.183 60.944C424.217 63.6609 428.17 67.5679 431.062 72.7085L434.548 70.7475C431.296 64.9655 426.801 60.5097 421.083 57.424L419.183 60.944ZM431.074 72.729C434.03 77.8429 435.541 83.8447 435.541 90.8H439.541C439.541 83.2486 437.895 76.5357 434.536 70.727L431.074 72.729ZM435.541 90.8C435.541 97.7453 433.992 103.788 430.95 108.991L434.404 111.009C437.847 105.119 439.541 98.3614 439.541 90.8H435.541ZM430.946 108.999C427.969 114.148 423.925 118.109 418.789 120.917L420.709 124.427C426.496 121.262 431.07 116.775 434.408 111.001L430.946 108.999ZM418.789 120.917C413.643 123.732 407.918 125.152 401.573 125.152V129.152C408.54 129.152 414.933 127.585 420.709 124.427L418.789 120.917ZM401.573 118.912C406.082 118.912 410.331 117.85 414.292 115.732L412.406 112.204C409.028 114.011 405.427 114.912 401.573 114.912V118.912ZM414.292 115.732C418.324 113.575 421.533 110.347 423.922 106.12L420.44 104.152C418.392 107.776 415.713 110.436 412.406 112.204L414.292 115.732ZM423.906 106.148C426.428 101.851 427.637 96.7041 427.637 90.8H423.637C423.637 96.1599 422.542 100.57 420.456 104.124L423.906 106.148ZM427.637 90.8C427.637 84.9079 426.476 79.7715 424.05 75.4799L420.568 77.4481C422.58 81.0072 423.637 85.4281 423.637 90.8H427.637ZM424.05 75.4799C421.664 71.2589 418.496 68.0644 414.533 65.9883L412.677 69.5317C415.882 71.2102 418.516 73.8184 420.568 77.4481L424.05 75.4799ZM414.566 66.0058C410.68 63.878 406.466 62.816 401.957 62.816V66.816C405.811 66.816 409.362 67.7167 412.644 69.5142L414.566 66.0058ZM401.957 62.816C397.37 62.816 393.112 63.8746 389.22 66.0058L391.142 69.5142C394.418 67.72 398.011 66.816 401.957 66.816V62.816ZM389.235 65.9977C385.351 68.0817 382.271 71.2855 379.976 75.509L383.49 77.419C385.462 73.7918 388.013 71.1929 391.127 69.5223L389.235 65.9977ZM379.976 75.509C377.647 79.7942 376.533 84.9196 376.533 90.8H380.533C380.533 85.4164 381.552 80.9845 383.49 77.419L379.976 75.509ZM376.533 90.8C376.533 96.7485 377.598 101.907 379.832 106.189L383.378 104.339C381.516 100.77 380.533 96.2862 380.533 90.8H376.533ZM379.848 106.219C382.14 110.437 385.211 113.673 389.074 115.84L391.031 112.352C387.898 110.594 385.337 107.942 383.362 104.309L379.848 106.219ZM389.107 115.858C392.912 117.9 397.08 118.912 401.573 118.912V114.912C397.704 114.912 394.191 114.047 390.999 112.334L389.107 115.858Z" fill="url(#paint1_radial_484_278)" mask="url(#path-3-outside-2_484_278)"/>
</g>
<defs>
<filter id="filter0_f_484_278" x="-2" y="-2" width="498" height="166" filterUnits="userSpaceOnUse" color-interpolation-filters="sRGB">
<feFlood flood-opacity="0" result="BackgroundImageFix"/>
<feBlend mode="normal" in="SourceGraphic" in2="BackgroundImageFix" result="shape"/>
<feGaussianBlur stdDeviation="1" result="effect1_foregroundBlur_484_278"/>
</filter>
<filter id="filter1_f_484_278" x="41.3516" y="16.2798" width="410.189" height="125.872" filterUnits="userSpaceOnUse" color-interpolation-filters="sRGB">
<feFlood flood-opacity="0" result="BackgroundImageFix"/>
<feBlend mode="normal" in="SourceGraphic" in2="BackgroundImageFix" result="shape"/>
<feGaussianBlur stdDeviation="7.5" result="effect1_foregroundBlur_484_278"/>
</filter>
<radialGradient id="paint0_radial_484_278" cx="0" cy="0" r="1" gradientUnits="userSpaceOnUse" gradientTransform="translate(249.186 54) rotate(90) scale(186.652 569.174)">
<stop stop-color="#02F296"/>
<stop offset="0.455" stop-color="#02F296" stop-opacity="0"/>
</radialGradient>
<radialGradient id="paint1_radial_484_278" cx="0" cy="0" r="1" gradientUnits="userSpaceOnUse" gradientTransform="translate(250.106 87.5942) rotate(90) scale(77.7174 284.565)">
<stop stop-color="#02F296" stop-opacity="0.87"/>
<stop offset="0.845" stop-color="#02F296" stop-opacity="0"/>
</radialGradient>
</defs>
</svg>
