<svg width="164" height="277" viewBox="0 0 164 277" fill="none" xmlns="http://www.w3.org/2000/svg">
<g filter="url(#filter0_f_349_225)">
<mask id="path-1-outside-1_349_225" maskUnits="userSpaceOnUse" x="12" y="57" width="140" height="209" fill="black">
<rect fill="white" x="12" y="57" width="140" height="209"/>
<path d="M22.2871 98.1C25.2871 86.9 31.6871 78 41.4871 71.4C51.4871 64.8 64.6871 61.5 81.0871 61.5C97.6871 61.5 111.787 66.1 123.387 75.3C134.987 84.3 140.787 97.2 140.787 114C140.787 123.8 137.387 134.5 130.587 146.1C123.987 157.5 116.487 167.6 108.087 176.4C78.8871 207 60.6871 227.3 53.4871 237.3C60.0871 237.5 69.6871 237.6 82.2871 237.6C94.8871 237.6 109.787 236.9 126.987 235.5L127.887 213.3C131.287 212.7 134.287 212.4 136.887 212.4C139.687 212.4 142.287 212.5 144.687 212.7C145.287 229.1 146.187 244.3 147.387 258.3L145.887 259.8C130.487 258 113.787 257.1 95.7871 257.1C77.9871 257.1 61.4871 257.6 46.2871 258.6C31.2871 259.6 21.6871 260.5 17.4871 261.3C16.6871 258.9 16.2871 255.4 16.2871 250.8C25.2871 234.6 41.0871 214.9 63.6871 191.7C72.0871 183.1 80.1871 174.4 87.9871 165.6C105.587 146.4 114.387 129.5 114.387 114.9C114.387 106.1 111.687 98 106.287 90.6C100.887 83 91.9871 79.2 79.5871 79.2C67.1871 79.2 57.1871 83.3 49.5871 91.5C51.9871 94.5 53.1871 98.7 53.1871 104.1C53.1871 109.3 51.6871 113.8 48.6871 117.6C45.8871 121.2 41.4871 123 35.4871 123C26.0871 123 21.3871 117.6 21.3871 106.8C21.3871 102.8 21.6871 99.9 22.2871 98.1Z"/>
</mask>
<path d="M22.2871 98.1L26.0818 99.3649L26.1198 99.2509L26.1509 99.1349L22.2871 98.1ZM41.4871 71.4L39.2837 68.0616L39.2682 68.0718L39.2527 68.0822L41.4871 71.4ZM123.387 75.3L120.902 78.434L120.918 78.4473L120.935 78.4603L123.387 75.3ZM130.587 146.1L127.136 144.077L127.131 144.086L127.125 144.096L130.587 146.1ZM108.087 176.4L105.194 173.638L105.193 173.639L108.087 176.4ZM53.4871 237.3L50.241 234.963L45.8436 241.07L53.366 241.298L53.4871 237.3ZM126.987 235.5L127.312 239.487L130.84 239.2L130.984 235.662L126.987 235.5ZM127.887 213.3L127.192 209.361L124.021 209.92L123.89 213.138L127.887 213.3ZM144.687 212.7L148.684 212.554L148.555 209.008L145.019 208.714L144.687 212.7ZM147.387 258.3L150.216 261.128L151.531 259.813L151.373 257.958L147.387 258.3ZM145.887 259.8L145.423 263.773L147.346 263.998L148.716 262.628L145.887 259.8ZM46.2871 258.6L46.0245 254.609L46.021 254.609L46.2871 258.6ZM17.4871 261.3L13.6924 262.565L14.7987 265.884L18.2356 265.229L17.4871 261.3ZM16.2871 250.8L12.7905 248.857L12.2871 249.763V250.8H16.2871ZM63.6871 191.7L60.8256 188.905L60.8219 188.909L63.6871 191.7ZM87.9871 165.6L85.0385 162.897L85.0159 162.922L84.9937 162.947L87.9871 165.6ZM106.287 90.6L103.026 92.9168L103.041 92.9374L103.056 92.9579L106.287 90.6ZM49.5871 91.5L46.6534 88.7809L44.3111 91.3081L46.4636 93.9988L49.5871 91.5ZM48.6871 117.6L45.5476 115.121L45.5386 115.133L45.5297 115.144L48.6871 117.6ZM26.1509 99.1349C28.8959 88.8869 34.7056 80.7897 43.7215 74.7177L39.2527 68.0822C28.6686 75.2103 21.6783 84.9131 18.4233 97.065L26.1509 99.1349ZM43.6905 74.7384C52.8365 68.702 65.1903 65.5 81.0871 65.5V57.5C64.1839 57.5 50.1377 60.8979 39.2837 68.0616L43.6905 74.7384ZM81.0871 65.5C96.9002 65.5 110.094 69.8626 120.902 78.434L125.873 72.166C113.48 62.3373 98.474 57.5 81.0871 57.5V65.5ZM120.935 78.4603C131.409 86.5868 136.787 98.2339 136.787 114H144.787C144.787 96.1661 138.565 82.0132 125.839 72.1396L120.935 78.4603ZM136.787 114C136.787 122.872 133.705 132.872 127.136 144.077L134.038 148.123C141.069 136.128 144.787 124.728 144.787 114H136.787ZM127.125 144.096C120.671 155.244 113.358 165.085 105.194 173.638L110.981 179.162C119.617 170.115 127.303 159.756 134.049 148.104L127.125 144.096ZM105.193 173.639C76.0444 204.185 57.6344 224.694 50.241 234.963L56.7333 239.637C63.7398 229.906 81.7298 209.815 110.981 179.161L105.193 173.639ZM53.366 241.298C60.0276 241.5 69.6759 241.6 82.2871 241.6V233.6C69.6983 233.6 60.1466 233.5 53.6083 233.302L53.366 241.298ZM82.2871 241.6C95.0266 241.6 110.04 240.893 127.312 239.487L126.663 231.513C109.534 232.907 94.7476 233.6 82.2871 233.6V241.6ZM130.984 235.662L131.884 213.462L123.89 213.138L122.99 235.338L130.984 235.662ZM128.582 217.239C131.822 216.667 134.582 216.4 136.887 216.4V208.4C133.993 208.4 130.752 208.733 127.192 209.361L128.582 217.239ZM136.887 216.4C139.594 216.4 142.081 216.497 144.355 216.686L145.019 208.714C142.493 208.503 139.781 208.4 136.887 208.4V216.4ZM140.69 212.846C141.292 229.301 142.195 244.567 143.402 258.642L151.373 257.958C150.179 244.033 149.282 228.899 148.684 212.554L140.69 212.846ZM144.559 255.472L143.059 256.972L148.716 262.628L150.216 261.128L144.559 255.472ZM146.351 255.827C130.775 254.006 113.918 253.1 95.7871 253.1V261.1C113.656 261.1 130.199 261.994 145.423 263.773L146.351 255.827ZM95.7871 253.1C77.9137 253.1 61.325 253.602 46.0245 254.609L46.5497 262.591C61.6492 261.598 78.0606 261.1 95.7871 261.1V253.1ZM46.021 254.609C31.0903 255.604 21.2265 256.516 16.7387 257.371L18.2356 265.229C22.1477 264.484 31.4839 263.596 46.5532 262.591L46.021 254.609ZM21.2818 260.035C20.6865 258.249 20.2871 255.261 20.2871 250.8H12.2871C12.2871 255.539 12.6877 259.551 13.6924 262.565L21.2818 260.035ZM19.7837 252.743C28.5299 237 44.0447 217.596 66.5523 194.491L60.8219 188.909C38.1295 212.204 22.0443 232.2 12.7905 248.857L19.7837 252.743ZM66.5486 194.495C74.9927 185.85 83.1367 177.103 90.9805 168.253L84.9937 162.947C77.2375 171.697 69.1815 180.35 60.8256 188.905L66.5486 194.495ZM90.9357 168.303C108.732 148.889 118.387 131.036 118.387 114.9H110.387C110.387 127.964 102.442 143.911 85.0385 162.897L90.9357 168.303ZM118.387 114.9C118.387 105.216 115.396 96.2968 109.518 88.2421L103.056 92.9579C107.978 99.7032 110.387 106.984 110.387 114.9H118.387ZM109.548 88.2832C103.162 79.2957 92.8138 75.2 79.5871 75.2V83.2C91.1604 83.2 98.6122 86.7043 103.026 92.9168L109.548 88.2832ZM79.5871 75.2C66.2083 75.2 55.0974 79.6703 46.6534 88.7809L52.5208 94.2191C59.2769 86.9297 68.1659 83.2 79.5871 83.2V75.2ZM46.4636 93.9988C48.1053 96.0509 49.1871 99.2465 49.1871 104.1H57.1871C57.1871 98.1535 55.8689 92.9491 52.7106 89.0012L46.4636 93.9988ZM49.1871 104.1C49.1871 108.472 47.9477 112.081 45.5476 115.121L51.8266 120.079C55.4266 115.519 57.1871 110.128 57.1871 104.1H49.1871ZM45.5297 115.144C43.7135 117.479 40.6745 119 35.4871 119V127C42.2997 127 48.0608 124.921 51.8445 120.056L45.5297 115.144ZM35.4871 119C31.5594 119 29.299 117.898 27.9293 116.324C26.4673 114.644 25.3871 111.709 25.3871 106.8H17.3871C17.3871 112.691 18.6569 117.856 21.8949 121.576C25.2252 125.402 30.0148 127 35.4871 127V119ZM25.3871 106.8C25.3871 102.862 25.6989 100.514 26.0818 99.3649L18.4924 96.8351C17.6753 99.2863 17.3871 102.738 17.3871 106.8H25.3871Z" fill="url(#paint0_radial_349_225)" mask="url(#path-1-outside-1_349_225)"/>
</g>
<mask id="path-3-outside-2_349_225" maskUnits="userSpaceOnUse" x="14" y="59" width="136" height="205" fill="black">
<rect fill="white" x="14" y="59" width="136" height="205"/>
<path d="M22.2871 98.1C25.2871 86.9 31.6871 78 41.4871 71.4C51.4871 64.8 64.6871 61.5 81.0871 61.5C97.6871 61.5 111.787 66.1 123.387 75.3C134.987 84.3 140.787 97.2 140.787 114C140.787 123.8 137.387 134.5 130.587 146.1C123.987 157.5 116.487 167.6 108.087 176.4C78.8871 207 60.6871 227.3 53.4871 237.3C60.0871 237.5 69.6871 237.6 82.2871 237.6C94.8871 237.6 109.787 236.9 126.987 235.5L127.887 213.3C131.287 212.7 134.287 212.4 136.887 212.4C139.687 212.4 142.287 212.5 144.687 212.7C145.287 229.1 146.187 244.3 147.387 258.3L145.887 259.8C130.487 258 113.787 257.1 95.7871 257.1C77.9871 257.1 61.4871 257.6 46.2871 258.6C31.2871 259.6 21.6871 260.5 17.4871 261.3C16.6871 258.9 16.2871 255.4 16.2871 250.8C25.2871 234.6 41.0871 214.9 63.6871 191.7C72.0871 183.1 80.1871 174.4 87.9871 165.6C105.587 146.4 114.387 129.5 114.387 114.9C114.387 106.1 111.687 98 106.287 90.6C100.887 83 91.9871 79.2 79.5871 79.2C67.1871 79.2 57.1871 83.3 49.5871 91.5C51.9871 94.5 53.1871 98.7 53.1871 104.1C53.1871 109.3 51.6871 113.8 48.6871 117.6C45.8871 121.2 41.4871 123 35.4871 123C26.0871 123 21.3871 117.6 21.3871 106.8C21.3871 102.8 21.6871 99.9 22.2871 98.1Z"/>
</mask>
<path d="M22.2871 98.1L24.1845 98.7324L24.2035 98.6755L24.219 98.6175L22.2871 98.1ZM41.4871 71.4L40.3854 69.7308L40.3776 69.7359L40.3699 69.7411L41.4871 71.4ZM123.387 75.3L122.144 76.867L122.153 76.8736L122.161 76.8802L123.387 75.3ZM130.587 146.1L128.862 145.089L128.856 145.098L130.587 146.1ZM108.087 176.4L106.64 175.019L106.64 175.019L108.087 176.4ZM53.4871 237.3L51.864 236.131L49.6654 239.185L53.4265 239.299L53.4871 237.3ZM126.987 235.5L127.149 237.493L128.914 237.35L128.985 235.581L126.987 235.5ZM127.887 213.3L127.54 211.33L125.954 211.61L125.889 213.219L127.887 213.3ZM144.687 212.7L146.686 212.627L146.621 210.854L144.853 210.707L144.687 212.7ZM147.387 258.3L148.801 259.714L149.459 259.056L149.38 258.129L147.387 258.3ZM145.887 259.8L145.655 261.786L146.617 261.899L147.301 261.214L145.887 259.8ZM46.2871 258.6L46.1558 256.604L46.1541 256.604L46.2871 258.6ZM17.4871 261.3L15.5897 261.932L16.1429 263.592L17.8613 263.265L17.4871 261.3ZM16.2871 250.8L14.5388 249.829L14.2871 250.282V250.8H16.2871ZM63.6871 191.7L62.2564 190.303L62.2545 190.304L63.6871 191.7ZM87.9871 165.6L86.5128 164.249L86.5015 164.261L86.4904 164.273L87.9871 165.6ZM106.287 90.6L104.657 91.7584L104.664 91.7687L104.672 91.7789L106.287 90.6ZM49.5871 91.5L48.1202 90.1405L46.9491 91.4041L48.0254 92.7494L49.5871 91.5ZM48.6871 117.6L47.1173 116.361L47.1129 116.366L47.1084 116.372L48.6871 117.6ZM24.219 98.6175C27.0915 87.8934 33.1964 79.3948 42.6043 73.0589L40.3699 69.7411C30.1779 76.6051 23.4827 85.9065 20.3552 97.5825L24.219 98.6175ZM42.5888 73.0692C52.1618 66.751 64.9387 63.5 81.0871 63.5V59.5C64.4355 59.5 50.8124 62.849 40.3854 69.7308L42.5888 73.0692ZM81.0871 63.5C97.2937 63.5 110.941 67.9813 122.144 76.867L124.63 73.733C112.634 64.2187 98.0805 59.5 81.0871 59.5V63.5ZM122.161 76.8802C133.198 85.4434 138.787 97.7169 138.787 114H142.787C142.787 96.6831 136.776 83.1566 124.613 73.7198L122.161 76.8802ZM138.787 114C138.787 123.336 135.546 133.686 128.862 145.089L132.313 147.111C139.228 135.314 142.787 124.264 142.787 114H138.787ZM128.856 145.098C122.329 156.372 114.922 166.343 106.64 175.019L109.534 177.781C118.052 168.857 125.645 158.628 132.318 147.102L128.856 145.098ZM106.64 175.019C77.4658 205.592 59.1608 225.997 51.864 236.131L55.1102 238.469C62.2135 228.603 80.3085 208.408 109.534 177.781L106.64 175.019ZM53.4265 239.299C60.0574 239.5 69.6815 239.6 82.2871 239.6V235.6C69.6927 235.6 60.1169 235.5 53.5477 235.301L53.4265 239.299ZM82.2871 239.6C94.9569 239.6 109.914 238.896 127.149 237.493L126.825 233.507C109.661 234.904 94.8174 235.6 82.2871 235.6V239.6ZM128.985 235.581L129.885 213.381L125.889 213.219L124.989 235.419L128.985 235.581ZM128.235 215.27C131.555 214.684 134.434 214.4 136.887 214.4V210.4C134.14 210.4 131.019 210.716 127.54 211.33L128.235 215.27ZM136.887 214.4C139.64 214.4 142.184 214.498 144.521 214.693L144.853 210.707C142.39 210.502 139.734 210.4 136.887 210.4V214.4ZM142.688 212.773C143.289 229.2 144.191 244.433 145.394 258.471L149.38 258.129C148.183 244.167 147.285 229 146.686 212.627L142.688 212.773ZM145.973 256.886L144.473 258.386L147.301 261.214L148.801 259.714L145.973 256.886ZM146.119 257.814C130.631 256.003 113.853 255.1 95.7871 255.1V259.1C113.722 259.1 130.343 259.997 145.655 261.786L146.119 257.814ZM95.7871 255.1C77.9504 255.1 61.4061 255.601 46.1558 256.604L46.4184 260.596C61.5682 259.599 78.0238 259.1 95.7871 259.1V255.1ZM46.1541 256.604C31.1887 257.602 21.4568 258.508 17.1129 259.335L17.8613 263.265C21.9174 262.492 31.3855 261.598 46.4202 260.596L46.1541 256.604ZM19.3845 260.668C18.6868 258.575 18.2871 255.331 18.2871 250.8H14.2871C14.2871 255.469 14.6874 259.225 15.5897 261.932L19.3845 260.668ZM18.0354 251.771C26.9085 235.8 42.5659 216.248 65.1197 193.096L62.2545 190.304C39.6083 213.552 23.6657 233.4 14.5388 249.829L18.0354 251.771ZM65.1179 193.097C73.5399 184.475 81.6619 175.751 89.4838 166.927L86.4904 164.273C78.7123 173.049 70.6343 181.725 62.2564 190.303L65.1179 193.097ZM89.4614 166.951C107.159 147.645 116.387 130.268 116.387 114.9H112.387C112.387 128.732 104.015 145.155 86.5128 164.249L89.4614 166.951ZM116.387 114.9C116.387 105.658 113.542 97.1484 107.903 89.4211L104.672 91.7789C109.833 98.8516 112.387 106.542 112.387 114.9H116.387ZM107.917 89.4416C102.025 81.1478 92.4005 77.2 79.5871 77.2V81.2C91.5738 81.2 99.7497 84.8521 104.657 91.7584L107.917 89.4416ZM79.5871 77.2C66.6977 77.2 56.1422 81.4852 48.1202 90.1405L51.054 92.8595C58.232 85.1148 67.6765 81.2 79.5871 81.2V77.2ZM48.0254 92.7494C50.0462 95.2755 51.1871 98.9733 51.1871 104.1H55.1871C55.1871 98.4267 53.928 93.7245 51.1488 90.2506L48.0254 92.7494ZM51.1871 104.1C51.1871 108.886 49.8174 112.941 47.1173 116.361L50.2569 118.839C53.5568 114.659 55.1871 109.714 55.1871 104.1H51.1871ZM47.1084 116.372C44.8003 119.34 41.0808 121 35.4871 121V125C41.8934 125 46.9739 123.06 50.2658 118.828L47.1084 116.372ZM35.4871 121C31.1733 121 28.2806 119.774 26.4207 117.637C24.5147 115.447 23.3871 111.955 23.3871 106.8H19.3871C19.3871 112.445 20.6095 117.053 23.4035 120.263C26.2437 123.526 30.401 125 35.4871 125V121ZM23.3871 106.8C23.3871 102.831 23.693 100.207 24.1845 98.7324L20.3897 97.4675C19.6812 99.5931 19.3871 102.769 19.3871 106.8H23.3871Z" fill="url(#paint1_radial_349_225)" mask="url(#path-3-outside-2_349_225)"/>
<defs>
<filter id="filter0_f_349_225" x="0.58711" y="45.8" width="162.5" height="231.2" filterUnits="userSpaceOnUse" color-interpolation-filters="sRGB">
<feFlood flood-opacity="0" result="BackgroundImageFix"/>
<feBlend mode="normal" in="SourceGraphic" in2="BackgroundImageFix" result="shape"/>
<feGaussianBlur stdDeviation="7.85" result="effect1_foregroundBlur_349_225"/>
</filter>
<radialGradient id="paint0_radial_349_225" cx="0" cy="0" r="1" gradientUnits="userSpaceOnUse" gradientTransform="translate(84 92) rotate(90) scale(318 130.196)">
<stop stop-color="#343434" stop-opacity="0"/>
<stop offset="0.0001" stop-color="#343434" stop-opacity="0.45"/>
<stop offset="0.545" stop-color="#343434" stop-opacity="0"/>
</radialGradient>
<radialGradient id="paint1_radial_349_225" cx="0" cy="0" r="1" gradientUnits="userSpaceOnUse" gradientTransform="translate(84 152) rotate(90) scale(165 67.5543)">
<stop stop-color="#343434"/>
<stop offset="0.769697" stop-color="#343434" stop-opacity="0.03"/>
</radialGradient>
</defs>
</svg>
